G75*
%MOIN*%
%OFA0B0*%
%FSLAX25Y25*%
%IPPOS*%
%LPD*%
%AMOC8*
5,1,8,0,0,1.08239X$1,22.5*
%
%ADD10R,0.05906X0.05118*%
%ADD11R,0.05118X0.05906*%
%ADD12R,0.03937X0.04331*%
%ADD13C,0.00945*%
D10*
X0061800Y0113060D03*
X0061800Y0120540D03*
X0061800Y0133060D03*
X0061800Y0140540D03*
D11*
X0078060Y0131800D03*
X0085540Y0131800D03*
D12*
X0084300Y0120146D03*
X0078050Y0120146D03*
X0078050Y0113454D03*
X0084300Y0113454D03*
X0148675Y0155954D03*
X0148675Y0162646D03*
X0163988Y0164521D03*
X0163988Y0157829D03*
X0174300Y0157829D03*
X0174300Y0164521D03*
X0189300Y0162021D03*
X0189300Y0155329D03*
X0204925Y0155954D03*
X0204925Y0162646D03*
X0170146Y0031800D03*
X0163454Y0031800D03*
D13*
X0162843Y0083168D02*
X0162607Y0083168D01*
X0162607Y0087736D01*
X0162843Y0087736D01*
X0162843Y0083168D01*
X0162843Y0084112D02*
X0162607Y0084112D01*
X0162607Y0085056D02*
X0162843Y0085056D01*
X0162843Y0086000D02*
X0162607Y0086000D01*
X0162607Y0086944D02*
X0162843Y0086944D01*
X0165166Y0083168D02*
X0165402Y0083168D01*
X0165166Y0083168D02*
X0165166Y0087736D01*
X0165402Y0087736D01*
X0165402Y0083168D01*
X0165402Y0084112D02*
X0165166Y0084112D01*
X0165166Y0085056D02*
X0165402Y0085056D01*
X0165402Y0086000D02*
X0165166Y0086000D01*
X0165166Y0086944D02*
X0165402Y0086944D01*
X0167725Y0083168D02*
X0167961Y0083168D01*
X0167725Y0083168D02*
X0167725Y0087736D01*
X0167961Y0087736D01*
X0167961Y0083168D01*
X0167961Y0084112D02*
X0167725Y0084112D01*
X0167725Y0085056D02*
X0167961Y0085056D01*
X0167961Y0086000D02*
X0167725Y0086000D01*
X0167725Y0086944D02*
X0167961Y0086944D01*
X0170284Y0083168D02*
X0170520Y0083168D01*
X0170284Y0083168D02*
X0170284Y0087736D01*
X0170520Y0087736D01*
X0170520Y0083168D01*
X0170520Y0084112D02*
X0170284Y0084112D01*
X0170284Y0085056D02*
X0170520Y0085056D01*
X0170520Y0086000D02*
X0170284Y0086000D01*
X0170284Y0086944D02*
X0170520Y0086944D01*
X0172843Y0083168D02*
X0173079Y0083168D01*
X0172843Y0083168D02*
X0172843Y0087736D01*
X0173079Y0087736D01*
X0173079Y0083168D01*
X0173079Y0084112D02*
X0172843Y0084112D01*
X0172843Y0085056D02*
X0173079Y0085056D01*
X0173079Y0086000D02*
X0172843Y0086000D01*
X0172843Y0086944D02*
X0173079Y0086944D01*
X0175402Y0083168D02*
X0175638Y0083168D01*
X0175402Y0083168D02*
X0175402Y0087736D01*
X0175638Y0087736D01*
X0175638Y0083168D01*
X0175638Y0084112D02*
X0175402Y0084112D01*
X0175402Y0085056D02*
X0175638Y0085056D01*
X0175638Y0086000D02*
X0175402Y0086000D01*
X0175402Y0086944D02*
X0175638Y0086944D01*
X0177962Y0083168D02*
X0178198Y0083168D01*
X0177962Y0083168D02*
X0177962Y0087736D01*
X0178198Y0087736D01*
X0178198Y0083168D01*
X0178198Y0084112D02*
X0177962Y0084112D01*
X0177962Y0085056D02*
X0178198Y0085056D01*
X0178198Y0086000D02*
X0177962Y0086000D01*
X0177962Y0086944D02*
X0178198Y0086944D01*
X0180521Y0083168D02*
X0180757Y0083168D01*
X0180521Y0083168D02*
X0180521Y0087736D01*
X0180757Y0087736D01*
X0180757Y0083168D01*
X0180757Y0084112D02*
X0180521Y0084112D01*
X0180521Y0085056D02*
X0180757Y0085056D01*
X0180757Y0086000D02*
X0180521Y0086000D01*
X0180521Y0086944D02*
X0180757Y0086944D01*
X0183080Y0083168D02*
X0183316Y0083168D01*
X0183080Y0083168D02*
X0183080Y0087736D01*
X0183316Y0087736D01*
X0183316Y0083168D01*
X0183316Y0084112D02*
X0183080Y0084112D01*
X0183080Y0085056D02*
X0183316Y0085056D01*
X0183316Y0086000D02*
X0183080Y0086000D01*
X0183080Y0086944D02*
X0183316Y0086944D01*
X0185639Y0083168D02*
X0185875Y0083168D01*
X0185639Y0083168D02*
X0185639Y0087736D01*
X0185875Y0087736D01*
X0185875Y0083168D01*
X0185875Y0084112D02*
X0185639Y0084112D01*
X0185639Y0085056D02*
X0185875Y0085056D01*
X0185875Y0086000D02*
X0185639Y0086000D01*
X0185639Y0086944D02*
X0185875Y0086944D01*
X0188198Y0083168D02*
X0188434Y0083168D01*
X0188198Y0083168D02*
X0188198Y0087736D01*
X0188434Y0087736D01*
X0188434Y0083168D01*
X0188434Y0084112D02*
X0188198Y0084112D01*
X0188198Y0085056D02*
X0188434Y0085056D01*
X0188434Y0086000D02*
X0188198Y0086000D01*
X0188198Y0086944D02*
X0188434Y0086944D01*
X0190757Y0083168D02*
X0190993Y0083168D01*
X0190757Y0083168D02*
X0190757Y0087736D01*
X0190993Y0087736D01*
X0190993Y0083168D01*
X0190993Y0084112D02*
X0190757Y0084112D01*
X0190757Y0085056D02*
X0190993Y0085056D01*
X0190993Y0086000D02*
X0190757Y0086000D01*
X0190757Y0086944D02*
X0190993Y0086944D01*
X0193316Y0083168D02*
X0193552Y0083168D01*
X0193316Y0083168D02*
X0193316Y0087736D01*
X0193552Y0087736D01*
X0193552Y0083168D01*
X0193552Y0084112D02*
X0193316Y0084112D01*
X0193316Y0085056D02*
X0193552Y0085056D01*
X0193552Y0086000D02*
X0193316Y0086000D01*
X0193316Y0086944D02*
X0193552Y0086944D01*
X0195875Y0083168D02*
X0196111Y0083168D01*
X0195875Y0083168D02*
X0195875Y0087736D01*
X0196111Y0087736D01*
X0196111Y0083168D01*
X0196111Y0084112D02*
X0195875Y0084112D01*
X0195875Y0085056D02*
X0196111Y0085056D01*
X0196111Y0086000D02*
X0195875Y0086000D01*
X0195875Y0086944D02*
X0196111Y0086944D01*
X0198434Y0083168D02*
X0198670Y0083168D01*
X0198434Y0083168D02*
X0198434Y0087736D01*
X0198670Y0087736D01*
X0198670Y0083168D01*
X0198670Y0084112D02*
X0198434Y0084112D01*
X0198434Y0085056D02*
X0198670Y0085056D01*
X0198670Y0086000D02*
X0198434Y0086000D01*
X0198434Y0086944D02*
X0198670Y0086944D01*
X0200993Y0083168D02*
X0201229Y0083168D01*
X0200993Y0083168D02*
X0200993Y0087736D01*
X0201229Y0087736D01*
X0201229Y0083168D01*
X0201229Y0084112D02*
X0200993Y0084112D01*
X0200993Y0085056D02*
X0201229Y0085056D01*
X0201229Y0086000D02*
X0200993Y0086000D01*
X0200993Y0086944D02*
X0201229Y0086944D01*
X0203552Y0083168D02*
X0203788Y0083168D01*
X0203552Y0083168D02*
X0203552Y0087736D01*
X0203788Y0087736D01*
X0203788Y0083168D01*
X0203788Y0084112D02*
X0203552Y0084112D01*
X0203552Y0085056D02*
X0203788Y0085056D01*
X0203788Y0086000D02*
X0203552Y0086000D01*
X0203552Y0086944D02*
X0203788Y0086944D01*
X0206111Y0083168D02*
X0206347Y0083168D01*
X0206111Y0083168D02*
X0206111Y0087736D01*
X0206347Y0087736D01*
X0206347Y0083168D01*
X0206347Y0084112D02*
X0206111Y0084112D01*
X0206111Y0085056D02*
X0206347Y0085056D01*
X0206347Y0086000D02*
X0206111Y0086000D01*
X0206111Y0086944D02*
X0206347Y0086944D01*
X0208670Y0083168D02*
X0208906Y0083168D01*
X0208670Y0083168D02*
X0208670Y0087736D01*
X0208906Y0087736D01*
X0208906Y0083168D01*
X0208906Y0084112D02*
X0208670Y0084112D01*
X0208670Y0085056D02*
X0208906Y0085056D01*
X0208906Y0086000D02*
X0208670Y0086000D01*
X0208670Y0086944D02*
X0208906Y0086944D01*
X0211229Y0083168D02*
X0211465Y0083168D01*
X0211229Y0083168D02*
X0211229Y0087736D01*
X0211465Y0087736D01*
X0211465Y0083168D01*
X0211465Y0084112D02*
X0211229Y0084112D01*
X0211229Y0085056D02*
X0211465Y0085056D01*
X0211465Y0086000D02*
X0211229Y0086000D01*
X0211229Y0086944D02*
X0211465Y0086944D01*
X0213788Y0083168D02*
X0214024Y0083168D01*
X0213788Y0083168D02*
X0213788Y0087736D01*
X0214024Y0087736D01*
X0214024Y0083168D01*
X0214024Y0084112D02*
X0213788Y0084112D01*
X0213788Y0085056D02*
X0214024Y0085056D01*
X0214024Y0086000D02*
X0213788Y0086000D01*
X0213788Y0086944D02*
X0214024Y0086944D01*
X0222243Y0092371D02*
X0222243Y0092607D01*
X0222243Y0092371D02*
X0217675Y0092371D01*
X0217675Y0092607D01*
X0222243Y0092607D01*
X0222243Y0094930D02*
X0222243Y0095166D01*
X0222243Y0094930D02*
X0217675Y0094930D01*
X0217675Y0095166D01*
X0222243Y0095166D01*
X0222243Y0097489D02*
X0222243Y0097725D01*
X0222243Y0097489D02*
X0217675Y0097489D01*
X0217675Y0097725D01*
X0222243Y0097725D01*
X0222243Y0100048D02*
X0222243Y0100284D01*
X0222243Y0100048D02*
X0217675Y0100048D01*
X0217675Y0100284D01*
X0222243Y0100284D01*
X0222243Y0102607D02*
X0222243Y0102843D01*
X0222243Y0102607D02*
X0217675Y0102607D01*
X0217675Y0102843D01*
X0222243Y0102843D01*
X0222243Y0105166D02*
X0222243Y0105402D01*
X0222243Y0105166D02*
X0217675Y0105166D01*
X0217675Y0105402D01*
X0222243Y0105402D01*
X0222243Y0107725D02*
X0222243Y0107961D01*
X0222243Y0107725D02*
X0217675Y0107725D01*
X0217675Y0107961D01*
X0222243Y0107961D01*
X0222243Y0110284D02*
X0222243Y0110520D01*
X0222243Y0110284D02*
X0217675Y0110284D01*
X0217675Y0110520D01*
X0222243Y0110520D01*
X0222243Y0112843D02*
X0222243Y0113079D01*
X0222243Y0112843D02*
X0217675Y0112843D01*
X0217675Y0113079D01*
X0222243Y0113079D01*
X0222243Y0115402D02*
X0222243Y0115638D01*
X0222243Y0115402D02*
X0217675Y0115402D01*
X0217675Y0115638D01*
X0222243Y0115638D01*
X0222243Y0117962D02*
X0222243Y0118198D01*
X0222243Y0117962D02*
X0217675Y0117962D01*
X0217675Y0118198D01*
X0222243Y0118198D01*
X0222243Y0120521D02*
X0222243Y0120757D01*
X0222243Y0120521D02*
X0217675Y0120521D01*
X0217675Y0120757D01*
X0222243Y0120757D01*
X0222243Y0123080D02*
X0222243Y0123316D01*
X0222243Y0123080D02*
X0217675Y0123080D01*
X0217675Y0123316D01*
X0222243Y0123316D01*
X0222243Y0125639D02*
X0222243Y0125875D01*
X0222243Y0125639D02*
X0217675Y0125639D01*
X0217675Y0125875D01*
X0222243Y0125875D01*
X0222243Y0128198D02*
X0222243Y0128434D01*
X0222243Y0128198D02*
X0217675Y0128198D01*
X0217675Y0128434D01*
X0222243Y0128434D01*
X0222243Y0130757D02*
X0222243Y0130993D01*
X0222243Y0130757D02*
X0217675Y0130757D01*
X0217675Y0130993D01*
X0222243Y0130993D01*
X0222243Y0133316D02*
X0222243Y0133552D01*
X0222243Y0133316D02*
X0217675Y0133316D01*
X0217675Y0133552D01*
X0222243Y0133552D01*
X0222243Y0135875D02*
X0222243Y0136111D01*
X0222243Y0135875D02*
X0217675Y0135875D01*
X0217675Y0136111D01*
X0222243Y0136111D01*
X0222243Y0138434D02*
X0222243Y0138670D01*
X0222243Y0138434D02*
X0217675Y0138434D01*
X0217675Y0138670D01*
X0222243Y0138670D01*
X0222243Y0140993D02*
X0222243Y0141229D01*
X0222243Y0140993D02*
X0217675Y0140993D01*
X0217675Y0141229D01*
X0222243Y0141229D01*
X0214024Y0150432D02*
X0213788Y0150432D01*
X0214024Y0150432D02*
X0214024Y0145864D01*
X0213788Y0145864D01*
X0213788Y0150432D01*
X0213788Y0146808D02*
X0214024Y0146808D01*
X0214024Y0147752D02*
X0213788Y0147752D01*
X0213788Y0148696D02*
X0214024Y0148696D01*
X0214024Y0149640D02*
X0213788Y0149640D01*
X0211465Y0150432D02*
X0211229Y0150432D01*
X0211465Y0150432D02*
X0211465Y0145864D01*
X0211229Y0145864D01*
X0211229Y0150432D01*
X0211229Y0146808D02*
X0211465Y0146808D01*
X0211465Y0147752D02*
X0211229Y0147752D01*
X0211229Y0148696D02*
X0211465Y0148696D01*
X0211465Y0149640D02*
X0211229Y0149640D01*
X0208906Y0150432D02*
X0208670Y0150432D01*
X0208906Y0150432D02*
X0208906Y0145864D01*
X0208670Y0145864D01*
X0208670Y0150432D01*
X0208670Y0146808D02*
X0208906Y0146808D01*
X0208906Y0147752D02*
X0208670Y0147752D01*
X0208670Y0148696D02*
X0208906Y0148696D01*
X0208906Y0149640D02*
X0208670Y0149640D01*
X0206347Y0150432D02*
X0206111Y0150432D01*
X0206347Y0150432D02*
X0206347Y0145864D01*
X0206111Y0145864D01*
X0206111Y0150432D01*
X0206111Y0146808D02*
X0206347Y0146808D01*
X0206347Y0147752D02*
X0206111Y0147752D01*
X0206111Y0148696D02*
X0206347Y0148696D01*
X0206347Y0149640D02*
X0206111Y0149640D01*
X0203788Y0150432D02*
X0203552Y0150432D01*
X0203788Y0150432D02*
X0203788Y0145864D01*
X0203552Y0145864D01*
X0203552Y0150432D01*
X0203552Y0146808D02*
X0203788Y0146808D01*
X0203788Y0147752D02*
X0203552Y0147752D01*
X0203552Y0148696D02*
X0203788Y0148696D01*
X0203788Y0149640D02*
X0203552Y0149640D01*
X0201229Y0150432D02*
X0200993Y0150432D01*
X0201229Y0150432D02*
X0201229Y0145864D01*
X0200993Y0145864D01*
X0200993Y0150432D01*
X0200993Y0146808D02*
X0201229Y0146808D01*
X0201229Y0147752D02*
X0200993Y0147752D01*
X0200993Y0148696D02*
X0201229Y0148696D01*
X0201229Y0149640D02*
X0200993Y0149640D01*
X0198670Y0150432D02*
X0198434Y0150432D01*
X0198670Y0150432D02*
X0198670Y0145864D01*
X0198434Y0145864D01*
X0198434Y0150432D01*
X0198434Y0146808D02*
X0198670Y0146808D01*
X0198670Y0147752D02*
X0198434Y0147752D01*
X0198434Y0148696D02*
X0198670Y0148696D01*
X0198670Y0149640D02*
X0198434Y0149640D01*
X0196111Y0150432D02*
X0195875Y0150432D01*
X0196111Y0150432D02*
X0196111Y0145864D01*
X0195875Y0145864D01*
X0195875Y0150432D01*
X0195875Y0146808D02*
X0196111Y0146808D01*
X0196111Y0147752D02*
X0195875Y0147752D01*
X0195875Y0148696D02*
X0196111Y0148696D01*
X0196111Y0149640D02*
X0195875Y0149640D01*
X0193552Y0150432D02*
X0193316Y0150432D01*
X0193552Y0150432D02*
X0193552Y0145864D01*
X0193316Y0145864D01*
X0193316Y0150432D01*
X0193316Y0146808D02*
X0193552Y0146808D01*
X0193552Y0147752D02*
X0193316Y0147752D01*
X0193316Y0148696D02*
X0193552Y0148696D01*
X0193552Y0149640D02*
X0193316Y0149640D01*
X0190993Y0150432D02*
X0190757Y0150432D01*
X0190993Y0150432D02*
X0190993Y0145864D01*
X0190757Y0145864D01*
X0190757Y0150432D01*
X0190757Y0146808D02*
X0190993Y0146808D01*
X0190993Y0147752D02*
X0190757Y0147752D01*
X0190757Y0148696D02*
X0190993Y0148696D01*
X0190993Y0149640D02*
X0190757Y0149640D01*
X0188434Y0150432D02*
X0188198Y0150432D01*
X0188434Y0150432D02*
X0188434Y0145864D01*
X0188198Y0145864D01*
X0188198Y0150432D01*
X0188198Y0146808D02*
X0188434Y0146808D01*
X0188434Y0147752D02*
X0188198Y0147752D01*
X0188198Y0148696D02*
X0188434Y0148696D01*
X0188434Y0149640D02*
X0188198Y0149640D01*
X0185875Y0150432D02*
X0185639Y0150432D01*
X0185875Y0150432D02*
X0185875Y0145864D01*
X0185639Y0145864D01*
X0185639Y0150432D01*
X0185639Y0146808D02*
X0185875Y0146808D01*
X0185875Y0147752D02*
X0185639Y0147752D01*
X0185639Y0148696D02*
X0185875Y0148696D01*
X0185875Y0149640D02*
X0185639Y0149640D01*
X0183316Y0150432D02*
X0183080Y0150432D01*
X0183316Y0150432D02*
X0183316Y0145864D01*
X0183080Y0145864D01*
X0183080Y0150432D01*
X0183080Y0146808D02*
X0183316Y0146808D01*
X0183316Y0147752D02*
X0183080Y0147752D01*
X0183080Y0148696D02*
X0183316Y0148696D01*
X0183316Y0149640D02*
X0183080Y0149640D01*
X0180757Y0150432D02*
X0180521Y0150432D01*
X0180757Y0150432D02*
X0180757Y0145864D01*
X0180521Y0145864D01*
X0180521Y0150432D01*
X0180521Y0146808D02*
X0180757Y0146808D01*
X0180757Y0147752D02*
X0180521Y0147752D01*
X0180521Y0148696D02*
X0180757Y0148696D01*
X0180757Y0149640D02*
X0180521Y0149640D01*
X0178198Y0150432D02*
X0177962Y0150432D01*
X0178198Y0150432D02*
X0178198Y0145864D01*
X0177962Y0145864D01*
X0177962Y0150432D01*
X0177962Y0146808D02*
X0178198Y0146808D01*
X0178198Y0147752D02*
X0177962Y0147752D01*
X0177962Y0148696D02*
X0178198Y0148696D01*
X0178198Y0149640D02*
X0177962Y0149640D01*
X0175638Y0150432D02*
X0175402Y0150432D01*
X0175638Y0150432D02*
X0175638Y0145864D01*
X0175402Y0145864D01*
X0175402Y0150432D01*
X0175402Y0146808D02*
X0175638Y0146808D01*
X0175638Y0147752D02*
X0175402Y0147752D01*
X0175402Y0148696D02*
X0175638Y0148696D01*
X0175638Y0149640D02*
X0175402Y0149640D01*
X0173079Y0150432D02*
X0172843Y0150432D01*
X0173079Y0150432D02*
X0173079Y0145864D01*
X0172843Y0145864D01*
X0172843Y0150432D01*
X0172843Y0146808D02*
X0173079Y0146808D01*
X0173079Y0147752D02*
X0172843Y0147752D01*
X0172843Y0148696D02*
X0173079Y0148696D01*
X0173079Y0149640D02*
X0172843Y0149640D01*
X0170520Y0150432D02*
X0170284Y0150432D01*
X0170520Y0150432D02*
X0170520Y0145864D01*
X0170284Y0145864D01*
X0170284Y0150432D01*
X0170284Y0146808D02*
X0170520Y0146808D01*
X0170520Y0147752D02*
X0170284Y0147752D01*
X0170284Y0148696D02*
X0170520Y0148696D01*
X0170520Y0149640D02*
X0170284Y0149640D01*
X0167961Y0150432D02*
X0167725Y0150432D01*
X0167961Y0150432D02*
X0167961Y0145864D01*
X0167725Y0145864D01*
X0167725Y0150432D01*
X0167725Y0146808D02*
X0167961Y0146808D01*
X0167961Y0147752D02*
X0167725Y0147752D01*
X0167725Y0148696D02*
X0167961Y0148696D01*
X0167961Y0149640D02*
X0167725Y0149640D01*
X0165402Y0150432D02*
X0165166Y0150432D01*
X0165402Y0150432D02*
X0165402Y0145864D01*
X0165166Y0145864D01*
X0165166Y0150432D01*
X0165166Y0146808D02*
X0165402Y0146808D01*
X0165402Y0147752D02*
X0165166Y0147752D01*
X0165166Y0148696D02*
X0165402Y0148696D01*
X0165402Y0149640D02*
X0165166Y0149640D01*
X0162843Y0150432D02*
X0162607Y0150432D01*
X0162843Y0150432D02*
X0162843Y0145864D01*
X0162607Y0145864D01*
X0162607Y0150432D01*
X0162607Y0146808D02*
X0162843Y0146808D01*
X0162843Y0147752D02*
X0162607Y0147752D01*
X0162607Y0148696D02*
X0162843Y0148696D01*
X0162843Y0149640D02*
X0162607Y0149640D01*
X0160284Y0150432D02*
X0160048Y0150432D01*
X0160284Y0150432D02*
X0160284Y0145864D01*
X0160048Y0145864D01*
X0160048Y0150432D01*
X0160048Y0146808D02*
X0160284Y0146808D01*
X0160284Y0147752D02*
X0160048Y0147752D01*
X0160048Y0148696D02*
X0160284Y0148696D01*
X0160284Y0149640D02*
X0160048Y0149640D01*
X0157725Y0150432D02*
X0157489Y0150432D01*
X0157725Y0150432D02*
X0157725Y0145864D01*
X0157489Y0145864D01*
X0157489Y0150432D01*
X0157489Y0146808D02*
X0157725Y0146808D01*
X0157725Y0147752D02*
X0157489Y0147752D01*
X0157489Y0148696D02*
X0157725Y0148696D01*
X0157725Y0149640D02*
X0157489Y0149640D01*
X0155166Y0150432D02*
X0154930Y0150432D01*
X0155166Y0150432D02*
X0155166Y0145864D01*
X0154930Y0145864D01*
X0154930Y0150432D01*
X0154930Y0146808D02*
X0155166Y0146808D01*
X0155166Y0147752D02*
X0154930Y0147752D01*
X0154930Y0148696D02*
X0155166Y0148696D01*
X0155166Y0149640D02*
X0154930Y0149640D01*
X0152607Y0150432D02*
X0152371Y0150432D01*
X0152607Y0150432D02*
X0152607Y0145864D01*
X0152371Y0145864D01*
X0152371Y0150432D01*
X0152371Y0146808D02*
X0152607Y0146808D01*
X0152607Y0147752D02*
X0152371Y0147752D01*
X0152371Y0148696D02*
X0152607Y0148696D01*
X0152607Y0149640D02*
X0152371Y0149640D01*
X0150048Y0150432D02*
X0149812Y0150432D01*
X0150048Y0150432D02*
X0150048Y0145864D01*
X0149812Y0145864D01*
X0149812Y0150432D01*
X0149812Y0146808D02*
X0150048Y0146808D01*
X0150048Y0147752D02*
X0149812Y0147752D01*
X0149812Y0148696D02*
X0150048Y0148696D01*
X0150048Y0149640D02*
X0149812Y0149640D01*
X0147489Y0150432D02*
X0147253Y0150432D01*
X0147489Y0150432D02*
X0147489Y0145864D01*
X0147253Y0145864D01*
X0147253Y0150432D01*
X0147253Y0146808D02*
X0147489Y0146808D01*
X0147489Y0147752D02*
X0147253Y0147752D01*
X0147253Y0148696D02*
X0147489Y0148696D01*
X0147489Y0149640D02*
X0147253Y0149640D01*
X0144930Y0150432D02*
X0144694Y0150432D01*
X0144930Y0150432D02*
X0144930Y0145864D01*
X0144694Y0145864D01*
X0144694Y0150432D01*
X0144694Y0146808D02*
X0144930Y0146808D01*
X0144930Y0147752D02*
X0144694Y0147752D01*
X0144694Y0148696D02*
X0144930Y0148696D01*
X0144930Y0149640D02*
X0144694Y0149640D01*
X0142371Y0150432D02*
X0142135Y0150432D01*
X0142371Y0150432D02*
X0142371Y0145864D01*
X0142135Y0145864D01*
X0142135Y0150432D01*
X0142135Y0146808D02*
X0142371Y0146808D01*
X0142371Y0147752D02*
X0142135Y0147752D01*
X0142135Y0148696D02*
X0142371Y0148696D01*
X0142371Y0149640D02*
X0142135Y0149640D01*
X0139812Y0150432D02*
X0139576Y0150432D01*
X0139812Y0150432D02*
X0139812Y0145864D01*
X0139576Y0145864D01*
X0139576Y0150432D01*
X0139576Y0146808D02*
X0139812Y0146808D01*
X0139812Y0147752D02*
X0139576Y0147752D01*
X0139576Y0148696D02*
X0139812Y0148696D01*
X0139812Y0149640D02*
X0139576Y0149640D01*
X0131357Y0141229D02*
X0131357Y0140993D01*
X0131357Y0141229D02*
X0135925Y0141229D01*
X0135925Y0140993D01*
X0131357Y0140993D01*
X0131357Y0138670D02*
X0131357Y0138434D01*
X0131357Y0138670D02*
X0135925Y0138670D01*
X0135925Y0138434D01*
X0131357Y0138434D01*
X0131357Y0136111D02*
X0131357Y0135875D01*
X0131357Y0136111D02*
X0135925Y0136111D01*
X0135925Y0135875D01*
X0131357Y0135875D01*
X0131357Y0133552D02*
X0131357Y0133316D01*
X0131357Y0133552D02*
X0135925Y0133552D01*
X0135925Y0133316D01*
X0131357Y0133316D01*
X0131357Y0130993D02*
X0131357Y0130757D01*
X0131357Y0130993D02*
X0135925Y0130993D01*
X0135925Y0130757D01*
X0131357Y0130757D01*
X0131357Y0128434D02*
X0131357Y0128198D01*
X0131357Y0128434D02*
X0135925Y0128434D01*
X0135925Y0128198D01*
X0131357Y0128198D01*
X0131357Y0125875D02*
X0131357Y0125639D01*
X0131357Y0125875D02*
X0135925Y0125875D01*
X0135925Y0125639D01*
X0131357Y0125639D01*
X0131357Y0123316D02*
X0131357Y0123080D01*
X0131357Y0123316D02*
X0135925Y0123316D01*
X0135925Y0123080D01*
X0131357Y0123080D01*
X0131357Y0120757D02*
X0131357Y0120521D01*
X0131357Y0120757D02*
X0135925Y0120757D01*
X0135925Y0120521D01*
X0131357Y0120521D01*
X0131357Y0118198D02*
X0131357Y0117962D01*
X0131357Y0118198D02*
X0135925Y0118198D01*
X0135925Y0117962D01*
X0131357Y0117962D01*
X0131357Y0115638D02*
X0131357Y0115402D01*
X0131357Y0115638D02*
X0135925Y0115638D01*
X0135925Y0115402D01*
X0131357Y0115402D01*
X0131357Y0113079D02*
X0131357Y0112843D01*
X0131357Y0113079D02*
X0135925Y0113079D01*
X0135925Y0112843D01*
X0131357Y0112843D01*
X0131357Y0110520D02*
X0131357Y0110284D01*
X0131357Y0110520D02*
X0135925Y0110520D01*
X0135925Y0110284D01*
X0131357Y0110284D01*
X0131357Y0107961D02*
X0131357Y0107725D01*
X0131357Y0107961D02*
X0135925Y0107961D01*
X0135925Y0107725D01*
X0131357Y0107725D01*
X0131357Y0105402D02*
X0131357Y0105166D01*
X0131357Y0105402D02*
X0135925Y0105402D01*
X0135925Y0105166D01*
X0131357Y0105166D01*
X0131357Y0102843D02*
X0131357Y0102607D01*
X0131357Y0102843D02*
X0135925Y0102843D01*
X0135925Y0102607D01*
X0131357Y0102607D01*
X0131357Y0100284D02*
X0131357Y0100048D01*
X0131357Y0100284D02*
X0135925Y0100284D01*
X0135925Y0100048D01*
X0131357Y0100048D01*
X0131357Y0097725D02*
X0131357Y0097489D01*
X0131357Y0097725D02*
X0135925Y0097725D01*
X0135925Y0097489D01*
X0131357Y0097489D01*
X0131357Y0095166D02*
X0131357Y0094930D01*
X0131357Y0095166D02*
X0135925Y0095166D01*
X0135925Y0094930D01*
X0131357Y0094930D01*
X0131357Y0092607D02*
X0131357Y0092371D01*
X0131357Y0092607D02*
X0135925Y0092607D01*
X0135925Y0092371D01*
X0131357Y0092371D01*
X0139576Y0083168D02*
X0139812Y0083168D01*
X0139576Y0083168D02*
X0139576Y0087736D01*
X0139812Y0087736D01*
X0139812Y0083168D01*
X0139812Y0084112D02*
X0139576Y0084112D01*
X0139576Y0085056D02*
X0139812Y0085056D01*
X0139812Y0086000D02*
X0139576Y0086000D01*
X0139576Y0086944D02*
X0139812Y0086944D01*
X0142135Y0083168D02*
X0142371Y0083168D01*
X0142135Y0083168D02*
X0142135Y0087736D01*
X0142371Y0087736D01*
X0142371Y0083168D01*
X0142371Y0084112D02*
X0142135Y0084112D01*
X0142135Y0085056D02*
X0142371Y0085056D01*
X0142371Y0086000D02*
X0142135Y0086000D01*
X0142135Y0086944D02*
X0142371Y0086944D01*
X0144694Y0083168D02*
X0144930Y0083168D01*
X0144694Y0083168D02*
X0144694Y0087736D01*
X0144930Y0087736D01*
X0144930Y0083168D01*
X0144930Y0084112D02*
X0144694Y0084112D01*
X0144694Y0085056D02*
X0144930Y0085056D01*
X0144930Y0086000D02*
X0144694Y0086000D01*
X0144694Y0086944D02*
X0144930Y0086944D01*
X0147253Y0083168D02*
X0147489Y0083168D01*
X0147253Y0083168D02*
X0147253Y0087736D01*
X0147489Y0087736D01*
X0147489Y0083168D01*
X0147489Y0084112D02*
X0147253Y0084112D01*
X0147253Y0085056D02*
X0147489Y0085056D01*
X0147489Y0086000D02*
X0147253Y0086000D01*
X0147253Y0086944D02*
X0147489Y0086944D01*
X0149812Y0083168D02*
X0150048Y0083168D01*
X0149812Y0083168D02*
X0149812Y0087736D01*
X0150048Y0087736D01*
X0150048Y0083168D01*
X0150048Y0084112D02*
X0149812Y0084112D01*
X0149812Y0085056D02*
X0150048Y0085056D01*
X0150048Y0086000D02*
X0149812Y0086000D01*
X0149812Y0086944D02*
X0150048Y0086944D01*
X0152371Y0083168D02*
X0152607Y0083168D01*
X0152371Y0083168D02*
X0152371Y0087736D01*
X0152607Y0087736D01*
X0152607Y0083168D01*
X0152607Y0084112D02*
X0152371Y0084112D01*
X0152371Y0085056D02*
X0152607Y0085056D01*
X0152607Y0086000D02*
X0152371Y0086000D01*
X0152371Y0086944D02*
X0152607Y0086944D01*
X0154930Y0083168D02*
X0155166Y0083168D01*
X0154930Y0083168D02*
X0154930Y0087736D01*
X0155166Y0087736D01*
X0155166Y0083168D01*
X0155166Y0084112D02*
X0154930Y0084112D01*
X0154930Y0085056D02*
X0155166Y0085056D01*
X0155166Y0086000D02*
X0154930Y0086000D01*
X0154930Y0086944D02*
X0155166Y0086944D01*
X0157489Y0083168D02*
X0157725Y0083168D01*
X0157489Y0083168D02*
X0157489Y0087736D01*
X0157725Y0087736D01*
X0157725Y0083168D01*
X0157725Y0084112D02*
X0157489Y0084112D01*
X0157489Y0085056D02*
X0157725Y0085056D01*
X0157725Y0086000D02*
X0157489Y0086000D01*
X0157489Y0086944D02*
X0157725Y0086944D01*
X0160048Y0083168D02*
X0160284Y0083168D01*
X0160048Y0083168D02*
X0160048Y0087736D01*
X0160284Y0087736D01*
X0160284Y0083168D01*
X0160284Y0084112D02*
X0160048Y0084112D01*
X0160048Y0085056D02*
X0160284Y0085056D01*
X0160284Y0086000D02*
X0160048Y0086000D01*
X0160048Y0086944D02*
X0160284Y0086944D01*
M02*
