%
M48
M71
T01C0.400
T02C0.600
T03C0.889
%
T01
X4267Y4267
X8553Y12681
X9347Y13475
X8553Y14427
X9188Y16808
X8712Y17920
X9347Y18872
X8871Y19825
X9347Y20936
X8553Y21730
X8871Y23635
X9347Y24587
X8553Y25381
X9347Y26175
X8553Y26968
X9347Y27762
X8712Y28873
X4267Y28397
X4267Y22047
X4267Y13157
X14427Y2997
X22047Y15697
X16808Y18872
X21571Y20777
X24111Y21571
X25063Y22523
X27127Y24587
X28556Y23317
X24587Y25857
X27127Y27603
X25857Y30937
X28397Y30937
X27127Y33477
X28397Y34747
X29667Y36017
X30937Y37287
X32683Y38240
X30143Y40780
X29667Y42367
X30937Y42367
X28397Y41097
X22047Y36017
X19507Y36017
X9347Y39827
X8712Y41415
X9506Y42208
X8712Y43002
X9347Y43955
X8871Y45066
X9506Y46018
X8712Y46971
X9347Y48558
X8553Y49352
X9347Y50146
X8553Y50940
X9347Y51733
X8712Y52686
X9506Y53480
X8712Y54273
X4267Y57607
X4267Y48717
X14427Y58877
X22047Y58877
X32207Y58877
X42367Y58877
X53797Y58877
X62687Y58877
X58877Y48717
X57607Y47447
X55067Y47447
X51257Y47447
X48717Y47447
X47447Y46177
X46177Y44907
X44907Y44907
X41732Y45542
X41653Y43082
X38557Y44907
X37287Y43637
X34747Y43637
X36493Y41415
X36970Y35700
X38557Y34588
X41097Y34588
X42367Y35700
X43637Y34588
X45701Y35700
X47447Y35700
X48717Y34588
X51257Y34588
X52527Y33477
X52527Y31731
X53797Y30302
X52527Y28397
X51257Y24905
X52845Y23635
X48717Y24905
X47447Y23635
X46177Y24905
X44907Y23635
X43637Y25857
X42367Y23635
X41097Y24905
X38557Y24905
X37128Y23635
X36017Y29032
X37287Y30937
X32207Y29350
X45542Y39510
X45542Y41415
X48082Y42526
X52051Y42526
X52527Y35700
X46177Y30937
X57607Y19507
X58877Y24587
X60147Y25857
X61100Y27445
X61417Y31731
X62687Y37287
X62687Y47447
X62687Y15697
X52527Y15697
X48717Y13157
X47447Y14427
X46177Y15697
X43637Y15697
X39827Y8077
X41097Y2997
X52527Y2997
X62687Y2997
X28397Y2997
X4267Y37287
T02
X3473Y33636
X3473Y32048
X3791Y30461
X18078Y28873
X23317Y32048
X8871Y8077
T03
X9017Y5563
M30
