G75*
%MOIN*%
%OFA0B0*%
%FSLAX25Y25*%
%IPPOS*%
%LPD*%
%AMOC8*
5,1,8,0,0,1.08239X$1,22.5*
%
%ADD10C,0.00600*%
%ADD11C,0.00300*%
%ADD12C,0.02000*%
%ADD13R,0.05512X0.02559*%
%ADD14R,0.02559X0.05512*%
%ADD15R,0.01600X0.03400*%
D10*
X0023800Y0018300D02*
X0034200Y0018300D01*
X0036700Y0018300D02*
X0047200Y0018300D01*
X0047200Y0029400D01*
X0046700Y0018800D02*
X0024300Y0018800D01*
X0024300Y0230600D01*
X0046700Y0230600D01*
X0046700Y0018800D01*
X0023800Y0018300D02*
X0023800Y0029400D01*
X0059300Y0115186D02*
X0059300Y0118414D01*
X0064300Y0118414D02*
X0064300Y0115186D01*
X0080186Y0119300D02*
X0083414Y0119300D01*
X0083414Y0124300D02*
X0080186Y0124300D01*
X0064300Y0135186D02*
X0064300Y0138414D01*
X0059300Y0138414D02*
X0059300Y0135186D01*
X0051600Y0216100D02*
X0051675Y0216102D01*
X0051751Y0216107D01*
X0051825Y0216117D01*
X0051899Y0216130D01*
X0051973Y0216147D01*
X0052045Y0216168D01*
X0052117Y0216193D01*
X0052186Y0216221D01*
X0052255Y0216253D01*
X0052321Y0216288D01*
X0052386Y0216326D01*
X0052449Y0216368D01*
X0052509Y0216413D01*
X0052567Y0216461D01*
X0052623Y0216512D01*
X0052676Y0216566D01*
X0052726Y0216622D01*
X0052773Y0216681D01*
X0052817Y0216742D01*
X0052858Y0216806D01*
X0052895Y0216871D01*
X0052929Y0216938D01*
X0052960Y0217007D01*
X0052987Y0217078D01*
X0053010Y0217149D01*
X0053030Y0217222D01*
X0053046Y0217296D01*
X0053058Y0217370D01*
X0053066Y0217445D01*
X0053070Y0217520D01*
X0053071Y0217596D01*
X0053067Y0217671D01*
X0053060Y0217746D01*
X0053049Y0217821D01*
X0053034Y0217894D01*
X0053016Y0217967D01*
X0052993Y0218039D01*
X0052967Y0218110D01*
X0052938Y0218179D01*
X0052904Y0218247D01*
X0052868Y0218313D01*
X0052828Y0218377D01*
X0052785Y0218439D01*
X0052739Y0218498D01*
X0052689Y0218555D01*
X0052637Y0218610D01*
X0052582Y0218662D01*
X0052525Y0218710D01*
X0052465Y0218756D01*
X0052403Y0218799D01*
X0052339Y0218838D01*
X0052273Y0218874D01*
X0052205Y0218907D01*
X0052135Y0218936D01*
X0052064Y0218962D01*
X0051992Y0218983D01*
X0051919Y0219002D01*
X0051845Y0219016D01*
X0051770Y0219026D01*
X0051695Y0219033D01*
X0051620Y0219036D01*
X0051545Y0219035D01*
X0051469Y0219030D01*
X0051395Y0219021D01*
X0051320Y0219009D01*
X0051247Y0218992D01*
X0051174Y0218972D01*
X0051103Y0218948D01*
X0051032Y0218921D01*
X0050964Y0218890D01*
X0050897Y0218855D01*
X0050832Y0218817D01*
X0050769Y0218776D01*
X0050708Y0218731D01*
X0050649Y0218684D01*
X0050593Y0218633D01*
X0050540Y0218580D01*
X0050489Y0218524D01*
X0050442Y0218466D01*
X0050397Y0218405D01*
X0050356Y0218342D01*
X0050318Y0218277D01*
X0050283Y0218210D01*
X0050252Y0218142D01*
X0050224Y0218071D01*
X0050200Y0218000D01*
X0050199Y0217200D02*
X0050221Y0217127D01*
X0050247Y0217055D01*
X0050277Y0216985D01*
X0050309Y0216916D01*
X0050346Y0216849D01*
X0050386Y0216784D01*
X0050429Y0216721D01*
X0050475Y0216660D01*
X0050524Y0216602D01*
X0050576Y0216546D01*
X0050631Y0216493D01*
X0050688Y0216443D01*
X0050748Y0216396D01*
X0050811Y0216352D01*
X0050875Y0216311D01*
X0050942Y0216273D01*
X0051010Y0216239D01*
X0051080Y0216209D01*
X0051151Y0216182D01*
X0051224Y0216159D01*
X0051298Y0216139D01*
X0051372Y0216124D01*
X0051448Y0216112D01*
X0051524Y0216104D01*
X0051600Y0216100D01*
X0047200Y0220000D02*
X0047200Y0231100D01*
X0023800Y0231100D01*
X0023800Y0220000D01*
X0175099Y0115077D02*
X0178501Y0115077D01*
X0178501Y0112273D02*
X0175099Y0112273D01*
X0175099Y0108202D02*
X0178501Y0108202D01*
X0178501Y0105398D02*
X0175099Y0105398D01*
D11*
X0017740Y0020750D02*
X0016339Y0020750D01*
X0017040Y0020750D02*
X0017040Y0022852D01*
X0017740Y0022151D01*
X0018549Y0022852D02*
X0019249Y0022852D01*
X0018899Y0022852D02*
X0018899Y0021100D01*
X0019249Y0020750D01*
X0019600Y0020750D01*
X0019950Y0021100D01*
X0024446Y0024790D02*
X0025230Y0024006D01*
X0028366Y0027142D01*
X0029150Y0026358D01*
X0029150Y0024790D01*
X0028366Y0024006D01*
X0025230Y0024006D01*
X0028366Y0027142D01*
X0025230Y0027142D01*
X0024446Y0026358D01*
X0024446Y0024790D01*
X0025230Y0024006D01*
X0028366Y0024006D01*
X0029150Y0024790D01*
X0029150Y0026358D01*
X0028366Y0027142D01*
X0025230Y0027142D01*
X0024446Y0026358D01*
X0024446Y0024790D01*
X0025230Y0028610D02*
X0024446Y0029394D01*
X0024446Y0030962D01*
X0025230Y0031746D01*
X0024446Y0030962D01*
X0024446Y0029394D01*
X0025230Y0028610D01*
X0026014Y0028610D01*
X0029150Y0031746D01*
X0029150Y0028610D01*
X0029150Y0031746D01*
X0026014Y0028610D01*
X0025230Y0028610D01*
X0029150Y0033214D02*
X0029150Y0036350D01*
X0029150Y0033214D01*
X0029150Y0034782D02*
X0024446Y0034782D01*
X0026014Y0036350D01*
X0024446Y0034782D01*
X0029150Y0034782D01*
X0041746Y0030914D02*
X0042530Y0032482D01*
X0044098Y0034050D01*
X0044098Y0031698D01*
X0044882Y0030914D01*
X0045666Y0030914D01*
X0046450Y0031698D01*
X0046450Y0033266D01*
X0045666Y0034050D01*
X0044098Y0034050D01*
X0044098Y0031698D01*
X0044882Y0030914D01*
X0045666Y0030914D01*
X0046450Y0031698D01*
X0046450Y0033266D01*
X0045666Y0034050D01*
X0044098Y0034050D01*
X0042530Y0032482D01*
X0041746Y0030914D01*
X0042530Y0029446D02*
X0041746Y0028662D01*
X0041746Y0027094D01*
X0042530Y0026310D01*
X0045666Y0029446D01*
X0046450Y0028662D01*
X0046450Y0027094D01*
X0045666Y0026310D01*
X0042530Y0026310D01*
X0045666Y0029446D01*
X0042530Y0029446D01*
X0041746Y0028662D01*
X0041746Y0027094D01*
X0042530Y0026310D01*
X0045666Y0026310D01*
X0046450Y0027094D01*
X0046450Y0028662D01*
X0045666Y0029446D01*
X0042530Y0029446D01*
X0037500Y0112270D02*
X0037850Y0112620D01*
X0037850Y0113321D01*
X0037500Y0113671D01*
X0036799Y0113671D02*
X0036449Y0112970D01*
X0036449Y0112620D01*
X0036799Y0112270D01*
X0037500Y0112270D01*
X0036799Y0113671D02*
X0035748Y0113671D01*
X0035748Y0112270D01*
X0036799Y0114480D02*
X0036799Y0115881D01*
X0036799Y0116690D02*
X0037500Y0116690D01*
X0037850Y0117040D01*
X0037850Y0117740D01*
X0037500Y0118091D01*
X0036799Y0118091D02*
X0036449Y0117390D01*
X0036449Y0117040D01*
X0036799Y0116690D01*
X0035748Y0116690D02*
X0035748Y0118091D01*
X0036799Y0118091D01*
X0036449Y0118899D02*
X0036799Y0119250D01*
X0036799Y0119950D01*
X0036449Y0120301D01*
X0036099Y0120301D01*
X0035748Y0119950D01*
X0035748Y0119250D01*
X0036099Y0118899D01*
X0036449Y0118899D01*
X0036799Y0119250D02*
X0037149Y0118899D01*
X0037500Y0118899D01*
X0037850Y0119250D01*
X0037850Y0119950D01*
X0037500Y0120301D01*
X0037149Y0120301D01*
X0036799Y0119950D01*
X0036799Y0121109D02*
X0036799Y0122160D01*
X0036449Y0122510D01*
X0036099Y0122510D01*
X0035748Y0122160D01*
X0035748Y0121460D01*
X0036099Y0121109D01*
X0037500Y0121109D01*
X0037850Y0121460D01*
X0037850Y0122160D01*
X0037500Y0122510D01*
X0036099Y0123319D02*
X0037500Y0124720D01*
X0037850Y0124720D01*
X0036099Y0125529D02*
X0037500Y0126930D01*
X0037850Y0126930D01*
X0037850Y0127739D02*
X0037850Y0129140D01*
X0037850Y0128440D02*
X0035748Y0128440D01*
X0036449Y0129140D01*
X0036799Y0129949D02*
X0037500Y0129949D01*
X0037850Y0130299D01*
X0037850Y0131000D01*
X0037500Y0131350D01*
X0036799Y0131350D02*
X0036449Y0130649D01*
X0036449Y0130299D01*
X0036799Y0129949D01*
X0035748Y0129949D02*
X0035748Y0131350D01*
X0036799Y0131350D01*
X0035748Y0126930D02*
X0035748Y0125529D01*
X0036099Y0125529D01*
X0035748Y0124720D02*
X0035748Y0123319D01*
X0036099Y0123319D01*
X0053664Y0135075D02*
X0055065Y0135075D01*
X0054365Y0135075D02*
X0054365Y0137177D01*
X0055065Y0136476D01*
X0055874Y0136126D02*
X0056224Y0135776D01*
X0057275Y0135776D01*
X0056574Y0135776D02*
X0055874Y0135075D01*
X0055874Y0136126D02*
X0055874Y0136826D01*
X0056224Y0137177D01*
X0057275Y0137177D01*
X0057275Y0135075D01*
X0066559Y0117902D02*
X0067260Y0117902D01*
X0067610Y0117551D01*
X0068419Y0117551D02*
X0068419Y0116851D01*
X0068769Y0116501D01*
X0069820Y0116501D01*
X0069119Y0116501D02*
X0068419Y0115800D01*
X0067610Y0115800D02*
X0066209Y0117201D01*
X0066209Y0117551D01*
X0066559Y0117902D01*
X0068419Y0117551D02*
X0068769Y0117902D01*
X0069820Y0117902D01*
X0069820Y0115800D01*
X0067610Y0115800D02*
X0066209Y0115800D01*
X0078709Y0115876D02*
X0079059Y0116226D01*
X0080110Y0116226D01*
X0080110Y0115525D01*
X0079760Y0115175D01*
X0079059Y0115175D01*
X0078709Y0115525D01*
X0078709Y0115876D01*
X0079409Y0116926D02*
X0078709Y0117277D01*
X0079409Y0116926D02*
X0080110Y0116226D01*
X0080919Y0115175D02*
X0082320Y0115175D01*
X0081619Y0115175D02*
X0081619Y0117277D01*
X0082320Y0116576D01*
X0083128Y0116226D02*
X0083479Y0115876D01*
X0084530Y0115876D01*
X0083829Y0115876D02*
X0083128Y0115175D01*
X0083128Y0116226D02*
X0083128Y0116926D01*
X0083479Y0117277D01*
X0084530Y0117277D01*
X0084530Y0115175D01*
X0174334Y0116775D02*
X0174334Y0117126D01*
X0174684Y0117476D01*
X0175735Y0117476D01*
X0175735Y0116775D01*
X0175385Y0116425D01*
X0174684Y0116425D01*
X0174334Y0116775D01*
X0175034Y0118176D02*
X0175735Y0117476D01*
X0176544Y0117476D02*
X0176894Y0117126D01*
X0177945Y0117126D01*
X0177244Y0117126D02*
X0176544Y0116425D01*
X0176544Y0117476D02*
X0176544Y0118176D01*
X0176894Y0118527D01*
X0177945Y0118527D01*
X0177945Y0116425D01*
X0175034Y0118176D02*
X0174334Y0118527D01*
X0173709Y0103527D02*
X0175110Y0103527D01*
X0175110Y0102476D01*
X0174409Y0102826D01*
X0174059Y0102826D01*
X0173709Y0102476D01*
X0173709Y0101775D01*
X0174059Y0101425D01*
X0174760Y0101425D01*
X0175110Y0101775D01*
X0175919Y0101425D02*
X0176619Y0102126D01*
X0176269Y0102126D02*
X0177320Y0102126D01*
X0177320Y0101425D02*
X0177320Y0103527D01*
X0176269Y0103527D01*
X0175919Y0103176D01*
X0175919Y0102476D01*
X0176269Y0102126D01*
X0046450Y0218714D02*
X0046450Y0221850D01*
X0046450Y0218714D01*
X0046450Y0220282D02*
X0041746Y0220282D01*
X0043314Y0221850D01*
X0041746Y0220282D01*
X0046450Y0220282D01*
X0029150Y0219546D02*
X0029150Y0216410D01*
X0029150Y0219546D01*
X0029150Y0217978D02*
X0024446Y0217978D01*
X0026014Y0219546D01*
X0024446Y0217978D01*
X0029150Y0217978D01*
X0028366Y0221014D02*
X0027582Y0221014D01*
X0026798Y0221798D01*
X0026798Y0224150D01*
X0028366Y0224150D01*
X0029150Y0223366D01*
X0029150Y0221798D01*
X0028366Y0221014D01*
X0027582Y0221014D01*
X0026798Y0221798D01*
X0026798Y0224150D01*
X0025230Y0222582D01*
X0024446Y0221014D01*
X0025230Y0222582D01*
X0026798Y0224150D01*
X0028366Y0224150D01*
X0029150Y0223366D01*
X0029150Y0221798D01*
X0028366Y0221014D01*
D12*
X0051600Y0219100D02*
X0051524Y0219098D01*
X0051448Y0219092D01*
X0051373Y0219083D01*
X0051298Y0219069D01*
X0051224Y0219052D01*
X0051151Y0219031D01*
X0051079Y0219007D01*
X0051008Y0218978D01*
X0050939Y0218947D01*
X0050872Y0218912D01*
X0050807Y0218873D01*
X0050743Y0218831D01*
X0050682Y0218786D01*
X0050623Y0218738D01*
X0050567Y0218687D01*
X0050513Y0218633D01*
X0050462Y0218577D01*
X0050414Y0218518D01*
X0050369Y0218457D01*
X0050327Y0218393D01*
X0050288Y0218328D01*
X0050253Y0218261D01*
X0050222Y0218192D01*
X0050193Y0218121D01*
X0050169Y0218049D01*
X0050148Y0217976D01*
X0050131Y0217902D01*
X0050117Y0217827D01*
X0050108Y0217752D01*
X0050102Y0217676D01*
X0050100Y0217600D01*
X0050102Y0217524D01*
X0050108Y0217448D01*
X0050117Y0217373D01*
X0050131Y0217298D01*
X0050148Y0217224D01*
X0050169Y0217151D01*
X0050193Y0217079D01*
X0050222Y0217008D01*
X0050253Y0216939D01*
X0050288Y0216872D01*
X0050327Y0216807D01*
X0050369Y0216743D01*
X0050414Y0216682D01*
X0050462Y0216623D01*
X0050513Y0216567D01*
X0050567Y0216513D01*
X0050623Y0216462D01*
X0050682Y0216414D01*
X0050743Y0216369D01*
X0050807Y0216327D01*
X0050872Y0216288D01*
X0050939Y0216253D01*
X0051008Y0216222D01*
X0051079Y0216193D01*
X0051151Y0216169D01*
X0051224Y0216148D01*
X0051298Y0216131D01*
X0051373Y0216117D01*
X0051448Y0216108D01*
X0051524Y0216102D01*
X0051600Y0216100D01*
X0051676Y0216102D01*
X0051752Y0216108D01*
X0051827Y0216117D01*
X0051902Y0216131D01*
X0051976Y0216148D01*
X0052049Y0216169D01*
X0052121Y0216193D01*
X0052192Y0216222D01*
X0052261Y0216253D01*
X0052328Y0216288D01*
X0052393Y0216327D01*
X0052457Y0216369D01*
X0052518Y0216414D01*
X0052577Y0216462D01*
X0052633Y0216513D01*
X0052687Y0216567D01*
X0052738Y0216623D01*
X0052786Y0216682D01*
X0052831Y0216743D01*
X0052873Y0216807D01*
X0052912Y0216872D01*
X0052947Y0216939D01*
X0052978Y0217008D01*
X0053007Y0217079D01*
X0053031Y0217151D01*
X0053052Y0217224D01*
X0053069Y0217298D01*
X0053083Y0217373D01*
X0053092Y0217448D01*
X0053098Y0217524D01*
X0053100Y0217600D01*
X0053098Y0217676D01*
X0053092Y0217752D01*
X0053083Y0217827D01*
X0053069Y0217902D01*
X0053052Y0217976D01*
X0053031Y0218049D01*
X0053007Y0218121D01*
X0052978Y0218192D01*
X0052947Y0218261D01*
X0052912Y0218328D01*
X0052873Y0218393D01*
X0052831Y0218457D01*
X0052786Y0218518D01*
X0052738Y0218577D01*
X0052687Y0218633D01*
X0052633Y0218687D01*
X0052577Y0218738D01*
X0052518Y0218786D01*
X0052457Y0218831D01*
X0052393Y0218873D01*
X0052328Y0218912D01*
X0052261Y0218947D01*
X0052192Y0218978D01*
X0052121Y0219007D01*
X0052049Y0219031D01*
X0051976Y0219052D01*
X0051902Y0219069D01*
X0051827Y0219083D01*
X0051752Y0219092D01*
X0051676Y0219098D01*
X0051600Y0219100D01*
D13*
X0061806Y0139680D03*
X0061806Y0133880D03*
X0061794Y0119720D03*
X0061794Y0113920D03*
D14*
X0078880Y0121794D03*
X0084680Y0121794D03*
D15*
X0174300Y0113675D03*
X0179300Y0113675D03*
X0179300Y0106800D03*
X0174300Y0106800D03*
M02*
