G75*
%MOIN*%
%OFA0B0*%
%FSLAX25Y25*%
%IPPOS*%
%LPD*%
%AMOC8*
5,1,8,0,0,1.08239X$1,22.5*
%
%ADD10R,0.08100X0.02100*%
%ADD11C,0.05500*%
%ADD12R,0.05906X0.05118*%
%ADD13R,0.05118X0.05906*%
%ADD14R,0.03937X0.04331*%
%ADD15C,0.01600*%
%ADD16C,0.03962*%
%ADD17C,0.01000*%
%ADD18C,0.03175*%
%ADD19C,0.02400*%
D10*
X0026800Y0031800D03*
X0026800Y0034950D03*
X0026800Y0038099D03*
X0026800Y0041249D03*
X0026800Y0044398D03*
X0026800Y0047548D03*
X0026800Y0050698D03*
X0026800Y0053847D03*
X0026800Y0056997D03*
X0026800Y0060146D03*
X0026800Y0063296D03*
X0026800Y0066446D03*
X0026800Y0069595D03*
X0026800Y0072745D03*
X0026800Y0075894D03*
X0026800Y0079044D03*
X0026800Y0082194D03*
X0026800Y0085343D03*
X0026800Y0088493D03*
X0026800Y0091643D03*
X0026800Y0094792D03*
X0026800Y0097942D03*
X0026800Y0101091D03*
X0026800Y0104241D03*
X0026800Y0107391D03*
X0026800Y0110540D03*
X0026800Y0113690D03*
X0026800Y0116839D03*
X0026800Y0119989D03*
X0026800Y0123139D03*
X0026800Y0126288D03*
X0026800Y0129438D03*
X0026800Y0132587D03*
X0026800Y0135737D03*
X0026800Y0138887D03*
X0026800Y0142036D03*
X0026800Y0145186D03*
X0026800Y0148335D03*
X0026800Y0151485D03*
X0026800Y0154635D03*
X0026800Y0157784D03*
X0026800Y0160934D03*
X0026800Y0164083D03*
X0026800Y0167233D03*
X0026800Y0170383D03*
X0026800Y0173532D03*
X0026800Y0176682D03*
X0026800Y0179831D03*
X0026800Y0182981D03*
X0026800Y0186131D03*
X0026800Y0189280D03*
X0026800Y0192430D03*
X0026800Y0195580D03*
X0026800Y0198729D03*
X0026800Y0201879D03*
X0026800Y0205028D03*
X0026800Y0208178D03*
X0026800Y0211328D03*
X0026800Y0214477D03*
X0026800Y0217627D03*
X0044123Y0217627D03*
X0044123Y0214477D03*
X0044123Y0211328D03*
X0044123Y0208178D03*
X0044123Y0205028D03*
X0044123Y0201879D03*
X0044123Y0198729D03*
X0044123Y0195580D03*
X0044123Y0192430D03*
X0044123Y0189280D03*
X0044123Y0186131D03*
X0044123Y0182981D03*
X0044123Y0179831D03*
X0044123Y0176682D03*
X0044123Y0173532D03*
X0044123Y0170383D03*
X0044123Y0167233D03*
X0044123Y0164083D03*
X0044123Y0160934D03*
X0044123Y0157784D03*
X0044123Y0154635D03*
X0044123Y0151485D03*
X0044123Y0148335D03*
X0044123Y0145186D03*
X0044123Y0142036D03*
X0044123Y0138887D03*
X0044123Y0135737D03*
X0044123Y0132587D03*
X0044123Y0129438D03*
X0044123Y0126288D03*
X0044123Y0123139D03*
X0044123Y0119989D03*
X0044123Y0116839D03*
X0044123Y0113690D03*
X0044123Y0110540D03*
X0044123Y0107391D03*
X0044123Y0104241D03*
X0044123Y0101091D03*
X0044123Y0097942D03*
X0044123Y0094792D03*
X0044123Y0091643D03*
X0044123Y0088493D03*
X0044123Y0085343D03*
X0044123Y0082194D03*
X0044123Y0079044D03*
X0044123Y0075894D03*
X0044123Y0072745D03*
X0044123Y0069595D03*
X0044123Y0066446D03*
X0044123Y0063296D03*
X0044123Y0060146D03*
X0044123Y0056997D03*
X0044123Y0053847D03*
X0044123Y0050698D03*
X0044123Y0047548D03*
X0044123Y0044398D03*
X0044123Y0041249D03*
X0044123Y0038099D03*
X0044123Y0034950D03*
X0044123Y0031800D03*
D11*
X0035500Y0021900D03*
D12*
X0061800Y0113060D03*
X0061800Y0120540D03*
X0061800Y0133060D03*
X0061800Y0140540D03*
D13*
X0078060Y0121800D03*
X0085540Y0121800D03*
D14*
X0173454Y0113675D03*
X0180146Y0113675D03*
X0180146Y0106800D03*
X0173454Y0106800D03*
D15*
X0010607Y0009926D02*
X0011649Y0008122D01*
X0013122Y0006649D01*
X0014926Y0005607D01*
X0016939Y0005068D01*
X0017980Y0005000D01*
X0245620Y0005000D01*
X0246661Y0005068D01*
X0248674Y0005607D01*
X0250478Y0006649D01*
X0251951Y0008122D01*
X0252993Y0009926D01*
X0253532Y0011939D01*
X0253600Y0012980D01*
X0253600Y0235620D01*
X0253532Y0236661D01*
X0252993Y0238674D01*
X0251951Y0240478D01*
X0250478Y0241951D01*
X0248674Y0242993D01*
X0246661Y0243532D01*
X0245620Y0243600D01*
X0017980Y0243600D01*
X0016939Y0243532D01*
X0014926Y0242993D01*
X0013122Y0241951D01*
X0011649Y0240478D01*
X0010607Y0238674D01*
X0010607Y0238674D01*
X0010068Y0236661D01*
X0010000Y0235620D01*
X0010000Y0136077D01*
X0010740Y0136817D01*
X0012644Y0137606D01*
X0014706Y0137606D01*
X0016610Y0136817D01*
X0018067Y0135360D01*
X0018856Y0133456D01*
X0018856Y0133438D01*
X0019804Y0133438D01*
X0019550Y0134050D01*
X0019550Y0159471D01*
X0020037Y0160647D01*
X0020324Y0160934D01*
X0020037Y0161221D01*
X0019550Y0162397D01*
X0019550Y0187817D01*
X0020037Y0188993D01*
X0020324Y0189280D01*
X0020037Y0189567D01*
X0019550Y0190743D01*
X0019550Y0216164D01*
X0020037Y0217340D01*
X0020937Y0218240D01*
X0020950Y0218245D01*
X0020950Y0218914D01*
X0021073Y0219372D01*
X0021310Y0219782D01*
X0021645Y0220117D01*
X0022055Y0220354D01*
X0022513Y0220477D01*
X0026800Y0220477D01*
X0026800Y0218727D01*
X0026800Y0218727D01*
X0026800Y0220477D01*
X0031087Y0220477D01*
X0031545Y0220354D01*
X0031955Y0220117D01*
X0032290Y0219782D01*
X0032527Y0219372D01*
X0032650Y0218914D01*
X0032650Y0218245D01*
X0032663Y0218240D01*
X0032706Y0218197D01*
X0033348Y0218462D01*
X0035252Y0218462D01*
X0037012Y0217734D01*
X0037383Y0217363D01*
X0038260Y0218240D01*
X0038273Y0218245D01*
X0038273Y0218914D01*
X0038395Y0219372D01*
X0038632Y0219782D01*
X0038968Y0220117D01*
X0039378Y0220354D01*
X0039836Y0220477D01*
X0044123Y0220477D01*
X0044123Y0218727D01*
X0044123Y0218727D01*
X0044123Y0220477D01*
X0048410Y0220477D01*
X0048868Y0220354D01*
X0049278Y0220117D01*
X0049613Y0219782D01*
X0049850Y0219372D01*
X0049973Y0218914D01*
X0049973Y0218245D01*
X0049985Y0218240D01*
X0050886Y0217340D01*
X0051373Y0216164D01*
X0051373Y0215028D01*
X0213008Y0215028D01*
X0214368Y0214464D01*
X0215409Y0213423D01*
X0232245Y0196587D01*
X0232752Y0196587D01*
X0234512Y0195859D01*
X0235859Y0194512D01*
X0236587Y0192752D01*
X0236587Y0190848D01*
X0235859Y0189088D01*
X0234512Y0187741D01*
X0232752Y0187013D01*
X0231587Y0187013D01*
X0231587Y0185848D01*
X0230859Y0184088D01*
X0229512Y0182741D01*
X0227752Y0182013D01*
X0225848Y0182013D01*
X0224088Y0182741D01*
X0222741Y0184088D01*
X0222013Y0185848D01*
X0222013Y0186355D01*
X0221587Y0186780D01*
X0221587Y0185848D01*
X0220859Y0184088D01*
X0219512Y0182741D01*
X0217752Y0182013D01*
X0215848Y0182013D01*
X0214088Y0182741D01*
X0212741Y0184088D01*
X0212013Y0185848D01*
X0212013Y0186355D01*
X0197039Y0201328D01*
X0192504Y0201328D01*
X0194858Y0198975D01*
X0202245Y0191587D01*
X0202752Y0191587D01*
X0204512Y0190859D01*
X0205859Y0189512D01*
X0206587Y0187752D01*
X0206587Y0185848D01*
X0205859Y0184088D01*
X0204512Y0182741D01*
X0202752Y0182013D01*
X0200848Y0182013D01*
X0199088Y0182741D01*
X0197741Y0184088D01*
X0197013Y0185848D01*
X0197013Y0186355D01*
X0196587Y0186780D01*
X0196587Y0185848D01*
X0195859Y0184088D01*
X0194512Y0182741D01*
X0192752Y0182013D01*
X0191587Y0182013D01*
X0191587Y0180848D01*
X0190859Y0179088D01*
X0189512Y0177741D01*
X0187752Y0177013D01*
X0186587Y0177013D01*
X0186587Y0175848D01*
X0185859Y0174088D01*
X0184512Y0172741D01*
X0182752Y0172013D01*
X0180848Y0172013D01*
X0179300Y0172654D01*
X0177752Y0172013D01*
X0175848Y0172013D01*
X0174088Y0172741D01*
X0172741Y0174088D01*
X0172013Y0175848D01*
X0172013Y0176355D01*
X0169087Y0179280D01*
X0169087Y0178348D01*
X0168359Y0176588D01*
X0167012Y0175241D01*
X0165252Y0174513D01*
X0163348Y0174513D01*
X0161588Y0175241D01*
X0160241Y0176588D01*
X0159513Y0178348D01*
X0159513Y0178855D01*
X0159086Y0179281D01*
X0155954Y0179281D01*
X0156587Y0177752D01*
X0156587Y0175848D01*
X0155859Y0174088D01*
X0154512Y0172741D01*
X0152752Y0172013D01*
X0151587Y0172013D01*
X0151587Y0170848D01*
X0150859Y0169088D01*
X0149512Y0167741D01*
X0147752Y0167013D01*
X0145848Y0167013D01*
X0144088Y0167741D01*
X0142741Y0169088D01*
X0142013Y0170848D01*
X0142013Y0171355D01*
X0140386Y0172982D01*
X0120851Y0172982D01*
X0122245Y0171587D01*
X0122752Y0171587D01*
X0124512Y0170859D01*
X0125859Y0169512D01*
X0126587Y0167752D01*
X0126587Y0165848D01*
X0125859Y0164088D01*
X0124512Y0162741D01*
X0122752Y0162013D01*
X0120848Y0162013D01*
X0119300Y0162654D01*
X0117752Y0162013D01*
X0116820Y0162013D01*
X0118333Y0160500D01*
X0178786Y0160500D01*
X0179179Y0160337D01*
X0180252Y0160337D01*
X0182012Y0159609D01*
X0183359Y0158262D01*
X0184087Y0156502D01*
X0184087Y0154598D01*
X0183359Y0152838D01*
X0182012Y0151491D01*
X0180252Y0150763D01*
X0178348Y0150763D01*
X0176588Y0151491D01*
X0175241Y0152838D01*
X0175133Y0153100D01*
X0120733Y0153100D01*
X0122245Y0151587D01*
X0122752Y0151587D01*
X0124512Y0150859D01*
X0125859Y0149512D01*
X0126587Y0147752D01*
X0126587Y0145848D01*
X0125859Y0144088D01*
X0124512Y0142741D01*
X0122752Y0142013D01*
X0121587Y0142013D01*
X0121587Y0140848D01*
X0120859Y0139088D01*
X0119512Y0137741D01*
X0117752Y0137013D01*
X0116587Y0137013D01*
X0116587Y0135848D01*
X0115859Y0134088D01*
X0114512Y0132741D01*
X0112752Y0132013D01*
X0111587Y0132013D01*
X0111587Y0130848D01*
X0110859Y0129088D01*
X0109512Y0127741D01*
X0107752Y0127013D01*
X0105848Y0127013D01*
X0104088Y0127741D01*
X0102741Y0129088D01*
X0102013Y0130848D01*
X0102013Y0131355D01*
X0085582Y0147785D01*
X0051373Y0147785D01*
X0051373Y0139530D01*
X0054649Y0142806D01*
X0055696Y0143852D01*
X0056134Y0144912D01*
X0057035Y0145812D01*
X0058211Y0146299D01*
X0065389Y0146299D01*
X0066565Y0145812D01*
X0067466Y0144912D01*
X0067953Y0143736D01*
X0067953Y0137345D01*
X0067727Y0136800D01*
X0067953Y0136255D01*
X0067953Y0129864D01*
X0067466Y0128688D01*
X0066565Y0127788D01*
X0065389Y0127301D01*
X0065301Y0127301D01*
X0065191Y0127034D01*
X0064456Y0126299D01*
X0065389Y0126299D01*
X0066565Y0125812D01*
X0067466Y0124912D01*
X0067620Y0124540D01*
X0068883Y0124540D01*
X0069534Y0125191D01*
X0071004Y0125800D01*
X0072471Y0125800D01*
X0072788Y0126565D01*
X0073688Y0127466D01*
X0074864Y0127953D01*
X0081255Y0127953D01*
X0081800Y0127727D01*
X0082345Y0127953D01*
X0086928Y0127953D01*
X0087408Y0129110D01*
X0088865Y0130567D01*
X0090769Y0131356D01*
X0092831Y0131356D01*
X0094735Y0130567D01*
X0096192Y0129110D01*
X0096981Y0127206D01*
X0096981Y0125144D01*
X0096192Y0123240D01*
X0095223Y0122271D01*
X0094937Y0121579D01*
X0093896Y0120538D01*
X0092021Y0118663D01*
X0091299Y0118364D01*
X0091299Y0118211D01*
X0090812Y0117035D01*
X0089912Y0116134D01*
X0088736Y0115647D01*
X0082345Y0115647D01*
X0081800Y0115873D01*
X0081255Y0115647D01*
X0075966Y0115647D01*
X0076356Y0114706D01*
X0076356Y0112644D01*
X0075567Y0110740D01*
X0075327Y0110500D01*
X0100267Y0110500D01*
X0101579Y0111812D01*
X0102939Y0112375D01*
X0103730Y0112375D01*
X0104088Y0112734D01*
X0105848Y0113462D01*
X0107752Y0113462D01*
X0109512Y0112734D01*
X0110859Y0111387D01*
X0111587Y0109627D01*
X0111587Y0107723D01*
X0110859Y0105963D01*
X0109512Y0104616D01*
X0107752Y0103888D01*
X0105848Y0103888D01*
X0104626Y0104394D01*
X0103896Y0103663D01*
X0102536Y0103100D01*
X0101443Y0103100D01*
X0101587Y0102752D01*
X0101587Y0100848D01*
X0101443Y0100500D01*
X0103730Y0100500D01*
X0104088Y0100859D01*
X0105848Y0101587D01*
X0107752Y0101587D01*
X0109512Y0100859D01*
X0110859Y0099512D01*
X0111587Y0097752D01*
X0111587Y0096587D01*
X0113377Y0096587D01*
X0115137Y0095859D01*
X0116484Y0094512D01*
X0117212Y0092752D01*
X0117212Y0090848D01*
X0116484Y0089088D01*
X0115137Y0087741D01*
X0113377Y0087013D01*
X0111473Y0087013D01*
X0109713Y0087741D01*
X0109355Y0088100D01*
X0103462Y0088100D01*
X0103462Y0087723D01*
X0102734Y0085963D01*
X0101387Y0084616D01*
X0099687Y0083913D01*
X0098984Y0082213D01*
X0097637Y0080866D01*
X0095877Y0080138D01*
X0093973Y0080138D01*
X0092213Y0080866D01*
X0091855Y0081225D01*
X0089712Y0081225D01*
X0089712Y0080848D01*
X0088984Y0079088D01*
X0087637Y0077741D01*
X0085877Y0077013D01*
X0083973Y0077013D01*
X0082213Y0077741D01*
X0081855Y0078100D01*
X0069145Y0078100D01*
X0070234Y0077012D01*
X0070962Y0075252D01*
X0070962Y0073348D01*
X0070234Y0071588D01*
X0068887Y0070241D01*
X0068678Y0070155D01*
X0073333Y0065500D01*
X0083730Y0065500D01*
X0084088Y0065859D01*
X0085848Y0066587D01*
X0087752Y0066587D01*
X0089512Y0065859D01*
X0090859Y0064512D01*
X0091587Y0062752D01*
X0091587Y0060848D01*
X0091443Y0060500D01*
X0165267Y0060500D01*
X0167013Y0062245D01*
X0167013Y0062752D01*
X0167741Y0064512D01*
X0169088Y0065859D01*
X0170848Y0066587D01*
X0172752Y0066587D01*
X0174512Y0065859D01*
X0175859Y0064512D01*
X0176587Y0062752D01*
X0176587Y0061820D01*
X0177013Y0062245D01*
X0177013Y0062752D01*
X0177741Y0064512D01*
X0179088Y0065859D01*
X0180848Y0066587D01*
X0182752Y0066587D01*
X0184512Y0065859D01*
X0185859Y0064512D01*
X0186587Y0062752D01*
X0186587Y0061587D01*
X0187752Y0061587D01*
X0189512Y0060859D01*
X0190859Y0059512D01*
X0191587Y0057752D01*
X0191587Y0056587D01*
X0192752Y0056587D01*
X0194512Y0055859D01*
X0195069Y0055301D01*
X0202013Y0062245D01*
X0202013Y0062752D01*
X0202741Y0064512D01*
X0204088Y0065859D01*
X0205848Y0066587D01*
X0207752Y0066587D01*
X0209512Y0065859D01*
X0210859Y0064512D01*
X0211587Y0062752D01*
X0211587Y0061820D01*
X0223100Y0073333D01*
X0223100Y0073730D01*
X0222741Y0074088D01*
X0222013Y0075848D01*
X0222013Y0077752D01*
X0222741Y0079512D01*
X0224088Y0080859D01*
X0225848Y0081587D01*
X0227752Y0081587D01*
X0228100Y0081443D01*
X0228100Y0093730D01*
X0227741Y0094088D01*
X0227013Y0095848D01*
X0227013Y0097752D01*
X0227741Y0099512D01*
X0229088Y0100859D01*
X0230848Y0101587D01*
X0232013Y0101587D01*
X0232013Y0102752D01*
X0232741Y0104512D01*
X0234088Y0105859D01*
X0235848Y0106587D01*
X0235974Y0106587D01*
X0235763Y0107098D01*
X0235763Y0109002D01*
X0236491Y0110762D01*
X0237838Y0112109D01*
X0239598Y0112837D01*
X0241502Y0112837D01*
X0243262Y0112109D01*
X0244609Y0110762D01*
X0245337Y0109002D01*
X0245337Y0107098D01*
X0244609Y0105338D01*
X0244250Y0104980D01*
X0244250Y0069814D01*
X0243687Y0068454D01*
X0242646Y0067413D01*
X0242646Y0067413D01*
X0208271Y0033038D01*
X0206911Y0032475D01*
X0161587Y0032475D01*
X0161587Y0030848D01*
X0160859Y0029088D01*
X0159512Y0027741D01*
X0157752Y0027013D01*
X0155848Y0027013D01*
X0154088Y0027741D01*
X0153730Y0028100D01*
X0061064Y0028100D01*
X0059704Y0028663D01*
X0053968Y0034399D01*
X0051373Y0034399D01*
X0051373Y0033263D01*
X0050886Y0032087D01*
X0049985Y0031187D01*
X0049973Y0031182D01*
X0049973Y0030513D01*
X0049850Y0030055D01*
X0049613Y0029645D01*
X0049278Y0029310D01*
X0048868Y0029073D01*
X0048410Y0028950D01*
X0044123Y0028950D01*
X0044123Y0030700D01*
X0044123Y0030700D01*
X0044123Y0028950D01*
X0039836Y0028950D01*
X0039378Y0029073D01*
X0038968Y0029310D01*
X0038632Y0029645D01*
X0038395Y0030055D01*
X0038273Y0030513D01*
X0038273Y0031182D01*
X0038260Y0031187D01*
X0037360Y0032087D01*
X0036873Y0033263D01*
X0036873Y0046352D01*
X0036387Y0045866D01*
X0034627Y0045138D01*
X0034050Y0045138D01*
X0034050Y0033263D01*
X0033563Y0032087D01*
X0032663Y0031187D01*
X0032650Y0031182D01*
X0032650Y0030513D01*
X0032527Y0030055D01*
X0032290Y0029645D01*
X0031955Y0029310D01*
X0031545Y0029073D01*
X0031087Y0028950D01*
X0026800Y0028950D01*
X0026800Y0030700D01*
X0026800Y0030700D01*
X0026800Y0028950D01*
X0022513Y0028950D01*
X0022055Y0029073D01*
X0021645Y0029310D01*
X0021310Y0029645D01*
X0021073Y0030055D01*
X0020950Y0030513D01*
X0020950Y0031182D01*
X0020937Y0031187D01*
X0020037Y0032087D01*
X0019550Y0033263D01*
X0019550Y0058683D01*
X0020037Y0059860D01*
X0020324Y0060146D01*
X0020037Y0060433D01*
X0019550Y0061610D01*
X0019550Y0087030D01*
X0020037Y0088206D01*
X0020324Y0088493D01*
X0020037Y0088780D01*
X0019550Y0089956D01*
X0019550Y0115376D01*
X0020037Y0116552D01*
X0020324Y0116839D01*
X0020037Y0117126D01*
X0019705Y0117927D01*
X0019317Y0116990D01*
X0017860Y0115533D01*
X0015956Y0114744D01*
X0013894Y0114744D01*
X0011990Y0115533D01*
X0010533Y0116990D01*
X0010000Y0118276D01*
X0010000Y0012980D01*
X0010068Y0011939D01*
X0010607Y0009926D01*
X0010685Y0009793D02*
X0252915Y0009793D01*
X0253385Y0011391D02*
X0010215Y0011391D01*
X0010000Y0012990D02*
X0253600Y0012990D01*
X0253600Y0014588D02*
X0010000Y0014588D01*
X0010000Y0016187D02*
X0033745Y0016187D01*
X0034316Y0015950D02*
X0036684Y0015950D01*
X0038870Y0016856D01*
X0040544Y0018530D01*
X0041450Y0020716D01*
X0041450Y0023084D01*
X0040544Y0025270D01*
X0038870Y0026944D01*
X0036684Y0027850D01*
X0034316Y0027850D01*
X0032130Y0026944D01*
X0030456Y0025270D01*
X0029550Y0023084D01*
X0029550Y0020716D01*
X0030456Y0018530D01*
X0032130Y0016856D01*
X0034316Y0015950D01*
X0037255Y0016187D02*
X0253600Y0016187D01*
X0253600Y0017785D02*
X0039800Y0017785D01*
X0040898Y0019384D02*
X0253600Y0019384D01*
X0253600Y0020982D02*
X0041450Y0020982D01*
X0041450Y0022581D02*
X0253600Y0022581D01*
X0253600Y0024179D02*
X0040996Y0024179D01*
X0040037Y0025778D02*
X0253600Y0025778D01*
X0253600Y0027376D02*
X0158630Y0027376D01*
X0160745Y0028975D02*
X0253600Y0028975D01*
X0253600Y0030573D02*
X0161474Y0030573D01*
X0161587Y0032172D02*
X0253600Y0032172D01*
X0253600Y0033770D02*
X0209003Y0033770D01*
X0210601Y0035369D02*
X0253600Y0035369D01*
X0253600Y0036967D02*
X0212200Y0036967D01*
X0213798Y0038566D02*
X0253600Y0038566D01*
X0253600Y0040164D02*
X0215397Y0040164D01*
X0216995Y0041763D02*
X0253600Y0041763D01*
X0253600Y0043361D02*
X0218594Y0043361D01*
X0220192Y0044960D02*
X0253600Y0044960D01*
X0253600Y0046558D02*
X0221791Y0046558D01*
X0223389Y0048157D02*
X0253600Y0048157D01*
X0253600Y0049755D02*
X0224988Y0049755D01*
X0226586Y0051354D02*
X0253600Y0051354D01*
X0253600Y0052952D02*
X0228185Y0052952D01*
X0229783Y0054551D02*
X0253600Y0054551D01*
X0253600Y0056149D02*
X0231382Y0056149D01*
X0232980Y0057748D02*
X0253600Y0057748D01*
X0253600Y0059346D02*
X0234579Y0059346D01*
X0236177Y0060945D02*
X0253600Y0060945D01*
X0253600Y0062543D02*
X0237776Y0062543D01*
X0239375Y0064142D02*
X0253600Y0064142D01*
X0253600Y0065740D02*
X0240973Y0065740D01*
X0242572Y0067339D02*
X0253600Y0067339D01*
X0253600Y0068937D02*
X0243887Y0068937D01*
X0244250Y0070536D02*
X0253600Y0070536D01*
X0253600Y0072134D02*
X0244250Y0072134D01*
X0244250Y0073733D02*
X0253600Y0073733D01*
X0253600Y0075332D02*
X0244250Y0075332D01*
X0244250Y0076930D02*
X0253600Y0076930D01*
X0253600Y0078529D02*
X0244250Y0078529D01*
X0244250Y0080127D02*
X0253600Y0080127D01*
X0253600Y0081726D02*
X0244250Y0081726D01*
X0244250Y0083324D02*
X0253600Y0083324D01*
X0253600Y0084923D02*
X0244250Y0084923D01*
X0244250Y0086521D02*
X0253600Y0086521D01*
X0253600Y0088120D02*
X0244250Y0088120D01*
X0244250Y0089718D02*
X0253600Y0089718D01*
X0253600Y0091317D02*
X0244250Y0091317D01*
X0244250Y0092915D02*
X0253600Y0092915D01*
X0253600Y0094514D02*
X0244250Y0094514D01*
X0244250Y0096112D02*
X0253600Y0096112D01*
X0253600Y0097711D02*
X0244250Y0097711D01*
X0244250Y0099309D02*
X0253600Y0099309D01*
X0253600Y0100908D02*
X0244250Y0100908D01*
X0244250Y0102506D02*
X0253600Y0102506D01*
X0253600Y0104105D02*
X0244250Y0104105D01*
X0244760Y0105703D02*
X0253600Y0105703D01*
X0253600Y0107302D02*
X0245337Y0107302D01*
X0245337Y0108900D02*
X0253600Y0108900D01*
X0253600Y0110499D02*
X0244718Y0110499D01*
X0243273Y0112097D02*
X0253600Y0112097D01*
X0253600Y0113696D02*
X0185315Y0113696D01*
X0185315Y0115294D02*
X0209035Y0115294D01*
X0209088Y0115241D02*
X0210848Y0114513D01*
X0212752Y0114513D01*
X0214512Y0115241D01*
X0215859Y0116588D01*
X0216587Y0118348D01*
X0216587Y0120252D01*
X0216200Y0121188D01*
X0216200Y0136425D01*
X0215530Y0138042D01*
X0211246Y0142327D01*
X0210859Y0143262D01*
X0209512Y0144609D01*
X0207752Y0145337D01*
X0205848Y0145337D01*
X0204912Y0144950D01*
X0188688Y0144950D01*
X0187752Y0145337D01*
X0185848Y0145337D01*
X0184912Y0144950D01*
X0181813Y0144950D01*
X0180877Y0145337D01*
X0178973Y0145337D01*
X0178037Y0144950D01*
X0168688Y0144950D01*
X0167752Y0145337D01*
X0165848Y0145337D01*
X0164912Y0144950D01*
X0147438Y0144950D01*
X0146502Y0145337D01*
X0144598Y0145337D01*
X0142838Y0144609D01*
X0141491Y0143262D01*
X0141104Y0142327D01*
X0138070Y0139292D01*
X0137400Y0137675D01*
X0137400Y0119950D01*
X0128688Y0119950D01*
X0127752Y0120337D01*
X0125848Y0120337D01*
X0124088Y0119609D01*
X0122741Y0118262D01*
X0122013Y0116502D01*
X0122013Y0114598D01*
X0122741Y0112838D01*
X0124088Y0111491D01*
X0125848Y0110763D01*
X0127752Y0110763D01*
X0128688Y0111150D01*
X0137400Y0111150D01*
X0137400Y0096550D01*
X0138070Y0094933D01*
X0139308Y0093695D01*
X0141729Y0091273D01*
X0142116Y0090338D01*
X0143463Y0088991D01*
X0145223Y0088263D01*
X0147127Y0088263D01*
X0148063Y0088650D01*
X0164912Y0088650D01*
X0165848Y0088263D01*
X0167752Y0088263D01*
X0168688Y0088650D01*
X0174912Y0088650D01*
X0175848Y0088263D01*
X0177752Y0088263D01*
X0178688Y0088650D01*
X0184912Y0088650D01*
X0185848Y0088263D01*
X0187752Y0088263D01*
X0188688Y0088650D01*
X0206162Y0088650D01*
X0207098Y0088263D01*
X0209002Y0088263D01*
X0210762Y0088991D01*
X0212109Y0090338D01*
X0212837Y0092098D01*
X0212837Y0094002D01*
X0212109Y0095762D01*
X0210762Y0097109D01*
X0209002Y0097837D01*
X0207098Y0097837D01*
X0206162Y0097450D01*
X0188688Y0097450D01*
X0187752Y0097837D01*
X0185848Y0097837D01*
X0184912Y0097450D01*
X0178688Y0097450D01*
X0177752Y0097837D01*
X0175848Y0097837D01*
X0174912Y0097450D01*
X0173808Y0097450D01*
X0174512Y0097741D01*
X0175859Y0099088D01*
X0176587Y0100848D01*
X0176587Y0101355D01*
X0176590Y0101358D01*
X0176739Y0101716D01*
X0177235Y0101922D01*
X0178135Y0102822D01*
X0178140Y0102835D01*
X0179962Y0102835D01*
X0179962Y0106616D01*
X0180331Y0106616D01*
X0180331Y0106984D01*
X0183915Y0106984D01*
X0183915Y0108792D01*
X0183928Y0108797D01*
X0184828Y0109697D01*
X0185315Y0110873D01*
X0185315Y0116477D01*
X0184828Y0117653D01*
X0184626Y0117855D01*
X0185859Y0119088D01*
X0186587Y0120848D01*
X0186587Y0122752D01*
X0185859Y0124512D01*
X0184512Y0125859D01*
X0182752Y0126587D01*
X0180848Y0126587D01*
X0179088Y0125859D01*
X0177741Y0124512D01*
X0177013Y0122752D01*
X0177013Y0122245D01*
X0177010Y0122242D01*
X0176446Y0120882D01*
X0176446Y0118880D01*
X0176059Y0119040D01*
X0170849Y0119040D01*
X0169672Y0118553D01*
X0168772Y0117653D01*
X0168285Y0116477D01*
X0168285Y0110873D01*
X0168548Y0110237D01*
X0168285Y0109602D01*
X0168285Y0105055D01*
X0167741Y0104512D01*
X0167013Y0102752D01*
X0167013Y0100848D01*
X0167741Y0099088D01*
X0169088Y0097741D01*
X0169792Y0097450D01*
X0168688Y0097450D01*
X0167752Y0097837D01*
X0165848Y0097837D01*
X0164912Y0097450D01*
X0148063Y0097450D01*
X0147952Y0097496D01*
X0146200Y0099248D01*
X0146200Y0112412D01*
X0146587Y0113348D01*
X0146587Y0115252D01*
X0146200Y0116188D01*
X0146200Y0134977D01*
X0147327Y0136104D01*
X0147438Y0136150D01*
X0164912Y0136150D01*
X0165848Y0135763D01*
X0167752Y0135763D01*
X0168688Y0136150D01*
X0178037Y0136150D01*
X0178973Y0135763D01*
X0180877Y0135763D01*
X0181813Y0136150D01*
X0184912Y0136150D01*
X0185848Y0135763D01*
X0187752Y0135763D01*
X0188688Y0136150D01*
X0204912Y0136150D01*
X0205023Y0136104D01*
X0207400Y0133727D01*
X0207400Y0121188D01*
X0207013Y0120252D01*
X0207013Y0118348D01*
X0207741Y0116588D01*
X0209088Y0115241D01*
X0207615Y0116893D02*
X0185143Y0116893D01*
X0185262Y0118491D02*
X0207013Y0118491D01*
X0207013Y0120090D02*
X0186273Y0120090D01*
X0186587Y0121688D02*
X0207400Y0121688D01*
X0207400Y0123287D02*
X0186366Y0123287D01*
X0185485Y0124885D02*
X0207400Y0124885D01*
X0207400Y0126484D02*
X0183002Y0126484D01*
X0180598Y0126484D02*
X0146200Y0126484D01*
X0146200Y0128082D02*
X0207400Y0128082D01*
X0207400Y0129681D02*
X0146200Y0129681D01*
X0146200Y0131279D02*
X0207400Y0131279D01*
X0207400Y0132878D02*
X0146200Y0132878D01*
X0146200Y0134476D02*
X0206651Y0134476D01*
X0205052Y0136075D02*
X0188506Y0136075D01*
X0185094Y0136075D02*
X0181631Y0136075D01*
X0178219Y0136075D02*
X0168506Y0136075D01*
X0165094Y0136075D02*
X0147297Y0136075D01*
X0139648Y0140870D02*
X0121587Y0140870D01*
X0120935Y0139272D02*
X0138061Y0139272D01*
X0137400Y0137673D02*
X0119348Y0137673D01*
X0116587Y0136075D02*
X0137400Y0136075D01*
X0137400Y0134476D02*
X0116019Y0134476D01*
X0114648Y0132878D02*
X0137400Y0132878D01*
X0137400Y0131279D02*
X0111587Y0131279D01*
X0111104Y0129681D02*
X0137400Y0129681D01*
X0137400Y0128082D02*
X0109853Y0128082D01*
X0103747Y0128082D02*
X0096618Y0128082D01*
X0096981Y0126484D02*
X0137400Y0126484D01*
X0137400Y0124885D02*
X0096874Y0124885D01*
X0096212Y0123287D02*
X0137400Y0123287D01*
X0137400Y0121688D02*
X0094982Y0121688D01*
X0093447Y0120090D02*
X0125250Y0120090D01*
X0122971Y0118491D02*
X0091606Y0118491D01*
X0090670Y0116893D02*
X0122174Y0116893D01*
X0122013Y0115294D02*
X0076112Y0115294D01*
X0076356Y0113696D02*
X0122386Y0113696D01*
X0123482Y0112097D02*
X0110148Y0112097D01*
X0111226Y0110499D02*
X0137400Y0110499D01*
X0137400Y0108900D02*
X0111587Y0108900D01*
X0111413Y0107302D02*
X0137400Y0107302D01*
X0137400Y0105703D02*
X0110599Y0105703D01*
X0108276Y0104105D02*
X0137400Y0104105D01*
X0137400Y0102506D02*
X0101587Y0102506D01*
X0101587Y0100908D02*
X0104207Y0100908D01*
X0104337Y0104105D02*
X0105324Y0104105D01*
X0109393Y0100908D02*
X0137400Y0100908D01*
X0137400Y0099309D02*
X0110942Y0099309D01*
X0111587Y0097711D02*
X0137400Y0097711D01*
X0137581Y0096112D02*
X0114525Y0096112D01*
X0116482Y0094514D02*
X0138489Y0094514D01*
X0140087Y0092915D02*
X0117145Y0092915D01*
X0117212Y0091317D02*
X0141686Y0091317D01*
X0142736Y0089718D02*
X0116744Y0089718D01*
X0115515Y0088120D02*
X0228100Y0088120D01*
X0228100Y0089718D02*
X0211489Y0089718D01*
X0212514Y0091317D02*
X0228100Y0091317D01*
X0228100Y0092915D02*
X0212837Y0092915D01*
X0212626Y0094514D02*
X0227565Y0094514D01*
X0227013Y0096112D02*
X0211758Y0096112D01*
X0209308Y0097711D02*
X0227013Y0097711D01*
X0227658Y0099309D02*
X0175950Y0099309D01*
X0175542Y0097711D02*
X0174438Y0097711D01*
X0176587Y0100908D02*
X0229207Y0100908D01*
X0232013Y0102506D02*
X0177819Y0102506D01*
X0180331Y0102835D02*
X0182352Y0102835D01*
X0182810Y0102957D01*
X0183220Y0103194D01*
X0183555Y0103529D01*
X0183792Y0103940D01*
X0183915Y0104398D01*
X0183915Y0106616D01*
X0180331Y0106616D01*
X0180331Y0102835D01*
X0180331Y0104105D02*
X0179962Y0104105D01*
X0179962Y0105703D02*
X0180331Y0105703D01*
X0183915Y0105703D02*
X0233933Y0105703D01*
X0232573Y0104105D02*
X0183836Y0104105D01*
X0183915Y0107302D02*
X0235763Y0107302D01*
X0235763Y0108900D02*
X0184031Y0108900D01*
X0185160Y0110499D02*
X0236382Y0110499D01*
X0237827Y0112097D02*
X0185315Y0112097D01*
X0176446Y0120090D02*
X0146200Y0120090D01*
X0146200Y0121688D02*
X0176780Y0121688D01*
X0177234Y0123287D02*
X0146200Y0123287D01*
X0146200Y0124885D02*
X0178115Y0124885D01*
X0169611Y0118491D02*
X0146200Y0118491D01*
X0146200Y0116893D02*
X0168457Y0116893D01*
X0168285Y0115294D02*
X0146570Y0115294D01*
X0146587Y0113696D02*
X0168285Y0113696D01*
X0168285Y0112097D02*
X0146200Y0112097D01*
X0146200Y0110499D02*
X0168440Y0110499D01*
X0168285Y0108900D02*
X0146200Y0108900D01*
X0146200Y0107302D02*
X0168285Y0107302D01*
X0168285Y0105703D02*
X0146200Y0105703D01*
X0146200Y0104105D02*
X0167573Y0104105D01*
X0167013Y0102506D02*
X0146200Y0102506D01*
X0146200Y0100908D02*
X0167013Y0100908D01*
X0167650Y0099309D02*
X0146200Y0099309D01*
X0147737Y0097711D02*
X0165542Y0097711D01*
X0168058Y0097711D02*
X0169162Y0097711D01*
X0178058Y0097711D02*
X0185542Y0097711D01*
X0188058Y0097711D02*
X0206792Y0097711D01*
X0214565Y0115294D02*
X0253600Y0115294D01*
X0253600Y0116893D02*
X0215985Y0116893D01*
X0216587Y0118491D02*
X0253600Y0118491D01*
X0253600Y0120090D02*
X0216587Y0120090D01*
X0216200Y0121688D02*
X0253600Y0121688D01*
X0253600Y0123287D02*
X0216200Y0123287D01*
X0216200Y0124885D02*
X0253600Y0124885D01*
X0253600Y0126484D02*
X0216200Y0126484D01*
X0216200Y0128082D02*
X0253600Y0128082D01*
X0253600Y0129681D02*
X0216200Y0129681D01*
X0216200Y0131279D02*
X0253600Y0131279D01*
X0253600Y0132878D02*
X0216200Y0132878D01*
X0216200Y0134476D02*
X0253600Y0134476D01*
X0253600Y0136075D02*
X0216200Y0136075D01*
X0215683Y0137673D02*
X0253600Y0137673D01*
X0253600Y0139272D02*
X0214301Y0139272D01*
X0212702Y0140870D02*
X0253600Y0140870D01*
X0253600Y0142469D02*
X0211187Y0142469D01*
X0210053Y0144068D02*
X0253600Y0144068D01*
X0253600Y0145666D02*
X0126512Y0145666D01*
X0126587Y0147265D02*
X0253600Y0147265D01*
X0253600Y0148863D02*
X0126127Y0148863D01*
X0124909Y0150462D02*
X0253600Y0150462D01*
X0253600Y0152060D02*
X0182580Y0152060D01*
X0183698Y0153659D02*
X0253600Y0153659D01*
X0253600Y0155257D02*
X0184087Y0155257D01*
X0183941Y0156856D02*
X0253600Y0156856D01*
X0253600Y0158454D02*
X0183166Y0158454D01*
X0180940Y0160053D02*
X0253600Y0160053D01*
X0253600Y0161651D02*
X0117181Y0161651D01*
X0125020Y0163250D02*
X0253600Y0163250D01*
X0253600Y0164848D02*
X0126173Y0164848D01*
X0126587Y0166447D02*
X0253600Y0166447D01*
X0253600Y0168045D02*
X0149816Y0168045D01*
X0151089Y0169644D02*
X0253600Y0169644D01*
X0253600Y0171242D02*
X0151587Y0171242D01*
X0154611Y0172841D02*
X0173989Y0172841D01*
X0172596Y0174439D02*
X0156004Y0174439D01*
X0156587Y0176038D02*
X0160792Y0176038D01*
X0159807Y0177636D02*
X0156587Y0177636D01*
X0155973Y0179235D02*
X0159133Y0179235D01*
X0167808Y0176038D02*
X0172013Y0176038D01*
X0170731Y0177636D02*
X0168793Y0177636D01*
X0169087Y0179235D02*
X0169133Y0179235D01*
X0184611Y0172841D02*
X0253600Y0172841D01*
X0253600Y0174439D02*
X0186004Y0174439D01*
X0186587Y0176038D02*
X0253600Y0176038D01*
X0253600Y0177636D02*
X0189258Y0177636D01*
X0190919Y0179235D02*
X0253600Y0179235D01*
X0253600Y0180833D02*
X0191581Y0180833D01*
X0193764Y0182432D02*
X0199836Y0182432D01*
X0197799Y0184030D02*
X0195801Y0184030D01*
X0196497Y0185629D02*
X0197103Y0185629D01*
X0203764Y0182432D02*
X0214836Y0182432D01*
X0212799Y0184030D02*
X0205801Y0184030D01*
X0206497Y0185629D02*
X0212103Y0185629D01*
X0211140Y0187227D02*
X0206587Y0187227D01*
X0206143Y0188826D02*
X0209542Y0188826D01*
X0207943Y0190424D02*
X0204946Y0190424D01*
X0206345Y0192023D02*
X0201810Y0192023D01*
X0200211Y0193621D02*
X0204746Y0193621D01*
X0203148Y0195220D02*
X0198613Y0195220D01*
X0197014Y0196818D02*
X0201549Y0196818D01*
X0199951Y0198417D02*
X0195416Y0198417D01*
X0193817Y0200015D02*
X0198352Y0200015D01*
X0214431Y0214402D02*
X0253600Y0214402D01*
X0253600Y0216001D02*
X0051373Y0216001D01*
X0050626Y0217599D02*
X0253600Y0217599D01*
X0253600Y0219198D02*
X0049897Y0219198D01*
X0044123Y0219198D02*
X0044123Y0219198D01*
X0038349Y0219198D02*
X0032574Y0219198D01*
X0037146Y0217599D02*
X0037619Y0217599D01*
X0026800Y0217627D02*
X0020127Y0217627D01*
X0016800Y0214300D01*
X0016800Y0191761D01*
X0019280Y0189280D01*
X0016800Y0186800D01*
X0016800Y0163434D01*
X0019300Y0160934D01*
X0018434Y0160934D01*
X0016800Y0159300D01*
X0019550Y0158454D02*
X0010000Y0158454D01*
X0010000Y0156856D02*
X0019550Y0156856D01*
X0019550Y0155257D02*
X0010000Y0155257D01*
X0010000Y0153659D02*
X0019550Y0153659D01*
X0019550Y0152060D02*
X0010000Y0152060D01*
X0010000Y0150462D02*
X0019550Y0150462D01*
X0019550Y0148863D02*
X0010000Y0148863D01*
X0010000Y0147265D02*
X0019550Y0147265D01*
X0019550Y0145666D02*
X0010000Y0145666D01*
X0010000Y0144068D02*
X0019550Y0144068D01*
X0019550Y0142469D02*
X0010000Y0142469D01*
X0010000Y0140870D02*
X0019550Y0140870D01*
X0019550Y0139272D02*
X0010000Y0139272D01*
X0010000Y0137673D02*
X0019550Y0137673D01*
X0019550Y0136075D02*
X0017352Y0136075D01*
X0016800Y0137125D02*
X0021337Y0132587D01*
X0026800Y0132587D01*
X0044123Y0132587D01*
X0044123Y0129438D02*
X0049438Y0129438D01*
X0054300Y0134300D01*
X0054300Y0136800D01*
X0058040Y0140540D01*
X0061800Y0140540D01*
X0067953Y0140870D02*
X0092497Y0140870D01*
X0094095Y0139272D02*
X0067953Y0139272D01*
X0067953Y0137673D02*
X0095694Y0137673D01*
X0097292Y0136075D02*
X0067953Y0136075D01*
X0067953Y0134476D02*
X0098891Y0134476D01*
X0100489Y0132878D02*
X0067953Y0132878D01*
X0067953Y0131279D02*
X0090584Y0131279D01*
X0093016Y0131279D02*
X0102013Y0131279D01*
X0102496Y0129681D02*
X0095621Y0129681D01*
X0087979Y0129681D02*
X0067877Y0129681D01*
X0066860Y0128082D02*
X0086982Y0128082D01*
X0078060Y0121800D02*
X0071800Y0121800D01*
X0070540Y0120540D01*
X0061800Y0120540D01*
X0061800Y0123276D01*
X0058788Y0126288D01*
X0061800Y0129300D01*
X0061800Y0133060D01*
X0064641Y0126484D02*
X0072754Y0126484D01*
X0069229Y0124885D02*
X0067477Y0124885D01*
X0058788Y0126288D02*
X0044123Y0126288D01*
X0044123Y0123139D02*
X0050461Y0123139D01*
X0054300Y0119300D01*
X0054300Y0116800D01*
X0058040Y0113060D01*
X0061800Y0113060D01*
X0070540Y0113060D01*
X0071175Y0113675D01*
X0076129Y0112097D02*
X0102269Y0112097D01*
X0128350Y0120090D02*
X0137400Y0120090D01*
X0141163Y0142469D02*
X0123854Y0142469D01*
X0125838Y0144068D02*
X0142297Y0144068D01*
X0121773Y0152060D02*
X0176020Y0152060D01*
X0143784Y0168045D02*
X0126466Y0168045D01*
X0125727Y0169644D02*
X0142511Y0169644D01*
X0142013Y0171242D02*
X0123586Y0171242D01*
X0120992Y0172841D02*
X0140527Y0172841D01*
X0090898Y0142469D02*
X0067953Y0142469D01*
X0067815Y0144068D02*
X0089300Y0144068D01*
X0087701Y0145666D02*
X0066711Y0145666D01*
X0056889Y0145666D02*
X0051373Y0145666D01*
X0051373Y0144068D02*
X0055785Y0144068D01*
X0054312Y0142469D02*
X0051373Y0142469D01*
X0051373Y0140870D02*
X0052714Y0140870D01*
X0051373Y0147265D02*
X0086103Y0147265D01*
X0026800Y0160934D02*
X0019300Y0160934D01*
X0019859Y0161651D02*
X0010000Y0161651D01*
X0010000Y0160053D02*
X0019791Y0160053D01*
X0019550Y0163250D02*
X0010000Y0163250D01*
X0010000Y0164848D02*
X0019550Y0164848D01*
X0019550Y0166447D02*
X0010000Y0166447D01*
X0010000Y0168045D02*
X0019550Y0168045D01*
X0019550Y0169644D02*
X0010000Y0169644D01*
X0010000Y0171242D02*
X0019550Y0171242D01*
X0019550Y0172841D02*
X0010000Y0172841D01*
X0010000Y0174439D02*
X0019550Y0174439D01*
X0019550Y0176038D02*
X0010000Y0176038D01*
X0010000Y0177636D02*
X0019550Y0177636D01*
X0019550Y0179235D02*
X0010000Y0179235D01*
X0010000Y0180833D02*
X0019550Y0180833D01*
X0019550Y0182432D02*
X0010000Y0182432D01*
X0010000Y0184030D02*
X0019550Y0184030D01*
X0019550Y0185629D02*
X0010000Y0185629D01*
X0010000Y0187227D02*
X0019550Y0187227D01*
X0019968Y0188826D02*
X0010000Y0188826D01*
X0010000Y0190424D02*
X0019682Y0190424D01*
X0019280Y0189280D02*
X0026800Y0189280D01*
X0019550Y0192023D02*
X0010000Y0192023D01*
X0010000Y0193621D02*
X0019550Y0193621D01*
X0019550Y0195220D02*
X0010000Y0195220D01*
X0010000Y0196818D02*
X0019550Y0196818D01*
X0019550Y0198417D02*
X0010000Y0198417D01*
X0010000Y0200015D02*
X0019550Y0200015D01*
X0019550Y0201614D02*
X0010000Y0201614D01*
X0010000Y0203212D02*
X0019550Y0203212D01*
X0019550Y0204811D02*
X0010000Y0204811D01*
X0010000Y0206409D02*
X0019550Y0206409D01*
X0019550Y0208008D02*
X0010000Y0208008D01*
X0010000Y0209606D02*
X0019550Y0209606D01*
X0019550Y0211205D02*
X0010000Y0211205D01*
X0010000Y0212803D02*
X0019550Y0212803D01*
X0019550Y0214402D02*
X0010000Y0214402D01*
X0010000Y0216001D02*
X0019550Y0216001D01*
X0020296Y0217599D02*
X0010000Y0217599D01*
X0010000Y0219198D02*
X0021026Y0219198D01*
X0026800Y0219198D02*
X0026800Y0219198D01*
X0010000Y0220796D02*
X0253600Y0220796D01*
X0253600Y0222395D02*
X0010000Y0222395D01*
X0010000Y0223993D02*
X0253600Y0223993D01*
X0253600Y0225592D02*
X0010000Y0225592D01*
X0010000Y0227190D02*
X0253600Y0227190D01*
X0253600Y0228789D02*
X0010000Y0228789D01*
X0010000Y0230387D02*
X0253600Y0230387D01*
X0253600Y0231986D02*
X0010000Y0231986D01*
X0010000Y0233584D02*
X0253600Y0233584D01*
X0253600Y0235183D02*
X0010000Y0235183D01*
X0010100Y0236781D02*
X0253500Y0236781D01*
X0253071Y0238380D02*
X0010529Y0238380D01*
X0011361Y0239978D02*
X0252239Y0239978D01*
X0250852Y0241577D02*
X0012748Y0241577D01*
X0015608Y0243175D02*
X0247992Y0243175D01*
X0253600Y0212803D02*
X0216029Y0212803D01*
X0217628Y0211205D02*
X0253600Y0211205D01*
X0253600Y0209606D02*
X0219226Y0209606D01*
X0220825Y0208008D02*
X0253600Y0208008D01*
X0253600Y0206409D02*
X0222423Y0206409D01*
X0224022Y0204811D02*
X0253600Y0204811D01*
X0253600Y0203212D02*
X0225620Y0203212D01*
X0227219Y0201614D02*
X0253600Y0201614D01*
X0253600Y0200015D02*
X0228817Y0200015D01*
X0230416Y0198417D02*
X0253600Y0198417D01*
X0253600Y0196818D02*
X0232014Y0196818D01*
X0235151Y0195220D02*
X0253600Y0195220D01*
X0253600Y0193621D02*
X0236227Y0193621D01*
X0236587Y0192023D02*
X0253600Y0192023D01*
X0253600Y0190424D02*
X0236412Y0190424D01*
X0235596Y0188826D02*
X0253600Y0188826D01*
X0253600Y0187227D02*
X0233271Y0187227D01*
X0231497Y0185629D02*
X0253600Y0185629D01*
X0253600Y0184030D02*
X0230801Y0184030D01*
X0228764Y0182432D02*
X0253600Y0182432D01*
X0224836Y0182432D02*
X0218764Y0182432D01*
X0220801Y0184030D02*
X0222799Y0184030D01*
X0222103Y0185629D02*
X0221497Y0185629D01*
X0228100Y0086521D02*
X0102965Y0086521D01*
X0101693Y0084923D02*
X0228100Y0084923D01*
X0228100Y0083324D02*
X0099444Y0083324D01*
X0098496Y0081726D02*
X0228100Y0081726D01*
X0223357Y0080127D02*
X0089414Y0080127D01*
X0088424Y0078529D02*
X0222334Y0078529D01*
X0222013Y0076930D02*
X0070267Y0076930D01*
X0070930Y0075332D02*
X0222226Y0075332D01*
X0223097Y0073733D02*
X0070962Y0073733D01*
X0070460Y0072134D02*
X0221902Y0072134D01*
X0220303Y0070536D02*
X0069181Y0070536D01*
X0069895Y0068937D02*
X0218705Y0068937D01*
X0217106Y0067339D02*
X0071494Y0067339D01*
X0073092Y0065740D02*
X0083970Y0065740D01*
X0089630Y0065740D02*
X0168970Y0065740D01*
X0167588Y0064142D02*
X0091012Y0064142D01*
X0091587Y0062543D02*
X0167013Y0062543D01*
X0165712Y0060945D02*
X0091587Y0060945D01*
X0057794Y0030573D02*
X0049973Y0030573D01*
X0050921Y0032172D02*
X0056196Y0032172D01*
X0054597Y0033770D02*
X0051373Y0033770D01*
X0048502Y0028975D02*
X0059393Y0028975D01*
X0044123Y0028975D02*
X0044123Y0028975D01*
X0044123Y0030573D02*
X0044123Y0030573D01*
X0039744Y0028975D02*
X0031179Y0028975D01*
X0032650Y0030573D02*
X0038273Y0030573D01*
X0037325Y0032172D02*
X0033598Y0032172D01*
X0034050Y0033770D02*
X0036873Y0033770D01*
X0036873Y0035369D02*
X0034050Y0035369D01*
X0034050Y0036967D02*
X0036873Y0036967D01*
X0036873Y0038566D02*
X0034050Y0038566D01*
X0034050Y0040164D02*
X0036873Y0040164D01*
X0036873Y0041763D02*
X0034050Y0041763D01*
X0034050Y0043361D02*
X0036873Y0043361D01*
X0036873Y0044960D02*
X0034050Y0044960D01*
X0019550Y0044960D02*
X0010000Y0044960D01*
X0010000Y0046558D02*
X0019550Y0046558D01*
X0019550Y0048157D02*
X0010000Y0048157D01*
X0010000Y0049755D02*
X0019550Y0049755D01*
X0019550Y0051354D02*
X0010000Y0051354D01*
X0010000Y0052952D02*
X0019550Y0052952D01*
X0019550Y0054551D02*
X0010000Y0054551D01*
X0010000Y0056149D02*
X0019550Y0056149D01*
X0019550Y0057748D02*
X0010000Y0057748D01*
X0010000Y0059346D02*
X0019825Y0059346D01*
X0020146Y0060146D02*
X0026800Y0060146D01*
X0020146Y0060146D02*
X0016800Y0063493D01*
X0016800Y0084300D01*
X0020550Y0088050D01*
X0016800Y0091800D01*
X0016800Y0114300D01*
X0019339Y0116839D01*
X0026800Y0116839D01*
X0026800Y0123139D02*
X0017514Y0123139D01*
X0014925Y0119925D01*
X0012566Y0115294D02*
X0010000Y0115294D01*
X0010000Y0113696D02*
X0019550Y0113696D01*
X0019550Y0115294D02*
X0017284Y0115294D01*
X0019220Y0116893D02*
X0020271Y0116893D01*
X0019550Y0112097D02*
X0010000Y0112097D01*
X0010000Y0110499D02*
X0019550Y0110499D01*
X0019550Y0108900D02*
X0010000Y0108900D01*
X0010000Y0107302D02*
X0019550Y0107302D01*
X0019550Y0105703D02*
X0010000Y0105703D01*
X0010000Y0104105D02*
X0019550Y0104105D01*
X0019550Y0102506D02*
X0010000Y0102506D01*
X0010000Y0100908D02*
X0019550Y0100908D01*
X0019550Y0099309D02*
X0010000Y0099309D01*
X0010000Y0097711D02*
X0019550Y0097711D01*
X0019550Y0096112D02*
X0010000Y0096112D01*
X0010000Y0094514D02*
X0019550Y0094514D01*
X0019550Y0092915D02*
X0010000Y0092915D01*
X0010000Y0091317D02*
X0019550Y0091317D01*
X0019649Y0089718D02*
X0010000Y0089718D01*
X0010000Y0088120D02*
X0020001Y0088120D01*
X0020550Y0088050D02*
X0020993Y0088493D01*
X0026800Y0088493D01*
X0019550Y0086521D02*
X0010000Y0086521D01*
X0010000Y0084923D02*
X0019550Y0084923D01*
X0019550Y0083324D02*
X0010000Y0083324D01*
X0010000Y0081726D02*
X0019550Y0081726D01*
X0019550Y0080127D02*
X0010000Y0080127D01*
X0010000Y0078529D02*
X0019550Y0078529D01*
X0019550Y0076930D02*
X0010000Y0076930D01*
X0010000Y0075332D02*
X0019550Y0075332D01*
X0019550Y0073733D02*
X0010000Y0073733D01*
X0010000Y0072134D02*
X0019550Y0072134D01*
X0019550Y0070536D02*
X0010000Y0070536D01*
X0010000Y0068937D02*
X0019550Y0068937D01*
X0019550Y0067339D02*
X0010000Y0067339D01*
X0010000Y0065740D02*
X0019550Y0065740D01*
X0019550Y0064142D02*
X0010000Y0064142D01*
X0010000Y0062543D02*
X0019550Y0062543D01*
X0019825Y0060945D02*
X0010000Y0060945D01*
X0016800Y0056800D02*
X0016800Y0034300D01*
X0019300Y0031800D01*
X0026800Y0031800D01*
X0026800Y0030573D02*
X0026800Y0030573D01*
X0026800Y0028975D02*
X0026800Y0028975D01*
X0022421Y0028975D02*
X0010000Y0028975D01*
X0010000Y0030573D02*
X0020950Y0030573D01*
X0020002Y0032172D02*
X0010000Y0032172D01*
X0010000Y0033770D02*
X0019550Y0033770D01*
X0019550Y0035369D02*
X0010000Y0035369D01*
X0010000Y0036967D02*
X0019550Y0036967D01*
X0019550Y0038566D02*
X0010000Y0038566D01*
X0010000Y0040164D02*
X0019550Y0040164D01*
X0019550Y0041763D02*
X0010000Y0041763D01*
X0010000Y0043361D02*
X0019550Y0043361D01*
X0016800Y0056800D02*
X0020146Y0060146D01*
X0010000Y0027376D02*
X0033173Y0027376D01*
X0030963Y0025778D02*
X0010000Y0025778D01*
X0010000Y0024179D02*
X0030004Y0024179D01*
X0029550Y0022581D02*
X0010000Y0022581D01*
X0010000Y0020982D02*
X0029550Y0020982D01*
X0030102Y0019384D02*
X0010000Y0019384D01*
X0010000Y0017785D02*
X0031200Y0017785D01*
X0037827Y0027376D02*
X0154970Y0027376D01*
X0176587Y0062543D02*
X0177013Y0062543D01*
X0177588Y0064142D02*
X0176012Y0064142D01*
X0174630Y0065740D02*
X0178970Y0065740D01*
X0184630Y0065740D02*
X0203970Y0065740D01*
X0202588Y0064142D02*
X0186012Y0064142D01*
X0186587Y0062543D02*
X0202013Y0062543D01*
X0200712Y0060945D02*
X0189303Y0060945D01*
X0190927Y0059346D02*
X0199114Y0059346D01*
X0197515Y0057748D02*
X0191587Y0057748D01*
X0193810Y0056149D02*
X0195917Y0056149D01*
X0209630Y0065740D02*
X0215508Y0065740D01*
X0213909Y0064142D02*
X0211012Y0064142D01*
X0211587Y0062543D02*
X0212311Y0062543D01*
X0251992Y0008194D02*
X0011608Y0008194D01*
X0013215Y0006596D02*
X0250385Y0006596D01*
X0026800Y0126288D02*
X0013788Y0126288D01*
X0013675Y0126175D01*
X0016662Y0129438D02*
X0013675Y0132425D01*
X0016662Y0129438D02*
X0026800Y0129438D01*
X0019550Y0134476D02*
X0018433Y0134476D01*
X0010630Y0116893D02*
X0010000Y0116893D01*
D16*
X0014925Y0119925D03*
X0013675Y0126175D03*
X0013675Y0132425D03*
X0071175Y0113675D03*
X0091800Y0126175D03*
X0034925Y0031800D03*
D17*
X0034925Y0031800D01*
X0026800Y0031800D01*
X0034925Y0031800D02*
X0044123Y0031800D01*
X0044123Y0038099D02*
X0055501Y0038099D01*
X0061800Y0031800D01*
X0156800Y0031800D01*
X0174300Y0054300D02*
X0071800Y0054300D01*
X0053355Y0072745D01*
X0044123Y0072745D01*
X0044123Y0075894D02*
X0053956Y0075894D01*
X0073050Y0056800D01*
X0166800Y0056800D01*
X0171800Y0061800D01*
X0174300Y0054300D02*
X0181800Y0061800D01*
X0186800Y0056800D02*
X0181800Y0051800D01*
X0070550Y0051800D01*
X0052755Y0069595D01*
X0044123Y0069595D01*
X0044123Y0066446D02*
X0052779Y0066446D01*
X0069925Y0049300D01*
X0189300Y0049300D01*
X0191800Y0051800D01*
X0191800Y0046800D02*
X0206800Y0061800D01*
X0191800Y0046800D02*
X0069300Y0046800D01*
X0052804Y0063296D01*
X0044123Y0063296D01*
X0044123Y0060146D02*
X0026800Y0060146D01*
X0026800Y0056997D02*
X0032853Y0056997D01*
X0033675Y0056800D01*
X0031628Y0053847D02*
X0032425Y0053050D01*
X0036800Y0053050D01*
X0033675Y0049925D02*
X0032425Y0049925D01*
X0031652Y0050698D01*
X0026800Y0050698D01*
X0026800Y0053847D02*
X0031628Y0053847D01*
X0033296Y0063296D02*
X0026800Y0063296D01*
X0026800Y0069595D02*
X0031470Y0069595D01*
X0032425Y0070550D01*
X0034300Y0070550D01*
X0031495Y0072745D02*
X0033050Y0074300D01*
X0036800Y0074300D01*
X0034925Y0078050D02*
X0033675Y0078050D01*
X0031519Y0075894D01*
X0026800Y0075894D01*
X0026800Y0072745D02*
X0031495Y0072745D01*
X0030919Y0079044D02*
X0026800Y0079044D01*
X0030919Y0079044D02*
X0034300Y0082425D01*
X0036800Y0082425D01*
X0033675Y0085550D02*
X0033468Y0085343D01*
X0026800Y0085343D01*
X0026800Y0088493D02*
X0044123Y0088493D01*
X0044123Y0091643D02*
X0050082Y0091643D01*
X0059925Y0081800D01*
X0084925Y0081800D01*
X0094925Y0084925D02*
X0059925Y0084925D01*
X0050058Y0094792D01*
X0044123Y0094792D01*
X0044123Y0097942D02*
X0050658Y0097942D01*
X0059925Y0088675D01*
X0098675Y0088675D01*
X0106800Y0096800D02*
X0061175Y0096800D01*
X0050584Y0107391D01*
X0044123Y0107391D01*
X0044123Y0110540D02*
X0050560Y0110540D01*
X0059300Y0101800D01*
X0096800Y0101800D01*
X0101800Y0106800D02*
X0103675Y0108675D01*
X0106800Y0108675D01*
X0101800Y0106800D02*
X0058050Y0106800D01*
X0051160Y0113690D01*
X0044123Y0113690D01*
X0044123Y0116839D02*
X0026800Y0116839D01*
X0026800Y0113690D02*
X0034285Y0113690D01*
X0034300Y0113675D01*
X0033060Y0110540D02*
X0034300Y0109300D01*
X0036800Y0109300D01*
X0033060Y0110540D02*
X0026800Y0110540D01*
X0026800Y0107391D02*
X0031209Y0107391D01*
X0032425Y0106175D01*
X0033675Y0106175D01*
X0031234Y0104241D02*
X0032425Y0103050D01*
X0036800Y0103050D01*
X0033675Y0099925D02*
X0031692Y0097942D01*
X0026800Y0097942D01*
X0026800Y0094792D02*
X0032292Y0094792D01*
X0034300Y0096800D01*
X0036800Y0096800D01*
X0034925Y0093050D02*
X0033675Y0093050D01*
X0032268Y0091643D01*
X0026800Y0091643D01*
X0026800Y0104241D02*
X0031234Y0104241D01*
X0044123Y0104241D02*
X0049359Y0104241D01*
X0061800Y0091800D01*
X0112425Y0091800D01*
X0086800Y0061800D02*
X0071800Y0061800D01*
X0051406Y0082194D01*
X0044123Y0082194D01*
X0044123Y0085343D02*
X0052632Y0085343D01*
X0059300Y0078675D01*
X0061800Y0078675D01*
X0066175Y0074300D01*
X0055978Y0056997D02*
X0068675Y0044300D01*
X0199300Y0044300D01*
X0226800Y0071800D01*
X0226800Y0076800D01*
X0231800Y0071800D02*
X0231800Y0096800D01*
X0236800Y0101800D02*
X0236800Y0071800D01*
X0203675Y0038675D01*
X0066800Y0038675D01*
X0054777Y0050698D01*
X0044123Y0050698D01*
X0044123Y0053847D02*
X0054753Y0053847D01*
X0066800Y0041800D01*
X0201800Y0041800D01*
X0231800Y0071800D01*
X0240550Y0070550D02*
X0240550Y0108050D01*
X0206800Y0111800D02*
X0206800Y0124925D01*
X0206800Y0131800D01*
X0201800Y0136175D01*
X0191800Y0136175D01*
X0171800Y0136175D01*
X0161800Y0136175D01*
X0151800Y0136175D01*
X0146800Y0131175D01*
X0146800Y0121800D01*
X0146800Y0101800D01*
X0151800Y0098050D01*
X0161800Y0098050D01*
X0181800Y0098050D01*
X0181800Y0101800D01*
X0180146Y0103454D01*
X0180146Y0106800D01*
X0173454Y0106800D02*
X0173454Y0103454D01*
X0171800Y0101800D01*
X0173454Y0106800D02*
X0173454Y0113675D01*
X0180146Y0113675D02*
X0180146Y0120146D01*
X0181800Y0121800D01*
X0181800Y0098050D02*
X0191800Y0098050D01*
X0201800Y0098050D01*
X0240550Y0070550D02*
X0206175Y0036175D01*
X0065550Y0036175D01*
X0054177Y0047548D01*
X0044123Y0047548D01*
X0044123Y0056997D02*
X0055978Y0056997D01*
X0036175Y0066175D02*
X0033296Y0063296D01*
X0085540Y0121800D02*
X0089925Y0121800D01*
X0091800Y0123675D01*
X0091800Y0126175D01*
X0088675Y0141800D02*
X0076800Y0141800D01*
X0088675Y0141800D02*
X0108675Y0121800D01*
X0111800Y0121800D01*
X0106800Y0131800D02*
X0087115Y0151485D01*
X0044123Y0151485D01*
X0044123Y0154635D02*
X0093965Y0154635D01*
X0111800Y0136800D01*
X0116800Y0141800D02*
X0100816Y0157784D01*
X0044123Y0157784D01*
X0044123Y0160934D02*
X0038434Y0160934D01*
X0037425Y0159925D01*
X0032425Y0159925D01*
X0031416Y0160934D01*
X0026800Y0160934D01*
X0026800Y0164083D02*
X0031392Y0164083D01*
X0032425Y0163050D01*
X0034300Y0163050D01*
X0032425Y0166175D02*
X0037425Y0166175D01*
X0034300Y0169300D02*
X0032883Y0170383D01*
X0026800Y0170383D01*
X0026800Y0167233D02*
X0031367Y0167233D01*
X0032425Y0166175D01*
X0034925Y0173050D02*
X0031293Y0176682D01*
X0026800Y0176682D01*
X0026800Y0179831D02*
X0031269Y0179831D01*
X0033675Y0177425D01*
X0034925Y0177425D01*
X0033537Y0181175D02*
X0031731Y0182981D01*
X0026800Y0182981D01*
X0026800Y0186131D02*
X0031131Y0186131D01*
X0032336Y0184925D01*
X0034300Y0184925D01*
X0032425Y0188050D02*
X0031175Y0189300D01*
X0026820Y0189300D01*
X0026800Y0189280D01*
X0026800Y0192430D02*
X0031170Y0192430D01*
X0032425Y0191175D01*
X0036800Y0191175D01*
X0039905Y0189280D02*
X0038675Y0188050D01*
X0032425Y0188050D01*
X0032425Y0194300D02*
X0031145Y0195580D01*
X0026800Y0195580D01*
X0026800Y0198729D02*
X0031121Y0198729D01*
X0032425Y0197425D01*
X0036800Y0197425D01*
X0033675Y0194300D02*
X0032425Y0194300D01*
X0033050Y0200550D02*
X0031721Y0201879D01*
X0026800Y0201879D01*
X0026800Y0205028D02*
X0031697Y0205028D01*
X0033050Y0203675D01*
X0036800Y0203675D01*
X0033675Y0200550D02*
X0033050Y0200550D01*
X0032425Y0207425D02*
X0034300Y0207425D01*
X0032425Y0207425D02*
X0031672Y0208178D01*
X0026800Y0208178D01*
X0026800Y0211328D02*
X0032272Y0211328D01*
X0033050Y0210550D01*
X0037425Y0210550D01*
X0034300Y0213675D02*
X0033498Y0214477D01*
X0026800Y0214477D01*
X0026800Y0217627D02*
X0026800Y0221175D01*
X0029925Y0224300D01*
X0039925Y0224300D01*
X0044123Y0220102D01*
X0044123Y0217627D01*
X0044123Y0211328D02*
X0212272Y0211328D01*
X0231800Y0191800D01*
X0226800Y0186800D02*
X0205422Y0208178D01*
X0044123Y0208178D01*
X0044123Y0205028D02*
X0198572Y0205028D01*
X0216800Y0186800D01*
X0201800Y0186800D02*
X0191800Y0196800D01*
X0191721Y0196879D01*
X0186721Y0201879D01*
X0044123Y0201879D01*
X0044123Y0198729D02*
X0179871Y0198729D01*
X0191800Y0186800D01*
X0186800Y0181800D02*
X0173020Y0195580D01*
X0044123Y0195580D01*
X0044123Y0192430D02*
X0166170Y0192430D01*
X0181800Y0176800D01*
X0176800Y0176800D02*
X0167469Y0186131D01*
X0044123Y0186131D01*
X0044123Y0189280D02*
X0039905Y0189280D01*
X0044123Y0182981D02*
X0160619Y0182981D01*
X0164300Y0179300D01*
X0163988Y0169613D02*
X0157425Y0163050D01*
X0143675Y0163050D01*
X0146800Y0171800D02*
X0141918Y0176682D01*
X0044123Y0176682D01*
X0044123Y0179831D02*
X0148769Y0179831D01*
X0151800Y0176800D01*
X0163988Y0169613D02*
X0172737Y0169613D01*
X0179300Y0163050D01*
X0184925Y0163050D01*
X0189300Y0167425D01*
X0204925Y0167425D01*
X0179300Y0155550D02*
X0178050Y0156800D01*
X0116800Y0156800D01*
X0111800Y0161800D01*
X0116800Y0166800D02*
X0113217Y0170383D01*
X0044123Y0170383D01*
X0044123Y0173532D02*
X0115068Y0173532D01*
X0121800Y0166800D01*
X0104517Y0164083D02*
X0121800Y0146800D01*
X0104517Y0164083D02*
X0044123Y0164083D01*
X0036800Y0156800D02*
X0032425Y0156800D01*
X0031441Y0157784D01*
X0026800Y0157784D01*
X0016800Y0159300D02*
X0016800Y0146800D01*
X0016800Y0137125D01*
X0034925Y0173050D02*
X0036800Y0173050D01*
X0037425Y0181175D02*
X0033537Y0181175D01*
D18*
X0037425Y0181175D03*
X0034925Y0177425D03*
X0036800Y0173050D03*
X0034300Y0169300D03*
X0037425Y0166175D03*
X0034300Y0163050D03*
X0036800Y0156800D03*
X0016800Y0146800D03*
X0034300Y0113675D03*
X0036800Y0109300D03*
X0033675Y0106175D03*
X0036800Y0103050D03*
X0033675Y0099925D03*
X0036800Y0096800D03*
X0034925Y0093050D03*
X0033675Y0085550D03*
X0036800Y0082425D03*
X0034925Y0078050D03*
X0036800Y0074300D03*
X0034300Y0070550D03*
X0036175Y0066175D03*
X0033675Y0056800D03*
X0036800Y0053050D03*
X0033675Y0049925D03*
X0016800Y0051800D03*
X0016800Y0016800D03*
X0056800Y0011800D03*
X0086800Y0061800D03*
X0066175Y0074300D03*
X0084925Y0081800D03*
X0094925Y0084925D03*
X0098675Y0088675D03*
X0106800Y0096800D03*
X0112425Y0091800D03*
X0096800Y0101800D03*
X0106800Y0108675D03*
X0101800Y0121800D03*
X0111800Y0121800D03*
X0106800Y0131800D03*
X0111800Y0136800D03*
X0116800Y0141800D03*
X0121800Y0146800D03*
X0128675Y0150550D03*
X0118675Y0160550D03*
X0116800Y0166800D03*
X0121800Y0166800D03*
X0111800Y0161800D03*
X0086800Y0141800D03*
X0076800Y0141800D03*
X0034300Y0184925D03*
X0036800Y0191175D03*
X0033675Y0194300D03*
X0036800Y0197425D03*
X0033675Y0200550D03*
X0036800Y0203675D03*
X0034300Y0207425D03*
X0037425Y0210550D03*
X0034300Y0213675D03*
X0016800Y0226800D03*
X0016800Y0191800D03*
X0056800Y0231800D03*
X0086800Y0231800D03*
X0126800Y0231800D03*
X0166800Y0231800D03*
X0211800Y0231800D03*
X0246800Y0231800D03*
X0231800Y0191800D03*
X0226800Y0186800D03*
X0216800Y0186800D03*
X0201800Y0186800D03*
X0191800Y0186800D03*
X0186800Y0181800D03*
X0181800Y0176800D03*
X0176800Y0176800D03*
X0164300Y0179300D03*
X0163988Y0169613D03*
X0151800Y0176800D03*
X0146800Y0171800D03*
X0136800Y0171800D03*
X0143675Y0163050D03*
X0145550Y0140550D03*
X0151800Y0136175D03*
X0161800Y0136175D03*
X0166800Y0140550D03*
X0171800Y0136175D03*
X0179925Y0140550D03*
X0186800Y0140550D03*
X0191800Y0136175D03*
X0201800Y0136175D03*
X0206800Y0140550D03*
X0206800Y0131800D03*
X0206800Y0124925D03*
X0211800Y0119300D03*
X0206800Y0111800D03*
X0201800Y0098050D03*
X0208050Y0093050D03*
X0191800Y0098050D03*
X0186800Y0093050D03*
X0181800Y0098050D03*
X0176800Y0093050D03*
X0171800Y0101800D03*
X0166800Y0093050D03*
X0161800Y0098050D03*
X0151800Y0098050D03*
X0146175Y0093050D03*
X0141800Y0114300D03*
X0146800Y0121800D03*
X0126800Y0115550D03*
X0179300Y0155550D03*
X0179300Y0163050D03*
X0189300Y0167425D03*
X0204925Y0167425D03*
X0246800Y0186800D03*
X0246800Y0146800D03*
X0241800Y0124925D03*
X0240550Y0108050D03*
X0236800Y0101800D03*
X0231800Y0096800D03*
X0226800Y0076800D03*
X0206800Y0061800D03*
X0191800Y0051800D03*
X0186800Y0056800D03*
X0181800Y0061800D03*
X0171800Y0061800D03*
X0156800Y0031800D03*
X0161800Y0011800D03*
X0206800Y0011800D03*
X0246800Y0011800D03*
X0246800Y0061800D03*
X0181800Y0121800D03*
X0111800Y0011800D03*
X0016800Y0086800D03*
X0016800Y0111800D03*
D19*
X0126800Y0115550D02*
X0140550Y0115550D01*
X0141800Y0116800D01*
X0141800Y0136800D01*
X0145550Y0140550D01*
X0166800Y0140550D01*
X0179925Y0140550D01*
X0186800Y0140550D01*
X0206800Y0140550D01*
X0211800Y0135550D01*
X0211800Y0119300D01*
X0208050Y0093050D02*
X0186800Y0093050D01*
X0176800Y0093050D01*
X0166800Y0093050D01*
X0146175Y0093050D01*
X0141800Y0097425D01*
X0141800Y0114300D01*
X0141800Y0116800D01*
M02*
