G75*
%MOIN*%
%OFA0B0*%
%FSLAX25Y25*%
%IPPOS*%
%LPD*%
%AMOC8*
5,1,8,0,0,1.08239X$1,22.5*
%
%ADD10C,0.05500*%
%ADD11R,0.05906X0.05118*%
%ADD12R,0.05118X0.05906*%
%ADD13R,0.03937X0.04331*%
%ADD14C,0.00945*%
%ADD15C,0.03962*%
%ADD16C,0.01600*%
%ADD17C,0.01000*%
%ADD18C,0.03175*%
%ADD19C,0.02400*%
D10*
X0035500Y0021900D03*
D11*
X0061800Y0113060D03*
X0061800Y0120540D03*
X0061800Y0133060D03*
X0061800Y0140540D03*
D12*
X0078060Y0131800D03*
X0085540Y0131800D03*
D13*
X0084300Y0120146D03*
X0078050Y0120146D03*
X0078050Y0113454D03*
X0084300Y0113454D03*
X0148675Y0155954D03*
X0148675Y0162646D03*
X0163988Y0164521D03*
X0163988Y0157829D03*
X0174300Y0157829D03*
X0174300Y0164521D03*
X0189300Y0162021D03*
X0189300Y0155329D03*
X0204925Y0155954D03*
X0204925Y0162646D03*
X0170146Y0031800D03*
X0163454Y0031800D03*
D14*
X0162843Y0083168D02*
X0162607Y0083168D01*
X0162607Y0087736D01*
X0162843Y0087736D01*
X0162843Y0083168D01*
X0162843Y0084112D02*
X0162607Y0084112D01*
X0162607Y0085056D02*
X0162843Y0085056D01*
X0162843Y0086000D02*
X0162607Y0086000D01*
X0162607Y0086944D02*
X0162843Y0086944D01*
X0165166Y0083168D02*
X0165402Y0083168D01*
X0165166Y0083168D02*
X0165166Y0087736D01*
X0165402Y0087736D01*
X0165402Y0083168D01*
X0165402Y0084112D02*
X0165166Y0084112D01*
X0165166Y0085056D02*
X0165402Y0085056D01*
X0165402Y0086000D02*
X0165166Y0086000D01*
X0165166Y0086944D02*
X0165402Y0086944D01*
X0167725Y0083168D02*
X0167961Y0083168D01*
X0167725Y0083168D02*
X0167725Y0087736D01*
X0167961Y0087736D01*
X0167961Y0083168D01*
X0167961Y0084112D02*
X0167725Y0084112D01*
X0167725Y0085056D02*
X0167961Y0085056D01*
X0167961Y0086000D02*
X0167725Y0086000D01*
X0167725Y0086944D02*
X0167961Y0086944D01*
X0170284Y0083168D02*
X0170520Y0083168D01*
X0170284Y0083168D02*
X0170284Y0087736D01*
X0170520Y0087736D01*
X0170520Y0083168D01*
X0170520Y0084112D02*
X0170284Y0084112D01*
X0170284Y0085056D02*
X0170520Y0085056D01*
X0170520Y0086000D02*
X0170284Y0086000D01*
X0170284Y0086944D02*
X0170520Y0086944D01*
X0172843Y0083168D02*
X0173079Y0083168D01*
X0172843Y0083168D02*
X0172843Y0087736D01*
X0173079Y0087736D01*
X0173079Y0083168D01*
X0173079Y0084112D02*
X0172843Y0084112D01*
X0172843Y0085056D02*
X0173079Y0085056D01*
X0173079Y0086000D02*
X0172843Y0086000D01*
X0172843Y0086944D02*
X0173079Y0086944D01*
X0175402Y0083168D02*
X0175638Y0083168D01*
X0175402Y0083168D02*
X0175402Y0087736D01*
X0175638Y0087736D01*
X0175638Y0083168D01*
X0175638Y0084112D02*
X0175402Y0084112D01*
X0175402Y0085056D02*
X0175638Y0085056D01*
X0175638Y0086000D02*
X0175402Y0086000D01*
X0175402Y0086944D02*
X0175638Y0086944D01*
X0177962Y0083168D02*
X0178198Y0083168D01*
X0177962Y0083168D02*
X0177962Y0087736D01*
X0178198Y0087736D01*
X0178198Y0083168D01*
X0178198Y0084112D02*
X0177962Y0084112D01*
X0177962Y0085056D02*
X0178198Y0085056D01*
X0178198Y0086000D02*
X0177962Y0086000D01*
X0177962Y0086944D02*
X0178198Y0086944D01*
X0180521Y0083168D02*
X0180757Y0083168D01*
X0180521Y0083168D02*
X0180521Y0087736D01*
X0180757Y0087736D01*
X0180757Y0083168D01*
X0180757Y0084112D02*
X0180521Y0084112D01*
X0180521Y0085056D02*
X0180757Y0085056D01*
X0180757Y0086000D02*
X0180521Y0086000D01*
X0180521Y0086944D02*
X0180757Y0086944D01*
X0183080Y0083168D02*
X0183316Y0083168D01*
X0183080Y0083168D02*
X0183080Y0087736D01*
X0183316Y0087736D01*
X0183316Y0083168D01*
X0183316Y0084112D02*
X0183080Y0084112D01*
X0183080Y0085056D02*
X0183316Y0085056D01*
X0183316Y0086000D02*
X0183080Y0086000D01*
X0183080Y0086944D02*
X0183316Y0086944D01*
X0185639Y0083168D02*
X0185875Y0083168D01*
X0185639Y0083168D02*
X0185639Y0087736D01*
X0185875Y0087736D01*
X0185875Y0083168D01*
X0185875Y0084112D02*
X0185639Y0084112D01*
X0185639Y0085056D02*
X0185875Y0085056D01*
X0185875Y0086000D02*
X0185639Y0086000D01*
X0185639Y0086944D02*
X0185875Y0086944D01*
X0188198Y0083168D02*
X0188434Y0083168D01*
X0188198Y0083168D02*
X0188198Y0087736D01*
X0188434Y0087736D01*
X0188434Y0083168D01*
X0188434Y0084112D02*
X0188198Y0084112D01*
X0188198Y0085056D02*
X0188434Y0085056D01*
X0188434Y0086000D02*
X0188198Y0086000D01*
X0188198Y0086944D02*
X0188434Y0086944D01*
X0190757Y0083168D02*
X0190993Y0083168D01*
X0190757Y0083168D02*
X0190757Y0087736D01*
X0190993Y0087736D01*
X0190993Y0083168D01*
X0190993Y0084112D02*
X0190757Y0084112D01*
X0190757Y0085056D02*
X0190993Y0085056D01*
X0190993Y0086000D02*
X0190757Y0086000D01*
X0190757Y0086944D02*
X0190993Y0086944D01*
X0193316Y0083168D02*
X0193552Y0083168D01*
X0193316Y0083168D02*
X0193316Y0087736D01*
X0193552Y0087736D01*
X0193552Y0083168D01*
X0193552Y0084112D02*
X0193316Y0084112D01*
X0193316Y0085056D02*
X0193552Y0085056D01*
X0193552Y0086000D02*
X0193316Y0086000D01*
X0193316Y0086944D02*
X0193552Y0086944D01*
X0195875Y0083168D02*
X0196111Y0083168D01*
X0195875Y0083168D02*
X0195875Y0087736D01*
X0196111Y0087736D01*
X0196111Y0083168D01*
X0196111Y0084112D02*
X0195875Y0084112D01*
X0195875Y0085056D02*
X0196111Y0085056D01*
X0196111Y0086000D02*
X0195875Y0086000D01*
X0195875Y0086944D02*
X0196111Y0086944D01*
X0198434Y0083168D02*
X0198670Y0083168D01*
X0198434Y0083168D02*
X0198434Y0087736D01*
X0198670Y0087736D01*
X0198670Y0083168D01*
X0198670Y0084112D02*
X0198434Y0084112D01*
X0198434Y0085056D02*
X0198670Y0085056D01*
X0198670Y0086000D02*
X0198434Y0086000D01*
X0198434Y0086944D02*
X0198670Y0086944D01*
X0200993Y0083168D02*
X0201229Y0083168D01*
X0200993Y0083168D02*
X0200993Y0087736D01*
X0201229Y0087736D01*
X0201229Y0083168D01*
X0201229Y0084112D02*
X0200993Y0084112D01*
X0200993Y0085056D02*
X0201229Y0085056D01*
X0201229Y0086000D02*
X0200993Y0086000D01*
X0200993Y0086944D02*
X0201229Y0086944D01*
X0203552Y0083168D02*
X0203788Y0083168D01*
X0203552Y0083168D02*
X0203552Y0087736D01*
X0203788Y0087736D01*
X0203788Y0083168D01*
X0203788Y0084112D02*
X0203552Y0084112D01*
X0203552Y0085056D02*
X0203788Y0085056D01*
X0203788Y0086000D02*
X0203552Y0086000D01*
X0203552Y0086944D02*
X0203788Y0086944D01*
X0206111Y0083168D02*
X0206347Y0083168D01*
X0206111Y0083168D02*
X0206111Y0087736D01*
X0206347Y0087736D01*
X0206347Y0083168D01*
X0206347Y0084112D02*
X0206111Y0084112D01*
X0206111Y0085056D02*
X0206347Y0085056D01*
X0206347Y0086000D02*
X0206111Y0086000D01*
X0206111Y0086944D02*
X0206347Y0086944D01*
X0208670Y0083168D02*
X0208906Y0083168D01*
X0208670Y0083168D02*
X0208670Y0087736D01*
X0208906Y0087736D01*
X0208906Y0083168D01*
X0208906Y0084112D02*
X0208670Y0084112D01*
X0208670Y0085056D02*
X0208906Y0085056D01*
X0208906Y0086000D02*
X0208670Y0086000D01*
X0208670Y0086944D02*
X0208906Y0086944D01*
X0211229Y0083168D02*
X0211465Y0083168D01*
X0211229Y0083168D02*
X0211229Y0087736D01*
X0211465Y0087736D01*
X0211465Y0083168D01*
X0211465Y0084112D02*
X0211229Y0084112D01*
X0211229Y0085056D02*
X0211465Y0085056D01*
X0211465Y0086000D02*
X0211229Y0086000D01*
X0211229Y0086944D02*
X0211465Y0086944D01*
X0213788Y0083168D02*
X0214024Y0083168D01*
X0213788Y0083168D02*
X0213788Y0087736D01*
X0214024Y0087736D01*
X0214024Y0083168D01*
X0214024Y0084112D02*
X0213788Y0084112D01*
X0213788Y0085056D02*
X0214024Y0085056D01*
X0214024Y0086000D02*
X0213788Y0086000D01*
X0213788Y0086944D02*
X0214024Y0086944D01*
X0222243Y0092371D02*
X0222243Y0092607D01*
X0222243Y0092371D02*
X0217675Y0092371D01*
X0217675Y0092607D01*
X0222243Y0092607D01*
X0222243Y0094930D02*
X0222243Y0095166D01*
X0222243Y0094930D02*
X0217675Y0094930D01*
X0217675Y0095166D01*
X0222243Y0095166D01*
X0222243Y0097489D02*
X0222243Y0097725D01*
X0222243Y0097489D02*
X0217675Y0097489D01*
X0217675Y0097725D01*
X0222243Y0097725D01*
X0222243Y0100048D02*
X0222243Y0100284D01*
X0222243Y0100048D02*
X0217675Y0100048D01*
X0217675Y0100284D01*
X0222243Y0100284D01*
X0222243Y0102607D02*
X0222243Y0102843D01*
X0222243Y0102607D02*
X0217675Y0102607D01*
X0217675Y0102843D01*
X0222243Y0102843D01*
X0222243Y0105166D02*
X0222243Y0105402D01*
X0222243Y0105166D02*
X0217675Y0105166D01*
X0217675Y0105402D01*
X0222243Y0105402D01*
X0222243Y0107725D02*
X0222243Y0107961D01*
X0222243Y0107725D02*
X0217675Y0107725D01*
X0217675Y0107961D01*
X0222243Y0107961D01*
X0222243Y0110284D02*
X0222243Y0110520D01*
X0222243Y0110284D02*
X0217675Y0110284D01*
X0217675Y0110520D01*
X0222243Y0110520D01*
X0222243Y0112843D02*
X0222243Y0113079D01*
X0222243Y0112843D02*
X0217675Y0112843D01*
X0217675Y0113079D01*
X0222243Y0113079D01*
X0222243Y0115402D02*
X0222243Y0115638D01*
X0222243Y0115402D02*
X0217675Y0115402D01*
X0217675Y0115638D01*
X0222243Y0115638D01*
X0222243Y0117962D02*
X0222243Y0118198D01*
X0222243Y0117962D02*
X0217675Y0117962D01*
X0217675Y0118198D01*
X0222243Y0118198D01*
X0222243Y0120521D02*
X0222243Y0120757D01*
X0222243Y0120521D02*
X0217675Y0120521D01*
X0217675Y0120757D01*
X0222243Y0120757D01*
X0222243Y0123080D02*
X0222243Y0123316D01*
X0222243Y0123080D02*
X0217675Y0123080D01*
X0217675Y0123316D01*
X0222243Y0123316D01*
X0222243Y0125639D02*
X0222243Y0125875D01*
X0222243Y0125639D02*
X0217675Y0125639D01*
X0217675Y0125875D01*
X0222243Y0125875D01*
X0222243Y0128198D02*
X0222243Y0128434D01*
X0222243Y0128198D02*
X0217675Y0128198D01*
X0217675Y0128434D01*
X0222243Y0128434D01*
X0222243Y0130757D02*
X0222243Y0130993D01*
X0222243Y0130757D02*
X0217675Y0130757D01*
X0217675Y0130993D01*
X0222243Y0130993D01*
X0222243Y0133316D02*
X0222243Y0133552D01*
X0222243Y0133316D02*
X0217675Y0133316D01*
X0217675Y0133552D01*
X0222243Y0133552D01*
X0222243Y0135875D02*
X0222243Y0136111D01*
X0222243Y0135875D02*
X0217675Y0135875D01*
X0217675Y0136111D01*
X0222243Y0136111D01*
X0222243Y0138434D02*
X0222243Y0138670D01*
X0222243Y0138434D02*
X0217675Y0138434D01*
X0217675Y0138670D01*
X0222243Y0138670D01*
X0222243Y0140993D02*
X0222243Y0141229D01*
X0222243Y0140993D02*
X0217675Y0140993D01*
X0217675Y0141229D01*
X0222243Y0141229D01*
X0214024Y0150432D02*
X0213788Y0150432D01*
X0214024Y0150432D02*
X0214024Y0145864D01*
X0213788Y0145864D01*
X0213788Y0150432D01*
X0213788Y0146808D02*
X0214024Y0146808D01*
X0214024Y0147752D02*
X0213788Y0147752D01*
X0213788Y0148696D02*
X0214024Y0148696D01*
X0214024Y0149640D02*
X0213788Y0149640D01*
X0211465Y0150432D02*
X0211229Y0150432D01*
X0211465Y0150432D02*
X0211465Y0145864D01*
X0211229Y0145864D01*
X0211229Y0150432D01*
X0211229Y0146808D02*
X0211465Y0146808D01*
X0211465Y0147752D02*
X0211229Y0147752D01*
X0211229Y0148696D02*
X0211465Y0148696D01*
X0211465Y0149640D02*
X0211229Y0149640D01*
X0208906Y0150432D02*
X0208670Y0150432D01*
X0208906Y0150432D02*
X0208906Y0145864D01*
X0208670Y0145864D01*
X0208670Y0150432D01*
X0208670Y0146808D02*
X0208906Y0146808D01*
X0208906Y0147752D02*
X0208670Y0147752D01*
X0208670Y0148696D02*
X0208906Y0148696D01*
X0208906Y0149640D02*
X0208670Y0149640D01*
X0206347Y0150432D02*
X0206111Y0150432D01*
X0206347Y0150432D02*
X0206347Y0145864D01*
X0206111Y0145864D01*
X0206111Y0150432D01*
X0206111Y0146808D02*
X0206347Y0146808D01*
X0206347Y0147752D02*
X0206111Y0147752D01*
X0206111Y0148696D02*
X0206347Y0148696D01*
X0206347Y0149640D02*
X0206111Y0149640D01*
X0203788Y0150432D02*
X0203552Y0150432D01*
X0203788Y0150432D02*
X0203788Y0145864D01*
X0203552Y0145864D01*
X0203552Y0150432D01*
X0203552Y0146808D02*
X0203788Y0146808D01*
X0203788Y0147752D02*
X0203552Y0147752D01*
X0203552Y0148696D02*
X0203788Y0148696D01*
X0203788Y0149640D02*
X0203552Y0149640D01*
X0201229Y0150432D02*
X0200993Y0150432D01*
X0201229Y0150432D02*
X0201229Y0145864D01*
X0200993Y0145864D01*
X0200993Y0150432D01*
X0200993Y0146808D02*
X0201229Y0146808D01*
X0201229Y0147752D02*
X0200993Y0147752D01*
X0200993Y0148696D02*
X0201229Y0148696D01*
X0201229Y0149640D02*
X0200993Y0149640D01*
X0198670Y0150432D02*
X0198434Y0150432D01*
X0198670Y0150432D02*
X0198670Y0145864D01*
X0198434Y0145864D01*
X0198434Y0150432D01*
X0198434Y0146808D02*
X0198670Y0146808D01*
X0198670Y0147752D02*
X0198434Y0147752D01*
X0198434Y0148696D02*
X0198670Y0148696D01*
X0198670Y0149640D02*
X0198434Y0149640D01*
X0196111Y0150432D02*
X0195875Y0150432D01*
X0196111Y0150432D02*
X0196111Y0145864D01*
X0195875Y0145864D01*
X0195875Y0150432D01*
X0195875Y0146808D02*
X0196111Y0146808D01*
X0196111Y0147752D02*
X0195875Y0147752D01*
X0195875Y0148696D02*
X0196111Y0148696D01*
X0196111Y0149640D02*
X0195875Y0149640D01*
X0193552Y0150432D02*
X0193316Y0150432D01*
X0193552Y0150432D02*
X0193552Y0145864D01*
X0193316Y0145864D01*
X0193316Y0150432D01*
X0193316Y0146808D02*
X0193552Y0146808D01*
X0193552Y0147752D02*
X0193316Y0147752D01*
X0193316Y0148696D02*
X0193552Y0148696D01*
X0193552Y0149640D02*
X0193316Y0149640D01*
X0190993Y0150432D02*
X0190757Y0150432D01*
X0190993Y0150432D02*
X0190993Y0145864D01*
X0190757Y0145864D01*
X0190757Y0150432D01*
X0190757Y0146808D02*
X0190993Y0146808D01*
X0190993Y0147752D02*
X0190757Y0147752D01*
X0190757Y0148696D02*
X0190993Y0148696D01*
X0190993Y0149640D02*
X0190757Y0149640D01*
X0188434Y0150432D02*
X0188198Y0150432D01*
X0188434Y0150432D02*
X0188434Y0145864D01*
X0188198Y0145864D01*
X0188198Y0150432D01*
X0188198Y0146808D02*
X0188434Y0146808D01*
X0188434Y0147752D02*
X0188198Y0147752D01*
X0188198Y0148696D02*
X0188434Y0148696D01*
X0188434Y0149640D02*
X0188198Y0149640D01*
X0185875Y0150432D02*
X0185639Y0150432D01*
X0185875Y0150432D02*
X0185875Y0145864D01*
X0185639Y0145864D01*
X0185639Y0150432D01*
X0185639Y0146808D02*
X0185875Y0146808D01*
X0185875Y0147752D02*
X0185639Y0147752D01*
X0185639Y0148696D02*
X0185875Y0148696D01*
X0185875Y0149640D02*
X0185639Y0149640D01*
X0183316Y0150432D02*
X0183080Y0150432D01*
X0183316Y0150432D02*
X0183316Y0145864D01*
X0183080Y0145864D01*
X0183080Y0150432D01*
X0183080Y0146808D02*
X0183316Y0146808D01*
X0183316Y0147752D02*
X0183080Y0147752D01*
X0183080Y0148696D02*
X0183316Y0148696D01*
X0183316Y0149640D02*
X0183080Y0149640D01*
X0180757Y0150432D02*
X0180521Y0150432D01*
X0180757Y0150432D02*
X0180757Y0145864D01*
X0180521Y0145864D01*
X0180521Y0150432D01*
X0180521Y0146808D02*
X0180757Y0146808D01*
X0180757Y0147752D02*
X0180521Y0147752D01*
X0180521Y0148696D02*
X0180757Y0148696D01*
X0180757Y0149640D02*
X0180521Y0149640D01*
X0178198Y0150432D02*
X0177962Y0150432D01*
X0178198Y0150432D02*
X0178198Y0145864D01*
X0177962Y0145864D01*
X0177962Y0150432D01*
X0177962Y0146808D02*
X0178198Y0146808D01*
X0178198Y0147752D02*
X0177962Y0147752D01*
X0177962Y0148696D02*
X0178198Y0148696D01*
X0178198Y0149640D02*
X0177962Y0149640D01*
X0175638Y0150432D02*
X0175402Y0150432D01*
X0175638Y0150432D02*
X0175638Y0145864D01*
X0175402Y0145864D01*
X0175402Y0150432D01*
X0175402Y0146808D02*
X0175638Y0146808D01*
X0175638Y0147752D02*
X0175402Y0147752D01*
X0175402Y0148696D02*
X0175638Y0148696D01*
X0175638Y0149640D02*
X0175402Y0149640D01*
X0173079Y0150432D02*
X0172843Y0150432D01*
X0173079Y0150432D02*
X0173079Y0145864D01*
X0172843Y0145864D01*
X0172843Y0150432D01*
X0172843Y0146808D02*
X0173079Y0146808D01*
X0173079Y0147752D02*
X0172843Y0147752D01*
X0172843Y0148696D02*
X0173079Y0148696D01*
X0173079Y0149640D02*
X0172843Y0149640D01*
X0170520Y0150432D02*
X0170284Y0150432D01*
X0170520Y0150432D02*
X0170520Y0145864D01*
X0170284Y0145864D01*
X0170284Y0150432D01*
X0170284Y0146808D02*
X0170520Y0146808D01*
X0170520Y0147752D02*
X0170284Y0147752D01*
X0170284Y0148696D02*
X0170520Y0148696D01*
X0170520Y0149640D02*
X0170284Y0149640D01*
X0167961Y0150432D02*
X0167725Y0150432D01*
X0167961Y0150432D02*
X0167961Y0145864D01*
X0167725Y0145864D01*
X0167725Y0150432D01*
X0167725Y0146808D02*
X0167961Y0146808D01*
X0167961Y0147752D02*
X0167725Y0147752D01*
X0167725Y0148696D02*
X0167961Y0148696D01*
X0167961Y0149640D02*
X0167725Y0149640D01*
X0165402Y0150432D02*
X0165166Y0150432D01*
X0165402Y0150432D02*
X0165402Y0145864D01*
X0165166Y0145864D01*
X0165166Y0150432D01*
X0165166Y0146808D02*
X0165402Y0146808D01*
X0165402Y0147752D02*
X0165166Y0147752D01*
X0165166Y0148696D02*
X0165402Y0148696D01*
X0165402Y0149640D02*
X0165166Y0149640D01*
X0162843Y0150432D02*
X0162607Y0150432D01*
X0162843Y0150432D02*
X0162843Y0145864D01*
X0162607Y0145864D01*
X0162607Y0150432D01*
X0162607Y0146808D02*
X0162843Y0146808D01*
X0162843Y0147752D02*
X0162607Y0147752D01*
X0162607Y0148696D02*
X0162843Y0148696D01*
X0162843Y0149640D02*
X0162607Y0149640D01*
X0160284Y0150432D02*
X0160048Y0150432D01*
X0160284Y0150432D02*
X0160284Y0145864D01*
X0160048Y0145864D01*
X0160048Y0150432D01*
X0160048Y0146808D02*
X0160284Y0146808D01*
X0160284Y0147752D02*
X0160048Y0147752D01*
X0160048Y0148696D02*
X0160284Y0148696D01*
X0160284Y0149640D02*
X0160048Y0149640D01*
X0157725Y0150432D02*
X0157489Y0150432D01*
X0157725Y0150432D02*
X0157725Y0145864D01*
X0157489Y0145864D01*
X0157489Y0150432D01*
X0157489Y0146808D02*
X0157725Y0146808D01*
X0157725Y0147752D02*
X0157489Y0147752D01*
X0157489Y0148696D02*
X0157725Y0148696D01*
X0157725Y0149640D02*
X0157489Y0149640D01*
X0155166Y0150432D02*
X0154930Y0150432D01*
X0155166Y0150432D02*
X0155166Y0145864D01*
X0154930Y0145864D01*
X0154930Y0150432D01*
X0154930Y0146808D02*
X0155166Y0146808D01*
X0155166Y0147752D02*
X0154930Y0147752D01*
X0154930Y0148696D02*
X0155166Y0148696D01*
X0155166Y0149640D02*
X0154930Y0149640D01*
X0152607Y0150432D02*
X0152371Y0150432D01*
X0152607Y0150432D02*
X0152607Y0145864D01*
X0152371Y0145864D01*
X0152371Y0150432D01*
X0152371Y0146808D02*
X0152607Y0146808D01*
X0152607Y0147752D02*
X0152371Y0147752D01*
X0152371Y0148696D02*
X0152607Y0148696D01*
X0152607Y0149640D02*
X0152371Y0149640D01*
X0150048Y0150432D02*
X0149812Y0150432D01*
X0150048Y0150432D02*
X0150048Y0145864D01*
X0149812Y0145864D01*
X0149812Y0150432D01*
X0149812Y0146808D02*
X0150048Y0146808D01*
X0150048Y0147752D02*
X0149812Y0147752D01*
X0149812Y0148696D02*
X0150048Y0148696D01*
X0150048Y0149640D02*
X0149812Y0149640D01*
X0147489Y0150432D02*
X0147253Y0150432D01*
X0147489Y0150432D02*
X0147489Y0145864D01*
X0147253Y0145864D01*
X0147253Y0150432D01*
X0147253Y0146808D02*
X0147489Y0146808D01*
X0147489Y0147752D02*
X0147253Y0147752D01*
X0147253Y0148696D02*
X0147489Y0148696D01*
X0147489Y0149640D02*
X0147253Y0149640D01*
X0144930Y0150432D02*
X0144694Y0150432D01*
X0144930Y0150432D02*
X0144930Y0145864D01*
X0144694Y0145864D01*
X0144694Y0150432D01*
X0144694Y0146808D02*
X0144930Y0146808D01*
X0144930Y0147752D02*
X0144694Y0147752D01*
X0144694Y0148696D02*
X0144930Y0148696D01*
X0144930Y0149640D02*
X0144694Y0149640D01*
X0142371Y0150432D02*
X0142135Y0150432D01*
X0142371Y0150432D02*
X0142371Y0145864D01*
X0142135Y0145864D01*
X0142135Y0150432D01*
X0142135Y0146808D02*
X0142371Y0146808D01*
X0142371Y0147752D02*
X0142135Y0147752D01*
X0142135Y0148696D02*
X0142371Y0148696D01*
X0142371Y0149640D02*
X0142135Y0149640D01*
X0139812Y0150432D02*
X0139576Y0150432D01*
X0139812Y0150432D02*
X0139812Y0145864D01*
X0139576Y0145864D01*
X0139576Y0150432D01*
X0139576Y0146808D02*
X0139812Y0146808D01*
X0139812Y0147752D02*
X0139576Y0147752D01*
X0139576Y0148696D02*
X0139812Y0148696D01*
X0139812Y0149640D02*
X0139576Y0149640D01*
X0131357Y0141229D02*
X0131357Y0140993D01*
X0131357Y0141229D02*
X0135925Y0141229D01*
X0135925Y0140993D01*
X0131357Y0140993D01*
X0131357Y0138670D02*
X0131357Y0138434D01*
X0131357Y0138670D02*
X0135925Y0138670D01*
X0135925Y0138434D01*
X0131357Y0138434D01*
X0131357Y0136111D02*
X0131357Y0135875D01*
X0131357Y0136111D02*
X0135925Y0136111D01*
X0135925Y0135875D01*
X0131357Y0135875D01*
X0131357Y0133552D02*
X0131357Y0133316D01*
X0131357Y0133552D02*
X0135925Y0133552D01*
X0135925Y0133316D01*
X0131357Y0133316D01*
X0131357Y0130993D02*
X0131357Y0130757D01*
X0131357Y0130993D02*
X0135925Y0130993D01*
X0135925Y0130757D01*
X0131357Y0130757D01*
X0131357Y0128434D02*
X0131357Y0128198D01*
X0131357Y0128434D02*
X0135925Y0128434D01*
X0135925Y0128198D01*
X0131357Y0128198D01*
X0131357Y0125875D02*
X0131357Y0125639D01*
X0131357Y0125875D02*
X0135925Y0125875D01*
X0135925Y0125639D01*
X0131357Y0125639D01*
X0131357Y0123316D02*
X0131357Y0123080D01*
X0131357Y0123316D02*
X0135925Y0123316D01*
X0135925Y0123080D01*
X0131357Y0123080D01*
X0131357Y0120757D02*
X0131357Y0120521D01*
X0131357Y0120757D02*
X0135925Y0120757D01*
X0135925Y0120521D01*
X0131357Y0120521D01*
X0131357Y0118198D02*
X0131357Y0117962D01*
X0131357Y0118198D02*
X0135925Y0118198D01*
X0135925Y0117962D01*
X0131357Y0117962D01*
X0131357Y0115638D02*
X0131357Y0115402D01*
X0131357Y0115638D02*
X0135925Y0115638D01*
X0135925Y0115402D01*
X0131357Y0115402D01*
X0131357Y0113079D02*
X0131357Y0112843D01*
X0131357Y0113079D02*
X0135925Y0113079D01*
X0135925Y0112843D01*
X0131357Y0112843D01*
X0131357Y0110520D02*
X0131357Y0110284D01*
X0131357Y0110520D02*
X0135925Y0110520D01*
X0135925Y0110284D01*
X0131357Y0110284D01*
X0131357Y0107961D02*
X0131357Y0107725D01*
X0131357Y0107961D02*
X0135925Y0107961D01*
X0135925Y0107725D01*
X0131357Y0107725D01*
X0131357Y0105402D02*
X0131357Y0105166D01*
X0131357Y0105402D02*
X0135925Y0105402D01*
X0135925Y0105166D01*
X0131357Y0105166D01*
X0131357Y0102843D02*
X0131357Y0102607D01*
X0131357Y0102843D02*
X0135925Y0102843D01*
X0135925Y0102607D01*
X0131357Y0102607D01*
X0131357Y0100284D02*
X0131357Y0100048D01*
X0131357Y0100284D02*
X0135925Y0100284D01*
X0135925Y0100048D01*
X0131357Y0100048D01*
X0131357Y0097725D02*
X0131357Y0097489D01*
X0131357Y0097725D02*
X0135925Y0097725D01*
X0135925Y0097489D01*
X0131357Y0097489D01*
X0131357Y0095166D02*
X0131357Y0094930D01*
X0131357Y0095166D02*
X0135925Y0095166D01*
X0135925Y0094930D01*
X0131357Y0094930D01*
X0131357Y0092607D02*
X0131357Y0092371D01*
X0131357Y0092607D02*
X0135925Y0092607D01*
X0135925Y0092371D01*
X0131357Y0092371D01*
X0139576Y0083168D02*
X0139812Y0083168D01*
X0139576Y0083168D02*
X0139576Y0087736D01*
X0139812Y0087736D01*
X0139812Y0083168D01*
X0139812Y0084112D02*
X0139576Y0084112D01*
X0139576Y0085056D02*
X0139812Y0085056D01*
X0139812Y0086000D02*
X0139576Y0086000D01*
X0139576Y0086944D02*
X0139812Y0086944D01*
X0142135Y0083168D02*
X0142371Y0083168D01*
X0142135Y0083168D02*
X0142135Y0087736D01*
X0142371Y0087736D01*
X0142371Y0083168D01*
X0142371Y0084112D02*
X0142135Y0084112D01*
X0142135Y0085056D02*
X0142371Y0085056D01*
X0142371Y0086000D02*
X0142135Y0086000D01*
X0142135Y0086944D02*
X0142371Y0086944D01*
X0144694Y0083168D02*
X0144930Y0083168D01*
X0144694Y0083168D02*
X0144694Y0087736D01*
X0144930Y0087736D01*
X0144930Y0083168D01*
X0144930Y0084112D02*
X0144694Y0084112D01*
X0144694Y0085056D02*
X0144930Y0085056D01*
X0144930Y0086000D02*
X0144694Y0086000D01*
X0144694Y0086944D02*
X0144930Y0086944D01*
X0147253Y0083168D02*
X0147489Y0083168D01*
X0147253Y0083168D02*
X0147253Y0087736D01*
X0147489Y0087736D01*
X0147489Y0083168D01*
X0147489Y0084112D02*
X0147253Y0084112D01*
X0147253Y0085056D02*
X0147489Y0085056D01*
X0147489Y0086000D02*
X0147253Y0086000D01*
X0147253Y0086944D02*
X0147489Y0086944D01*
X0149812Y0083168D02*
X0150048Y0083168D01*
X0149812Y0083168D02*
X0149812Y0087736D01*
X0150048Y0087736D01*
X0150048Y0083168D01*
X0150048Y0084112D02*
X0149812Y0084112D01*
X0149812Y0085056D02*
X0150048Y0085056D01*
X0150048Y0086000D02*
X0149812Y0086000D01*
X0149812Y0086944D02*
X0150048Y0086944D01*
X0152371Y0083168D02*
X0152607Y0083168D01*
X0152371Y0083168D02*
X0152371Y0087736D01*
X0152607Y0087736D01*
X0152607Y0083168D01*
X0152607Y0084112D02*
X0152371Y0084112D01*
X0152371Y0085056D02*
X0152607Y0085056D01*
X0152607Y0086000D02*
X0152371Y0086000D01*
X0152371Y0086944D02*
X0152607Y0086944D01*
X0154930Y0083168D02*
X0155166Y0083168D01*
X0154930Y0083168D02*
X0154930Y0087736D01*
X0155166Y0087736D01*
X0155166Y0083168D01*
X0155166Y0084112D02*
X0154930Y0084112D01*
X0154930Y0085056D02*
X0155166Y0085056D01*
X0155166Y0086000D02*
X0154930Y0086000D01*
X0154930Y0086944D02*
X0155166Y0086944D01*
X0157489Y0083168D02*
X0157725Y0083168D01*
X0157489Y0083168D02*
X0157489Y0087736D01*
X0157725Y0087736D01*
X0157725Y0083168D01*
X0157725Y0084112D02*
X0157489Y0084112D01*
X0157489Y0085056D02*
X0157725Y0085056D01*
X0157725Y0086000D02*
X0157489Y0086000D01*
X0157489Y0086944D02*
X0157725Y0086944D01*
X0160048Y0083168D02*
X0160284Y0083168D01*
X0160048Y0083168D02*
X0160048Y0087736D01*
X0160284Y0087736D01*
X0160284Y0083168D01*
X0160284Y0084112D02*
X0160048Y0084112D01*
X0160048Y0085056D02*
X0160284Y0085056D01*
X0160284Y0086000D02*
X0160048Y0086000D01*
X0160048Y0086944D02*
X0160284Y0086944D01*
D15*
X0091800Y0126175D03*
X0071175Y0113675D03*
X0014925Y0119925D03*
X0013675Y0126175D03*
X0013675Y0132425D03*
X0034925Y0031800D03*
D16*
X0009703Y0011669D02*
X0010513Y0009176D01*
X0012055Y0007055D01*
X0014176Y0005513D01*
X0016669Y0004703D01*
X0017980Y0004600D01*
X0245620Y0004600D01*
X0246931Y0004703D01*
X0249424Y0005513D01*
X0251545Y0007055D01*
X0253087Y0009176D01*
X0253897Y0011669D01*
X0254000Y0012980D01*
X0254000Y0235620D01*
X0253897Y0236931D01*
X0253087Y0239424D01*
X0251545Y0241545D01*
X0249424Y0243087D01*
X0246931Y0243897D01*
X0245620Y0244000D01*
X0017980Y0244000D01*
X0016669Y0243897D01*
X0014176Y0243087D01*
X0012055Y0241545D01*
X0010513Y0239424D01*
X0009703Y0236931D01*
X0009600Y0235620D01*
X0009600Y0135081D01*
X0009622Y0135133D01*
X0010967Y0136478D01*
X0012724Y0137206D01*
X0014626Y0137206D01*
X0016383Y0136478D01*
X0017461Y0135400D01*
X0047809Y0135400D01*
X0054988Y0142579D01*
X0056001Y0143592D01*
X0056047Y0143611D01*
X0056047Y0143656D01*
X0056474Y0144685D01*
X0057261Y0145473D01*
X0058290Y0145899D01*
X0065310Y0145899D01*
X0066339Y0145473D01*
X0067126Y0144685D01*
X0067553Y0143656D01*
X0067553Y0137424D01*
X0067294Y0136800D01*
X0067352Y0136660D01*
X0071256Y0136660D01*
X0072579Y0136112D01*
X0072900Y0135791D01*
X0073127Y0136339D01*
X0073915Y0137126D01*
X0074944Y0137553D01*
X0081176Y0137553D01*
X0081800Y0137294D01*
X0082424Y0137553D01*
X0088656Y0137553D01*
X0089685Y0137126D01*
X0090473Y0136339D01*
X0090899Y0135310D01*
X0090899Y0134968D01*
X0091794Y0134598D01*
X0093669Y0132723D01*
X0094598Y0131794D01*
X0095100Y0130581D01*
X0095100Y0129636D01*
X0095853Y0128883D01*
X0096581Y0127126D01*
X0096581Y0125224D01*
X0095853Y0123467D01*
X0094508Y0122122D01*
X0092751Y0121394D01*
X0090849Y0121394D01*
X0089092Y0122122D01*
X0087747Y0123467D01*
X0087019Y0125224D01*
X0087019Y0126047D01*
X0082424Y0126047D01*
X0081800Y0126306D01*
X0081176Y0126047D01*
X0074944Y0126047D01*
X0073915Y0126474D01*
X0073127Y0127261D01*
X0072738Y0128200D01*
X0071084Y0128200D01*
X0069761Y0128748D01*
X0069049Y0129460D01*
X0067352Y0129460D01*
X0067126Y0128915D01*
X0066339Y0128127D01*
X0065310Y0127701D01*
X0065034Y0127701D01*
X0064852Y0127261D01*
X0064391Y0126800D01*
X0064852Y0126339D01*
X0065034Y0125899D01*
X0065310Y0125899D01*
X0066339Y0125473D01*
X0067126Y0124685D01*
X0067553Y0123656D01*
X0067553Y0117424D01*
X0067294Y0116800D01*
X0067352Y0116660D01*
X0067398Y0116660D01*
X0068467Y0117728D01*
X0070224Y0118456D01*
X0072126Y0118456D01*
X0073883Y0117728D01*
X0073936Y0117675D01*
X0074178Y0117675D01*
X0074281Y0117779D01*
X0074281Y0119962D01*
X0077866Y0119962D01*
X0077866Y0120331D01*
X0077866Y0124112D01*
X0075845Y0124112D01*
X0075387Y0123989D01*
X0074976Y0123752D01*
X0074641Y0123417D01*
X0074404Y0123007D01*
X0074281Y0122549D01*
X0074281Y0120331D01*
X0077866Y0120331D01*
X0078234Y0120331D01*
X0078234Y0124112D01*
X0080255Y0124112D01*
X0080713Y0123989D01*
X0081124Y0123752D01*
X0081175Y0123701D01*
X0081226Y0123752D01*
X0081637Y0123989D01*
X0082095Y0124112D01*
X0084116Y0124112D01*
X0084116Y0120331D01*
X0084484Y0120331D01*
X0084484Y0124112D01*
X0086505Y0124112D01*
X0086963Y0123989D01*
X0087374Y0123752D01*
X0087709Y0123417D01*
X0087946Y0123007D01*
X0088068Y0122549D01*
X0088068Y0120331D01*
X0084484Y0120331D01*
X0084484Y0119962D01*
X0088068Y0119962D01*
X0088068Y0117779D01*
X0088394Y0117454D01*
X0093672Y0117454D01*
X0095159Y0118941D01*
X0096629Y0119550D01*
X0124992Y0119550D01*
X0125927Y0119937D01*
X0127673Y0119937D01*
X0128136Y0119745D01*
X0128085Y0119870D01*
X0128085Y0121408D01*
X0128296Y0121918D01*
X0128085Y0122429D01*
X0128085Y0122457D01*
X0112187Y0122457D01*
X0110974Y0122959D01*
X0106520Y0127413D01*
X0105927Y0127413D01*
X0104315Y0128081D01*
X0103081Y0129315D01*
X0102413Y0130927D01*
X0102413Y0132673D01*
X0103081Y0134285D01*
X0103864Y0135069D01*
X0085433Y0153500D01*
X0039705Y0153500D01*
X0039285Y0153081D01*
X0037673Y0152413D01*
X0035927Y0152413D01*
X0034315Y0153081D01*
X0033081Y0154315D01*
X0032413Y0155927D01*
X0032413Y0157673D01*
X0032911Y0158876D01*
X0031815Y0159331D01*
X0030581Y0160565D01*
X0029913Y0162177D01*
X0029913Y0163923D01*
X0030581Y0165535D01*
X0031220Y0166175D01*
X0030581Y0166815D01*
X0029913Y0168427D01*
X0029913Y0170173D01*
X0030581Y0171785D01*
X0031815Y0173019D01*
X0032413Y0173267D01*
X0032413Y0173733D01*
X0031206Y0174940D01*
X0030538Y0176552D01*
X0030538Y0178298D01*
X0031206Y0179910D01*
X0032300Y0181005D01*
X0031815Y0181206D01*
X0030581Y0182440D01*
X0029913Y0184052D01*
X0029913Y0185798D01*
X0030581Y0187410D01*
X0031815Y0188644D01*
X0032911Y0189099D01*
X0032527Y0190027D01*
X0031190Y0190581D01*
X0029956Y0191815D01*
X0029288Y0193427D01*
X0029288Y0195173D01*
X0029956Y0196785D01*
X0030595Y0197425D01*
X0029956Y0198065D01*
X0029288Y0199677D01*
X0029288Y0201423D01*
X0029956Y0203035D01*
X0031190Y0204269D01*
X0031233Y0204287D01*
X0030581Y0204940D01*
X0029913Y0206552D01*
X0029913Y0208298D01*
X0030581Y0209910D01*
X0031220Y0210550D01*
X0030581Y0211190D01*
X0029913Y0212802D01*
X0029913Y0214548D01*
X0030581Y0216160D01*
X0031815Y0217394D01*
X0033427Y0218062D01*
X0035173Y0218062D01*
X0036785Y0217394D01*
X0037205Y0216975D01*
X0215581Y0216975D01*
X0216794Y0216473D01*
X0217723Y0215544D01*
X0241794Y0191473D01*
X0242723Y0190544D01*
X0243225Y0189331D01*
X0243225Y0133019D01*
X0242723Y0131806D01*
X0241794Y0130877D01*
X0231317Y0120400D01*
X0230104Y0119898D01*
X0225081Y0119898D01*
X0225515Y0118849D01*
X0225515Y0117310D01*
X0225081Y0116261D01*
X0241295Y0116261D01*
X0242508Y0115759D01*
X0248669Y0109598D01*
X0249598Y0108669D01*
X0250100Y0107456D01*
X0250100Y0071144D01*
X0249598Y0069931D01*
X0209598Y0029931D01*
X0208669Y0029002D01*
X0207456Y0028500D01*
X0174676Y0028500D01*
X0174489Y0028049D01*
X0173701Y0027261D01*
X0172672Y0026835D01*
X0167621Y0026835D01*
X0166800Y0027175D01*
X0165979Y0026835D01*
X0160928Y0026835D01*
X0159899Y0027261D01*
X0159140Y0028020D01*
X0157673Y0027413D01*
X0155927Y0027413D01*
X0154315Y0028081D01*
X0153081Y0029315D01*
X0152413Y0030927D01*
X0152413Y0032673D01*
X0152755Y0033500D01*
X0066144Y0033500D01*
X0064931Y0034002D01*
X0052308Y0046625D01*
X0036580Y0046625D01*
X0036160Y0046206D01*
X0034548Y0045538D01*
X0032802Y0045538D01*
X0031190Y0046206D01*
X0029956Y0047440D01*
X0029288Y0049052D01*
X0029288Y0050798D01*
X0029956Y0052410D01*
X0030908Y0053362D01*
X0029956Y0054315D01*
X0029288Y0055927D01*
X0029288Y0057673D01*
X0029956Y0059285D01*
X0031190Y0060519D01*
X0032802Y0061187D01*
X0034548Y0061187D01*
X0036160Y0060519D01*
X0036580Y0060100D01*
X0050708Y0060100D01*
X0047933Y0062875D01*
X0039080Y0062875D01*
X0038660Y0062456D01*
X0037048Y0061788D01*
X0035302Y0061788D01*
X0033690Y0062456D01*
X0032456Y0063690D01*
X0031788Y0065302D01*
X0031788Y0066858D01*
X0030581Y0068065D01*
X0029913Y0069677D01*
X0029913Y0071423D01*
X0030581Y0073035D01*
X0031815Y0074269D01*
X0032300Y0074470D01*
X0031206Y0075565D01*
X0030538Y0077177D01*
X0030538Y0078923D01*
X0031206Y0080535D01*
X0032117Y0081447D01*
X0031190Y0081831D01*
X0029956Y0083065D01*
X0029288Y0084677D01*
X0029288Y0086423D01*
X0029956Y0088035D01*
X0031190Y0089269D01*
X0032117Y0089653D01*
X0031206Y0090565D01*
X0030538Y0092177D01*
X0030538Y0093923D01*
X0031206Y0095535D01*
X0031675Y0096005D01*
X0031190Y0096206D01*
X0029956Y0097440D01*
X0029288Y0099052D01*
X0029288Y0100798D01*
X0029956Y0102410D01*
X0030595Y0103050D01*
X0029956Y0103690D01*
X0029288Y0105302D01*
X0029288Y0107048D01*
X0029956Y0108660D01*
X0031190Y0109894D01*
X0031675Y0110095D01*
X0030581Y0111190D01*
X0029913Y0112802D01*
X0029913Y0114548D01*
X0030581Y0116160D01*
X0031815Y0117394D01*
X0033427Y0118062D01*
X0035173Y0118062D01*
X0036785Y0117394D01*
X0037205Y0116975D01*
X0048706Y0116975D01*
X0049265Y0116743D01*
X0047809Y0118200D01*
X0019385Y0118200D01*
X0018978Y0117217D01*
X0017633Y0115872D01*
X0015876Y0115144D01*
X0013974Y0115144D01*
X0012217Y0115872D01*
X0010872Y0117217D01*
X0010144Y0118974D01*
X0010144Y0120876D01*
X0010750Y0122339D01*
X0009622Y0123467D01*
X0009600Y0123519D01*
X0009600Y0012980D01*
X0009703Y0011669D01*
X0009794Y0011391D02*
X0253806Y0011391D01*
X0254000Y0012990D02*
X0009600Y0012990D01*
X0009600Y0014588D02*
X0254000Y0014588D01*
X0254000Y0016187D02*
X0009600Y0016187D01*
X0009600Y0017785D02*
X0031766Y0017785D01*
X0032356Y0017195D02*
X0034396Y0016350D01*
X0036604Y0016350D01*
X0038644Y0017195D01*
X0040205Y0018756D01*
X0041050Y0020796D01*
X0041050Y0023004D01*
X0040205Y0025044D01*
X0038644Y0026605D01*
X0036604Y0027450D01*
X0034396Y0027450D01*
X0032356Y0026605D01*
X0030795Y0025044D01*
X0029950Y0023004D01*
X0029950Y0020796D01*
X0030795Y0018756D01*
X0032356Y0017195D01*
X0030535Y0019384D02*
X0009600Y0019384D01*
X0009600Y0020982D02*
X0029950Y0020982D01*
X0029950Y0022581D02*
X0009600Y0022581D01*
X0009600Y0024179D02*
X0030437Y0024179D01*
X0031529Y0025778D02*
X0009600Y0025778D01*
X0009600Y0027376D02*
X0034218Y0027376D01*
X0036782Y0027376D02*
X0159784Y0027376D01*
X0153421Y0028975D02*
X0009600Y0028975D01*
X0009600Y0030573D02*
X0152559Y0030573D01*
X0152413Y0032172D02*
X0009600Y0032172D01*
X0009600Y0033770D02*
X0065491Y0033770D01*
X0063564Y0035369D02*
X0009600Y0035369D01*
X0009600Y0036967D02*
X0061966Y0036967D01*
X0060367Y0038566D02*
X0009600Y0038566D01*
X0009600Y0040164D02*
X0058769Y0040164D01*
X0057170Y0041763D02*
X0009600Y0041763D01*
X0009600Y0043361D02*
X0055572Y0043361D01*
X0053973Y0044960D02*
X0009600Y0044960D01*
X0009600Y0046558D02*
X0030837Y0046558D01*
X0029659Y0048157D02*
X0009600Y0048157D01*
X0009600Y0049755D02*
X0029288Y0049755D01*
X0029518Y0051354D02*
X0009600Y0051354D01*
X0009600Y0052952D02*
X0030498Y0052952D01*
X0029858Y0054551D02*
X0009600Y0054551D01*
X0009600Y0056149D02*
X0029288Y0056149D01*
X0029319Y0057748D02*
X0009600Y0057748D01*
X0009600Y0059346D02*
X0030017Y0059346D01*
X0032217Y0060945D02*
X0009600Y0060945D01*
X0009600Y0062543D02*
X0033602Y0062543D01*
X0032268Y0064142D02*
X0009600Y0064142D01*
X0009600Y0065740D02*
X0031788Y0065740D01*
X0031306Y0067339D02*
X0009600Y0067339D01*
X0009600Y0068937D02*
X0030219Y0068937D01*
X0029913Y0070536D02*
X0009600Y0070536D01*
X0009600Y0072134D02*
X0030207Y0072134D01*
X0031278Y0073733D02*
X0009600Y0073733D01*
X0009600Y0075332D02*
X0031439Y0075332D01*
X0030640Y0076930D02*
X0009600Y0076930D01*
X0009600Y0078529D02*
X0030538Y0078529D01*
X0031036Y0080127D02*
X0009600Y0080127D01*
X0009600Y0081726D02*
X0031443Y0081726D01*
X0029848Y0083324D02*
X0009600Y0083324D01*
X0009600Y0084923D02*
X0029288Y0084923D01*
X0029328Y0086521D02*
X0009600Y0086521D01*
X0009600Y0088120D02*
X0030040Y0088120D01*
X0032052Y0089718D02*
X0009600Y0089718D01*
X0009600Y0091317D02*
X0030894Y0091317D01*
X0030538Y0092915D02*
X0009600Y0092915D01*
X0009600Y0094514D02*
X0030782Y0094514D01*
X0031415Y0096112D02*
X0009600Y0096112D01*
X0009600Y0097711D02*
X0029843Y0097711D01*
X0029288Y0099309D02*
X0009600Y0099309D01*
X0009600Y0100908D02*
X0029333Y0100908D01*
X0030051Y0102506D02*
X0009600Y0102506D01*
X0009600Y0104105D02*
X0029784Y0104105D01*
X0029288Y0105703D02*
X0009600Y0105703D01*
X0009600Y0107302D02*
X0029393Y0107302D01*
X0030196Y0108900D02*
X0009600Y0108900D01*
X0009600Y0110499D02*
X0031271Y0110499D01*
X0030205Y0112097D02*
X0009600Y0112097D01*
X0009600Y0113696D02*
X0029913Y0113696D01*
X0030222Y0115294D02*
X0016239Y0115294D01*
X0013611Y0115294D02*
X0009600Y0115294D01*
X0009600Y0116893D02*
X0011196Y0116893D01*
X0010344Y0118491D02*
X0009600Y0118491D01*
X0009600Y0120090D02*
X0010144Y0120090D01*
X0010480Y0121688D02*
X0009600Y0121688D01*
X0009600Y0123287D02*
X0009802Y0123287D01*
X0013675Y0126175D02*
X0014300Y0126800D01*
X0059300Y0126800D01*
X0061800Y0124300D01*
X0061800Y0120540D01*
X0067553Y0120090D02*
X0077866Y0120090D01*
X0078234Y0120090D02*
X0084116Y0120090D01*
X0084116Y0119962D02*
X0078234Y0119962D01*
X0078234Y0120331D01*
X0081818Y0120331D01*
X0084116Y0120331D01*
X0084116Y0119962D01*
X0084484Y0120090D02*
X0128085Y0120090D01*
X0128201Y0121688D02*
X0093462Y0121688D01*
X0095673Y0123287D02*
X0110646Y0123287D01*
X0109048Y0124885D02*
X0096441Y0124885D01*
X0096581Y0126484D02*
X0107449Y0126484D01*
X0104313Y0128082D02*
X0096185Y0128082D01*
X0095100Y0129681D02*
X0102929Y0129681D01*
X0102413Y0131279D02*
X0094811Y0131279D01*
X0093514Y0132878D02*
X0102498Y0132878D01*
X0103272Y0134476D02*
X0091915Y0134476D01*
X0090582Y0136075D02*
X0102858Y0136075D01*
X0101260Y0137673D02*
X0067553Y0137673D01*
X0067553Y0139272D02*
X0099661Y0139272D01*
X0098063Y0140870D02*
X0067553Y0140870D01*
X0067553Y0142469D02*
X0096464Y0142469D01*
X0094866Y0144068D02*
X0067382Y0144068D01*
X0065873Y0145666D02*
X0093267Y0145666D01*
X0091669Y0147265D02*
X0009600Y0147265D01*
X0009600Y0148863D02*
X0090070Y0148863D01*
X0088472Y0150462D02*
X0009600Y0150462D01*
X0009600Y0152060D02*
X0086873Y0152060D01*
X0073018Y0136075D02*
X0072616Y0136075D01*
X0070540Y0133060D02*
X0071800Y0131800D01*
X0078060Y0131800D01*
X0072787Y0128082D02*
X0066231Y0128082D01*
X0064707Y0126484D02*
X0073904Y0126484D01*
X0074566Y0123287D02*
X0067553Y0123287D01*
X0067553Y0121688D02*
X0074281Y0121688D01*
X0077866Y0121688D02*
X0078234Y0121688D01*
X0078234Y0123287D02*
X0077866Y0123287D01*
X0074281Y0118491D02*
X0067553Y0118491D01*
X0067631Y0116893D02*
X0067333Y0116893D01*
X0070540Y0113060D02*
X0061800Y0113060D01*
X0058040Y0113060D01*
X0049300Y0121800D01*
X0016800Y0121800D01*
X0014925Y0119925D01*
X0018654Y0116893D02*
X0031313Y0116893D01*
X0048905Y0116893D02*
X0049116Y0116893D01*
X0059300Y0126800D02*
X0061800Y0129300D01*
X0061800Y0133060D01*
X0070540Y0133060D01*
X0066926Y0124885D02*
X0087159Y0124885D01*
X0087784Y0123287D02*
X0087927Y0123287D01*
X0088068Y0121688D02*
X0090138Y0121688D01*
X0088068Y0118491D02*
X0094709Y0118491D01*
X0084484Y0121688D02*
X0084116Y0121688D01*
X0084116Y0123287D02*
X0084484Y0123287D01*
X0071175Y0113675D02*
X0070540Y0113060D01*
X0049300Y0131800D02*
X0014300Y0131800D01*
X0013675Y0132425D01*
X0010563Y0136075D02*
X0009600Y0136075D01*
X0009600Y0137673D02*
X0050082Y0137673D01*
X0048484Y0136075D02*
X0016787Y0136075D01*
X0009600Y0139272D02*
X0051681Y0139272D01*
X0053279Y0140870D02*
X0009600Y0140870D01*
X0009600Y0142469D02*
X0054878Y0142469D01*
X0056218Y0144068D02*
X0009600Y0144068D01*
X0009600Y0145666D02*
X0057727Y0145666D01*
X0058040Y0140540D02*
X0061800Y0140540D01*
X0058040Y0140540D02*
X0049300Y0131800D01*
X0033737Y0153659D02*
X0009600Y0153659D01*
X0009600Y0155257D02*
X0032690Y0155257D01*
X0032413Y0156856D02*
X0009600Y0156856D01*
X0009600Y0158454D02*
X0032736Y0158454D01*
X0031093Y0160053D02*
X0009600Y0160053D01*
X0009600Y0161651D02*
X0030131Y0161651D01*
X0029913Y0163250D02*
X0009600Y0163250D01*
X0009600Y0164848D02*
X0030296Y0164848D01*
X0030949Y0166447D02*
X0009600Y0166447D01*
X0009600Y0168045D02*
X0030071Y0168045D01*
X0029913Y0169644D02*
X0009600Y0169644D01*
X0009600Y0171242D02*
X0030356Y0171242D01*
X0031636Y0172841D02*
X0009600Y0172841D01*
X0009600Y0174439D02*
X0031706Y0174439D01*
X0030751Y0176038D02*
X0009600Y0176038D01*
X0009600Y0177636D02*
X0030538Y0177636D01*
X0030926Y0179235D02*
X0009600Y0179235D01*
X0009600Y0180833D02*
X0032129Y0180833D01*
X0030588Y0182432D02*
X0009600Y0182432D01*
X0009600Y0184030D02*
X0029922Y0184030D01*
X0029913Y0185629D02*
X0009600Y0185629D01*
X0009600Y0187227D02*
X0030505Y0187227D01*
X0032253Y0188826D02*
X0009600Y0188826D01*
X0009600Y0190424D02*
X0031567Y0190424D01*
X0029869Y0192023D02*
X0009600Y0192023D01*
X0009600Y0193621D02*
X0029288Y0193621D01*
X0029307Y0195220D02*
X0009600Y0195220D01*
X0009600Y0196818D02*
X0029989Y0196818D01*
X0029810Y0198417D02*
X0009600Y0198417D01*
X0009600Y0200015D02*
X0029288Y0200015D01*
X0029367Y0201614D02*
X0009600Y0201614D01*
X0009600Y0203212D02*
X0030133Y0203212D01*
X0030709Y0204811D02*
X0009600Y0204811D01*
X0009600Y0206409D02*
X0029972Y0206409D01*
X0029913Y0208008D02*
X0009600Y0208008D01*
X0009600Y0209606D02*
X0030455Y0209606D01*
X0030574Y0211205D02*
X0009600Y0211205D01*
X0009600Y0212803D02*
X0029913Y0212803D01*
X0029913Y0214402D02*
X0009600Y0214402D01*
X0009600Y0216001D02*
X0030514Y0216001D01*
X0032309Y0217599D02*
X0009600Y0217599D01*
X0009600Y0219198D02*
X0254000Y0219198D01*
X0254000Y0220796D02*
X0009600Y0220796D01*
X0009600Y0222395D02*
X0254000Y0222395D01*
X0254000Y0223993D02*
X0009600Y0223993D01*
X0009600Y0225592D02*
X0254000Y0225592D01*
X0254000Y0227190D02*
X0009600Y0227190D01*
X0009600Y0228789D02*
X0254000Y0228789D01*
X0254000Y0230387D02*
X0009600Y0230387D01*
X0009600Y0231986D02*
X0254000Y0231986D01*
X0254000Y0233584D02*
X0009600Y0233584D01*
X0009600Y0235183D02*
X0254000Y0235183D01*
X0253909Y0236781D02*
X0009691Y0236781D01*
X0010174Y0238380D02*
X0253426Y0238380D01*
X0252684Y0239978D02*
X0010916Y0239978D01*
X0012098Y0241577D02*
X0251502Y0241577D01*
X0249152Y0243175D02*
X0014448Y0243175D01*
X0036291Y0217599D02*
X0254000Y0217599D01*
X0254000Y0216001D02*
X0217266Y0216001D01*
X0218865Y0214402D02*
X0254000Y0214402D01*
X0254000Y0212803D02*
X0220463Y0212803D01*
X0222062Y0211205D02*
X0254000Y0211205D01*
X0254000Y0209606D02*
X0223660Y0209606D01*
X0225259Y0208008D02*
X0254000Y0208008D01*
X0254000Y0206409D02*
X0226857Y0206409D01*
X0228456Y0204811D02*
X0254000Y0204811D01*
X0254000Y0203212D02*
X0230054Y0203212D01*
X0231653Y0201614D02*
X0254000Y0201614D01*
X0254000Y0200015D02*
X0233251Y0200015D01*
X0234850Y0198417D02*
X0254000Y0198417D01*
X0254000Y0196818D02*
X0236448Y0196818D01*
X0238047Y0195220D02*
X0254000Y0195220D01*
X0254000Y0193621D02*
X0239646Y0193621D01*
X0241244Y0192023D02*
X0254000Y0192023D01*
X0254000Y0190424D02*
X0242772Y0190424D01*
X0243225Y0188826D02*
X0254000Y0188826D01*
X0254000Y0187227D02*
X0243225Y0187227D01*
X0243225Y0185629D02*
X0254000Y0185629D01*
X0254000Y0184030D02*
X0243225Y0184030D01*
X0243225Y0182432D02*
X0254000Y0182432D01*
X0254000Y0180833D02*
X0243225Y0180833D01*
X0243225Y0179235D02*
X0254000Y0179235D01*
X0254000Y0177636D02*
X0243225Y0177636D01*
X0243225Y0176038D02*
X0254000Y0176038D01*
X0254000Y0174439D02*
X0243225Y0174439D01*
X0243225Y0172841D02*
X0254000Y0172841D01*
X0254000Y0171242D02*
X0243225Y0171242D01*
X0243225Y0169644D02*
X0254000Y0169644D01*
X0254000Y0168045D02*
X0243225Y0168045D01*
X0243225Y0166447D02*
X0254000Y0166447D01*
X0254000Y0164848D02*
X0243225Y0164848D01*
X0243225Y0163250D02*
X0254000Y0163250D01*
X0254000Y0161651D02*
X0243225Y0161651D01*
X0243225Y0160053D02*
X0254000Y0160053D01*
X0254000Y0158454D02*
X0243225Y0158454D01*
X0243225Y0156856D02*
X0254000Y0156856D01*
X0254000Y0155257D02*
X0243225Y0155257D01*
X0243225Y0153659D02*
X0254000Y0153659D01*
X0254000Y0152060D02*
X0243225Y0152060D01*
X0243225Y0150462D02*
X0254000Y0150462D01*
X0254000Y0148863D02*
X0243225Y0148863D01*
X0243225Y0147265D02*
X0254000Y0147265D01*
X0254000Y0145666D02*
X0243225Y0145666D01*
X0243225Y0144068D02*
X0254000Y0144068D01*
X0254000Y0142469D02*
X0243225Y0142469D01*
X0243225Y0140870D02*
X0254000Y0140870D01*
X0254000Y0139272D02*
X0243225Y0139272D01*
X0243225Y0137673D02*
X0254000Y0137673D01*
X0254000Y0136075D02*
X0243225Y0136075D01*
X0243225Y0134476D02*
X0254000Y0134476D01*
X0254000Y0132878D02*
X0243167Y0132878D01*
X0242196Y0131279D02*
X0254000Y0131279D01*
X0254000Y0129681D02*
X0240598Y0129681D01*
X0238999Y0128082D02*
X0254000Y0128082D01*
X0254000Y0126484D02*
X0237401Y0126484D01*
X0235802Y0124885D02*
X0254000Y0124885D01*
X0254000Y0123287D02*
X0234204Y0123287D01*
X0232605Y0121688D02*
X0254000Y0121688D01*
X0254000Y0120090D02*
X0230568Y0120090D01*
X0225515Y0118491D02*
X0254000Y0118491D01*
X0254000Y0116893D02*
X0225342Y0116893D01*
X0214838Y0114780D02*
X0214404Y0113730D01*
X0214404Y0112192D01*
X0214615Y0111682D01*
X0214404Y0111171D01*
X0214404Y0109633D01*
X0214615Y0109123D01*
X0214404Y0108612D01*
X0214404Y0107074D01*
X0214615Y0106564D01*
X0214404Y0106053D01*
X0214404Y0104515D01*
X0214615Y0104005D01*
X0214404Y0103494D01*
X0214404Y0101956D01*
X0214615Y0101446D01*
X0214404Y0100935D01*
X0214404Y0099397D01*
X0214615Y0098887D01*
X0214404Y0098376D01*
X0214404Y0096838D01*
X0214615Y0096328D01*
X0214404Y0095817D01*
X0214404Y0094279D01*
X0214615Y0093768D01*
X0214404Y0093258D01*
X0214404Y0091720D01*
X0214704Y0090996D01*
X0214675Y0091007D01*
X0213137Y0091007D01*
X0212627Y0090796D01*
X0212116Y0091007D01*
X0211953Y0091007D01*
X0212437Y0092177D01*
X0212437Y0093923D01*
X0211769Y0095535D01*
X0210535Y0096769D01*
X0208923Y0097437D01*
X0207177Y0097437D01*
X0205565Y0096769D01*
X0204331Y0095535D01*
X0203663Y0093923D01*
X0203663Y0093329D01*
X0203432Y0093098D01*
X0202929Y0091886D01*
X0202929Y0090573D01*
X0201880Y0091007D01*
X0200342Y0091007D01*
X0199831Y0090796D01*
X0199321Y0091007D01*
X0197783Y0091007D01*
X0197272Y0090796D01*
X0196762Y0091007D01*
X0195224Y0091007D01*
X0194713Y0090796D01*
X0194203Y0091007D01*
X0192665Y0091007D01*
X0191616Y0090573D01*
X0191616Y0092191D01*
X0191187Y0093225D01*
X0191187Y0093923D01*
X0190519Y0095535D01*
X0189285Y0096769D01*
X0187673Y0097437D01*
X0185927Y0097437D01*
X0184315Y0096769D01*
X0183081Y0095535D01*
X0182413Y0093923D01*
X0182413Y0092177D01*
X0182897Y0091007D01*
X0182429Y0091007D01*
X0181226Y0090509D01*
X0180724Y0090007D01*
X0180639Y0090007D01*
X0180639Y0089922D01*
X0180639Y0089922D01*
X0180639Y0089922D01*
X0180639Y0090007D01*
X0180553Y0090007D01*
X0180258Y0090303D01*
X0180519Y0090565D01*
X0181187Y0092177D01*
X0181187Y0093923D01*
X0180519Y0095535D01*
X0179285Y0096769D01*
X0177673Y0097437D01*
X0175927Y0097437D01*
X0175809Y0097388D01*
X0175759Y0097508D01*
X0175100Y0098167D01*
X0175100Y0098895D01*
X0175519Y0099315D01*
X0176187Y0100927D01*
X0176187Y0102673D01*
X0175519Y0104285D01*
X0174285Y0105519D01*
X0172673Y0106187D01*
X0170927Y0106187D01*
X0169315Y0105519D01*
X0168081Y0104285D01*
X0167413Y0102673D01*
X0167413Y0100927D01*
X0168081Y0099315D01*
X0168500Y0098895D01*
X0168500Y0097095D01*
X0167673Y0097437D01*
X0165927Y0097437D01*
X0164315Y0096769D01*
X0163081Y0095535D01*
X0162413Y0093923D01*
X0162413Y0093225D01*
X0161984Y0092191D01*
X0161984Y0090573D01*
X0160935Y0091007D01*
X0159397Y0091007D01*
X0158887Y0090796D01*
X0158376Y0091007D01*
X0156838Y0091007D01*
X0156328Y0090796D01*
X0155817Y0091007D01*
X0154279Y0091007D01*
X0153769Y0090796D01*
X0153258Y0091007D01*
X0151720Y0091007D01*
X0150671Y0090573D01*
X0150671Y0092511D01*
X0150562Y0092772D01*
X0150562Y0093923D01*
X0149894Y0095535D01*
X0148660Y0096769D01*
X0147048Y0097437D01*
X0145302Y0097437D01*
X0143690Y0096769D01*
X0142456Y0095535D01*
X0141788Y0093923D01*
X0141788Y0092177D01*
X0142272Y0091007D01*
X0141484Y0091007D01*
X0140973Y0090796D01*
X0140463Y0091007D01*
X0138925Y0091007D01*
X0138896Y0090996D01*
X0139196Y0091720D01*
X0139196Y0093258D01*
X0138985Y0093769D01*
X0139196Y0094279D01*
X0139196Y0095817D01*
X0138985Y0096328D01*
X0139196Y0096838D01*
X0139196Y0098376D01*
X0138985Y0098887D01*
X0139196Y0099397D01*
X0139196Y0100935D01*
X0138985Y0101446D01*
X0139196Y0101956D01*
X0139196Y0103494D01*
X0138985Y0104005D01*
X0139196Y0104515D01*
X0139196Y0106053D01*
X0138985Y0106564D01*
X0139196Y0107074D01*
X0139196Y0108612D01*
X0138985Y0109123D01*
X0139196Y0109633D01*
X0139196Y0110699D01*
X0139315Y0110581D01*
X0140927Y0109913D01*
X0142673Y0109913D01*
X0144285Y0110581D01*
X0145519Y0111815D01*
X0146187Y0113427D01*
X0146187Y0115173D01*
X0145519Y0116785D01*
X0144285Y0118019D01*
X0142673Y0118687D01*
X0141557Y0118687D01*
X0141236Y0118820D01*
X0138762Y0118820D01*
X0139196Y0119870D01*
X0139196Y0121408D01*
X0138985Y0121918D01*
X0139196Y0122429D01*
X0139196Y0123967D01*
X0138985Y0124477D01*
X0139196Y0124988D01*
X0139196Y0126526D01*
X0138985Y0127036D01*
X0139196Y0127547D01*
X0139196Y0129085D01*
X0138985Y0129595D01*
X0139196Y0130106D01*
X0139196Y0131644D01*
X0138985Y0132154D01*
X0139196Y0132665D01*
X0139196Y0134203D01*
X0138985Y0134713D01*
X0139196Y0135224D01*
X0139196Y0136762D01*
X0138985Y0137272D01*
X0139196Y0137783D01*
X0139196Y0139321D01*
X0138985Y0139831D01*
X0139196Y0140342D01*
X0139196Y0141880D01*
X0138896Y0142604D01*
X0138925Y0142593D01*
X0140463Y0142593D01*
X0140973Y0142804D01*
X0141484Y0142593D01*
X0141647Y0142593D01*
X0141163Y0141423D01*
X0141163Y0139677D01*
X0141831Y0138065D01*
X0143065Y0136831D01*
X0144677Y0136163D01*
X0146423Y0136163D01*
X0148035Y0136831D01*
X0149269Y0138065D01*
X0149937Y0139677D01*
X0149937Y0140270D01*
X0150168Y0140502D01*
X0150671Y0141714D01*
X0150671Y0143027D01*
X0151720Y0142593D01*
X0153258Y0142593D01*
X0153769Y0142804D01*
X0154279Y0142593D01*
X0155817Y0142593D01*
X0156328Y0142804D01*
X0156838Y0142593D01*
X0158376Y0142593D01*
X0158887Y0142804D01*
X0159397Y0142593D01*
X0160935Y0142593D01*
X0161984Y0143027D01*
X0161984Y0141409D01*
X0162413Y0140375D01*
X0162413Y0139677D01*
X0163081Y0138065D01*
X0164315Y0136831D01*
X0165927Y0136163D01*
X0167673Y0136163D01*
X0169285Y0136831D01*
X0170519Y0138065D01*
X0171187Y0139677D01*
X0171187Y0141423D01*
X0170703Y0142593D01*
X0171171Y0142593D01*
X0172374Y0143091D01*
X0172876Y0143593D01*
X0172961Y0143593D01*
X0172961Y0143678D01*
X0172961Y0143678D01*
X0172961Y0143678D01*
X0172961Y0143593D01*
X0173047Y0143593D01*
X0173549Y0143091D01*
X0174751Y0142593D01*
X0174780Y0142593D01*
X0174780Y0141739D01*
X0175282Y0140526D01*
X0175538Y0140270D01*
X0175538Y0139677D01*
X0176206Y0138065D01*
X0176625Y0137645D01*
X0176625Y0128019D01*
X0177127Y0126806D01*
X0178500Y0125433D01*
X0178500Y0124705D01*
X0178081Y0124285D01*
X0177413Y0122673D01*
X0177413Y0120927D01*
X0178081Y0119315D01*
X0179315Y0118081D01*
X0180927Y0117413D01*
X0182673Y0117413D01*
X0184285Y0118081D01*
X0185519Y0119315D01*
X0186187Y0120927D01*
X0186187Y0122673D01*
X0185519Y0124285D01*
X0185100Y0124705D01*
X0185100Y0127456D01*
X0184598Y0128669D01*
X0183225Y0130042D01*
X0183225Y0137645D01*
X0183362Y0137783D01*
X0184315Y0136831D01*
X0185927Y0136163D01*
X0187673Y0136163D01*
X0189285Y0136831D01*
X0190519Y0138065D01*
X0191187Y0139677D01*
X0191187Y0140375D01*
X0191616Y0141409D01*
X0191616Y0143027D01*
X0192665Y0142593D01*
X0194203Y0142593D01*
X0194713Y0142804D01*
X0195224Y0142593D01*
X0196762Y0142593D01*
X0197272Y0142804D01*
X0197783Y0142593D01*
X0199321Y0142593D01*
X0199831Y0142804D01*
X0200342Y0142593D01*
X0201880Y0142593D01*
X0202929Y0143027D01*
X0202929Y0142670D01*
X0202413Y0141423D01*
X0202413Y0139677D01*
X0203081Y0138065D01*
X0204315Y0136831D01*
X0205927Y0136163D01*
X0207673Y0136163D01*
X0209285Y0136831D01*
X0210519Y0138065D01*
X0211187Y0139677D01*
X0211187Y0141423D01*
X0210703Y0142593D01*
X0212116Y0142593D01*
X0212627Y0142804D01*
X0213137Y0142593D01*
X0214675Y0142593D01*
X0214703Y0142604D01*
X0214404Y0141880D01*
X0214404Y0140342D01*
X0214615Y0139831D01*
X0214404Y0139321D01*
X0214404Y0137783D01*
X0214902Y0136580D01*
X0215404Y0136078D01*
X0215404Y0135993D01*
X0215489Y0135993D01*
X0215489Y0135993D01*
X0215489Y0135993D01*
X0215404Y0135993D01*
X0215404Y0135907D01*
X0214902Y0135406D01*
X0214404Y0134203D01*
X0214404Y0132665D01*
X0214615Y0132154D01*
X0214404Y0131644D01*
X0214404Y0130106D01*
X0214615Y0129595D01*
X0214404Y0129085D01*
X0214404Y0127547D01*
X0214615Y0127036D01*
X0214404Y0126526D01*
X0214404Y0124988D01*
X0214615Y0124477D01*
X0214404Y0123967D01*
X0214404Y0122901D01*
X0214285Y0123019D01*
X0212673Y0123687D01*
X0210927Y0123687D01*
X0209315Y0123019D01*
X0208081Y0121785D01*
X0207413Y0120173D01*
X0207413Y0118427D01*
X0208081Y0116815D01*
X0209315Y0115581D01*
X0210927Y0114913D01*
X0212043Y0114913D01*
X0212364Y0114780D01*
X0214838Y0114780D01*
X0214404Y0113696D02*
X0146187Y0113696D01*
X0146137Y0115294D02*
X0210006Y0115294D01*
X0208048Y0116893D02*
X0145412Y0116893D01*
X0143146Y0118491D02*
X0178904Y0118491D01*
X0177759Y0120090D02*
X0139196Y0120090D01*
X0139080Y0121688D02*
X0177413Y0121688D01*
X0177667Y0123287D02*
X0139196Y0123287D01*
X0139154Y0124885D02*
X0178500Y0124885D01*
X0177449Y0126484D02*
X0139196Y0126484D01*
X0139196Y0128082D02*
X0176625Y0128082D01*
X0176625Y0129681D02*
X0139020Y0129681D01*
X0139196Y0131279D02*
X0176625Y0131279D01*
X0176625Y0132878D02*
X0139196Y0132878D01*
X0139083Y0134476D02*
X0176625Y0134476D01*
X0176625Y0136075D02*
X0139196Y0136075D01*
X0139151Y0137673D02*
X0142222Y0137673D01*
X0141330Y0139272D02*
X0139196Y0139272D01*
X0139196Y0140870D02*
X0141163Y0140870D01*
X0141596Y0142469D02*
X0138952Y0142469D01*
X0136603Y0144490D02*
X0136303Y0145214D01*
X0136303Y0150130D01*
X0126058Y0160375D01*
X0119269Y0160375D01*
X0118056Y0160877D01*
X0117127Y0161806D01*
X0116520Y0162413D01*
X0116187Y0162413D01*
X0116187Y0160927D01*
X0115519Y0159315D01*
X0114285Y0158081D01*
X0112673Y0157413D01*
X0110927Y0157413D01*
X0110803Y0157464D01*
X0118531Y0149736D01*
X0119315Y0150519D01*
X0120927Y0151187D01*
X0122673Y0151187D01*
X0124285Y0150519D01*
X0125519Y0149285D01*
X0126187Y0147673D01*
X0126187Y0147079D01*
X0128856Y0144411D01*
X0130488Y0144411D01*
X0130706Y0144502D01*
X0136575Y0144502D01*
X0136603Y0144490D01*
X0136303Y0145666D02*
X0127601Y0145666D01*
X0126187Y0147265D02*
X0136303Y0147265D01*
X0136303Y0148863D02*
X0125694Y0148863D01*
X0124343Y0150462D02*
X0135972Y0150462D01*
X0134373Y0152060D02*
X0116207Y0152060D01*
X0117805Y0150462D02*
X0119257Y0150462D01*
X0114608Y0153659D02*
X0132775Y0153659D01*
X0131176Y0155257D02*
X0113010Y0155257D01*
X0111411Y0156856D02*
X0129577Y0156856D01*
X0127979Y0158454D02*
X0114659Y0158454D01*
X0115825Y0160053D02*
X0126380Y0160053D01*
X0135222Y0168045D02*
X0144400Y0168045D01*
X0144315Y0168081D02*
X0145927Y0167413D01*
X0146520Y0167413D01*
X0147321Y0166612D01*
X0146470Y0166612D01*
X0146012Y0166489D01*
X0145601Y0166252D01*
X0145266Y0165917D01*
X0145029Y0165507D01*
X0144906Y0165049D01*
X0144906Y0162831D01*
X0148491Y0162831D01*
X0148491Y0162462D01*
X0144906Y0162462D01*
X0144906Y0160279D01*
X0144333Y0159705D01*
X0144107Y0159160D01*
X0129142Y0174125D01*
X0143014Y0174125D01*
X0142413Y0172673D01*
X0142413Y0170927D01*
X0143081Y0169315D01*
X0144315Y0168081D01*
X0142944Y0169644D02*
X0133623Y0169644D01*
X0132025Y0171242D02*
X0142413Y0171242D01*
X0142482Y0172841D02*
X0130426Y0172841D01*
X0136820Y0166447D02*
X0145938Y0166447D01*
X0144906Y0164848D02*
X0138419Y0164848D01*
X0140017Y0163250D02*
X0144906Y0163250D01*
X0144906Y0161651D02*
X0141616Y0161651D01*
X0143214Y0160053D02*
X0144680Y0160053D01*
X0150671Y0142469D02*
X0161984Y0142469D01*
X0162207Y0140870D02*
X0150321Y0140870D01*
X0149770Y0139272D02*
X0162580Y0139272D01*
X0163472Y0137673D02*
X0148878Y0137673D01*
X0170128Y0137673D02*
X0176597Y0137673D01*
X0175705Y0139272D02*
X0171020Y0139272D01*
X0171187Y0140870D02*
X0175139Y0140870D01*
X0174780Y0142469D02*
X0170754Y0142469D01*
X0183253Y0137673D02*
X0183472Y0137673D01*
X0183225Y0136075D02*
X0215404Y0136075D01*
X0214517Y0134476D02*
X0183225Y0134476D01*
X0183225Y0132878D02*
X0214404Y0132878D01*
X0214404Y0131279D02*
X0183225Y0131279D01*
X0183586Y0129681D02*
X0214580Y0129681D01*
X0214404Y0128082D02*
X0184841Y0128082D01*
X0185100Y0126484D02*
X0214404Y0126484D01*
X0214446Y0124885D02*
X0185100Y0124885D01*
X0185933Y0123287D02*
X0209960Y0123287D01*
X0208040Y0121688D02*
X0186187Y0121688D01*
X0185841Y0120090D02*
X0207413Y0120090D01*
X0207413Y0118491D02*
X0184696Y0118491D01*
X0173842Y0105703D02*
X0214404Y0105703D01*
X0214404Y0107302D02*
X0139196Y0107302D01*
X0139196Y0105703D02*
X0169758Y0105703D01*
X0168006Y0104105D02*
X0139026Y0104105D01*
X0139196Y0102506D02*
X0167413Y0102506D01*
X0167421Y0100908D02*
X0139196Y0100908D01*
X0139160Y0099309D02*
X0168086Y0099309D01*
X0168500Y0097711D02*
X0139196Y0097711D01*
X0139074Y0096112D02*
X0143032Y0096112D01*
X0142032Y0094514D02*
X0139196Y0094514D01*
X0139196Y0092915D02*
X0141788Y0092915D01*
X0142144Y0091317D02*
X0139029Y0091317D01*
X0149318Y0096112D02*
X0163657Y0096112D01*
X0162657Y0094514D02*
X0150318Y0094514D01*
X0150562Y0092915D02*
X0162284Y0092915D01*
X0161984Y0091317D02*
X0150671Y0091317D01*
X0144088Y0110499D02*
X0214404Y0110499D01*
X0214443Y0112097D02*
X0145636Y0112097D01*
X0139512Y0110499D02*
X0139196Y0110499D01*
X0139077Y0108900D02*
X0214523Y0108900D01*
X0214574Y0104105D02*
X0175594Y0104105D01*
X0176187Y0102506D02*
X0214404Y0102506D01*
X0214404Y0100908D02*
X0176179Y0100908D01*
X0175514Y0099309D02*
X0214440Y0099309D01*
X0214404Y0097711D02*
X0175556Y0097711D01*
X0179943Y0096112D02*
X0183657Y0096112D01*
X0182657Y0094514D02*
X0180943Y0094514D01*
X0181187Y0092915D02*
X0182413Y0092915D01*
X0182769Y0091317D02*
X0180831Y0091317D01*
X0189943Y0096112D02*
X0204907Y0096112D01*
X0203907Y0094514D02*
X0190943Y0094514D01*
X0191316Y0092915D02*
X0203356Y0092915D01*
X0202929Y0091317D02*
X0191616Y0091317D01*
X0211193Y0096112D02*
X0214526Y0096112D01*
X0214404Y0094514D02*
X0212193Y0094514D01*
X0212437Y0092915D02*
X0214404Y0092915D01*
X0214571Y0091317D02*
X0212081Y0091317D01*
X0242973Y0115294D02*
X0254000Y0115294D01*
X0254000Y0113696D02*
X0244571Y0113696D01*
X0246170Y0112097D02*
X0254000Y0112097D01*
X0254000Y0110499D02*
X0247768Y0110499D01*
X0249367Y0108900D02*
X0254000Y0108900D01*
X0254000Y0107302D02*
X0250100Y0107302D01*
X0250100Y0105703D02*
X0254000Y0105703D01*
X0254000Y0104105D02*
X0250100Y0104105D01*
X0250100Y0102506D02*
X0254000Y0102506D01*
X0254000Y0100908D02*
X0250100Y0100908D01*
X0250100Y0099309D02*
X0254000Y0099309D01*
X0254000Y0097711D02*
X0250100Y0097711D01*
X0250100Y0096112D02*
X0254000Y0096112D01*
X0254000Y0094514D02*
X0250100Y0094514D01*
X0250100Y0092915D02*
X0254000Y0092915D01*
X0254000Y0091317D02*
X0250100Y0091317D01*
X0250100Y0089718D02*
X0254000Y0089718D01*
X0254000Y0088120D02*
X0250100Y0088120D01*
X0250100Y0086521D02*
X0254000Y0086521D01*
X0254000Y0084923D02*
X0250100Y0084923D01*
X0250100Y0083324D02*
X0254000Y0083324D01*
X0254000Y0081726D02*
X0250100Y0081726D01*
X0250100Y0080127D02*
X0254000Y0080127D01*
X0254000Y0078529D02*
X0250100Y0078529D01*
X0250100Y0076930D02*
X0254000Y0076930D01*
X0254000Y0075332D02*
X0250100Y0075332D01*
X0250100Y0073733D02*
X0254000Y0073733D01*
X0254000Y0072134D02*
X0250100Y0072134D01*
X0249848Y0070536D02*
X0254000Y0070536D01*
X0254000Y0068937D02*
X0248604Y0068937D01*
X0247006Y0067339D02*
X0254000Y0067339D01*
X0254000Y0065740D02*
X0245407Y0065740D01*
X0243809Y0064142D02*
X0254000Y0064142D01*
X0254000Y0062543D02*
X0242210Y0062543D01*
X0240612Y0060945D02*
X0254000Y0060945D01*
X0254000Y0059346D02*
X0239013Y0059346D01*
X0237415Y0057748D02*
X0254000Y0057748D01*
X0254000Y0056149D02*
X0235816Y0056149D01*
X0234218Y0054551D02*
X0254000Y0054551D01*
X0254000Y0052952D02*
X0232619Y0052952D01*
X0231021Y0051354D02*
X0254000Y0051354D01*
X0254000Y0049755D02*
X0229422Y0049755D01*
X0227824Y0048157D02*
X0254000Y0048157D01*
X0254000Y0046558D02*
X0226225Y0046558D01*
X0224627Y0044960D02*
X0254000Y0044960D01*
X0254000Y0043361D02*
X0223028Y0043361D01*
X0221430Y0041763D02*
X0254000Y0041763D01*
X0254000Y0040164D02*
X0219831Y0040164D01*
X0218233Y0038566D02*
X0254000Y0038566D01*
X0254000Y0036967D02*
X0216634Y0036967D01*
X0215036Y0035369D02*
X0254000Y0035369D01*
X0254000Y0033770D02*
X0213437Y0033770D01*
X0211839Y0032172D02*
X0254000Y0032172D01*
X0254000Y0030573D02*
X0210240Y0030573D01*
X0208602Y0028975D02*
X0254000Y0028975D01*
X0254000Y0027376D02*
X0173816Y0027376D01*
X0247835Y0004997D02*
X0015765Y0004997D01*
X0012686Y0006596D02*
X0250914Y0006596D01*
X0252373Y0008194D02*
X0011227Y0008194D01*
X0010313Y0009793D02*
X0253287Y0009793D01*
X0254000Y0017785D02*
X0039234Y0017785D01*
X0040465Y0019384D02*
X0254000Y0019384D01*
X0254000Y0020982D02*
X0041050Y0020982D01*
X0041050Y0022581D02*
X0254000Y0022581D01*
X0254000Y0024179D02*
X0040563Y0024179D01*
X0039471Y0025778D02*
X0254000Y0025778D01*
X0214404Y0123287D02*
X0213640Y0123287D01*
X0214449Y0137673D02*
X0210128Y0137673D01*
X0211020Y0139272D02*
X0214404Y0139272D01*
X0214404Y0140870D02*
X0211187Y0140870D01*
X0210754Y0142469D02*
X0214648Y0142469D01*
X0202846Y0142469D02*
X0191616Y0142469D01*
X0191393Y0140870D02*
X0202413Y0140870D01*
X0202580Y0139272D02*
X0191020Y0139272D01*
X0190128Y0137673D02*
X0203472Y0137673D01*
X0204741Y0162831D02*
X0204741Y0166612D01*
X0204411Y0166612D01*
X0204411Y0174522D01*
X0205488Y0173445D01*
X0205488Y0166612D01*
X0205109Y0166612D01*
X0205109Y0162831D01*
X0204741Y0162831D01*
X0204741Y0163250D02*
X0205109Y0163250D01*
X0205109Y0164848D02*
X0204741Y0164848D01*
X0204741Y0166447D02*
X0205109Y0166447D01*
X0205488Y0168045D02*
X0204411Y0168045D01*
X0204411Y0169644D02*
X0205488Y0169644D01*
X0205488Y0171242D02*
X0204411Y0171242D01*
X0204411Y0172841D02*
X0205488Y0172841D01*
X0204494Y0174439D02*
X0204411Y0174439D01*
X0190134Y0168799D02*
X0190134Y0165987D01*
X0189484Y0165987D01*
X0189484Y0162206D01*
X0189116Y0162206D01*
X0189116Y0165987D01*
X0189057Y0165987D01*
X0189057Y0169876D01*
X0190134Y0168799D01*
X0190134Y0168045D02*
X0189057Y0168045D01*
X0189057Y0166447D02*
X0190134Y0166447D01*
X0189484Y0164848D02*
X0189116Y0164848D01*
X0189116Y0163250D02*
X0189484Y0163250D01*
X0189289Y0169644D02*
X0189057Y0169644D01*
X0179898Y0169035D02*
X0179898Y0159937D01*
X0179068Y0159937D01*
X0179068Y0160551D01*
X0178642Y0161580D01*
X0178068Y0162154D01*
X0178068Y0164337D01*
X0174484Y0164337D01*
X0174484Y0164706D01*
X0174116Y0164706D01*
X0174116Y0168487D01*
X0173702Y0168487D01*
X0173702Y0173693D01*
X0174315Y0173081D01*
X0175927Y0172413D01*
X0176520Y0172413D01*
X0179898Y0169035D01*
X0179289Y0169644D02*
X0173702Y0169644D01*
X0174484Y0168487D02*
X0174484Y0164706D01*
X0178068Y0164706D01*
X0178068Y0166924D01*
X0177946Y0167382D01*
X0177709Y0167792D01*
X0177374Y0168127D01*
X0176963Y0168364D01*
X0176505Y0168487D01*
X0174484Y0168487D01*
X0174484Y0168045D02*
X0174116Y0168045D01*
X0174116Y0166447D02*
X0174484Y0166447D01*
X0174484Y0164848D02*
X0174116Y0164848D01*
X0177456Y0168045D02*
X0179898Y0168045D01*
X0179898Y0166447D02*
X0178068Y0166447D01*
X0178068Y0164848D02*
X0179898Y0164848D01*
X0179898Y0163250D02*
X0178068Y0163250D01*
X0178571Y0161651D02*
X0179898Y0161651D01*
X0179898Y0160053D02*
X0179068Y0160053D01*
X0177691Y0171242D02*
X0173702Y0171242D01*
X0173702Y0172841D02*
X0174894Y0172841D01*
X0164543Y0172841D02*
X0163466Y0172841D01*
X0163466Y0174090D02*
X0163063Y0175063D01*
X0163427Y0174913D01*
X0164020Y0174913D01*
X0164543Y0174390D01*
X0164543Y0168487D01*
X0164172Y0168487D01*
X0164172Y0164706D01*
X0163803Y0164706D01*
X0163803Y0168487D01*
X0163466Y0168487D01*
X0163466Y0174090D01*
X0163322Y0174439D02*
X0164494Y0174439D01*
X0164543Y0171242D02*
X0163466Y0171242D01*
X0163466Y0169644D02*
X0164543Y0169644D01*
X0164172Y0168045D02*
X0163803Y0168045D01*
X0163803Y0166447D02*
X0164172Y0166447D01*
X0164172Y0164848D02*
X0163803Y0164848D01*
X0117282Y0161651D02*
X0116187Y0161651D01*
X0048265Y0062543D02*
X0038748Y0062543D01*
X0035133Y0060945D02*
X0049863Y0060945D01*
X0052375Y0046558D02*
X0036513Y0046558D01*
D17*
X0033675Y0049925D02*
X0053675Y0049925D01*
X0066800Y0036800D01*
X0206800Y0036800D01*
X0241800Y0071800D01*
X0241800Y0101800D01*
X0235757Y0107843D01*
X0219959Y0107843D01*
X0219959Y0105284D02*
X0233316Y0105284D01*
X0236800Y0101800D01*
X0236800Y0096800D02*
X0236800Y0071800D01*
X0204300Y0039300D01*
X0069300Y0039300D01*
X0055550Y0053050D01*
X0036800Y0053050D01*
X0033675Y0056800D02*
X0055550Y0056800D01*
X0070550Y0041800D01*
X0201800Y0041800D01*
X0229925Y0069925D01*
X0229925Y0091800D01*
X0224118Y0097607D01*
X0219959Y0097607D01*
X0219959Y0095048D02*
X0223552Y0095048D01*
X0226800Y0091800D01*
X0226800Y0076800D01*
X0213906Y0068906D02*
X0213906Y0085452D01*
X0211347Y0085452D02*
X0211347Y0071347D01*
X0191800Y0051800D01*
X0186800Y0056800D02*
X0201111Y0071111D01*
X0201111Y0085452D01*
X0198552Y0085452D02*
X0198552Y0073552D01*
X0174925Y0049925D01*
X0071800Y0049925D01*
X0047425Y0074300D01*
X0036800Y0074300D01*
X0034925Y0078050D02*
X0047425Y0078050D01*
X0072425Y0053050D01*
X0168050Y0053050D01*
X0193434Y0078434D01*
X0193434Y0085452D01*
X0195993Y0085452D02*
X0195993Y0075993D01*
X0181800Y0061800D01*
X0171800Y0061800D02*
X0185757Y0075757D01*
X0185757Y0085452D01*
X0188316Y0085452D02*
X0188316Y0091534D01*
X0186800Y0093050D01*
X0190875Y0097125D02*
X0191800Y0098050D01*
X0190875Y0097125D02*
X0190875Y0085452D01*
X0183198Y0085452D02*
X0183198Y0078198D01*
X0160550Y0055550D01*
X0073050Y0055550D01*
X0046175Y0082425D01*
X0036800Y0082425D01*
X0033675Y0085550D02*
X0046175Y0085550D01*
X0073050Y0058675D01*
X0158675Y0058675D01*
X0170402Y0070402D01*
X0170402Y0085452D01*
X0167843Y0085452D02*
X0167843Y0072843D01*
X0156800Y0061800D01*
X0086800Y0061800D01*
X0095550Y0074925D02*
X0088675Y0081800D01*
X0084925Y0081800D01*
X0081800Y0091800D02*
X0096175Y0077425D01*
X0140550Y0077425D01*
X0144812Y0081687D01*
X0144812Y0085452D01*
X0147371Y0085452D02*
X0147371Y0091854D01*
X0146175Y0093050D01*
X0149930Y0096180D02*
X0151800Y0098050D01*
X0149930Y0096180D02*
X0149930Y0085452D01*
X0152489Y0085452D02*
X0152489Y0081239D01*
X0146175Y0074925D01*
X0095550Y0074925D01*
X0094925Y0084925D02*
X0118675Y0084925D01*
X0123050Y0080550D01*
X0140550Y0080550D01*
X0142253Y0082253D01*
X0142253Y0085452D01*
X0139694Y0085452D02*
X0123148Y0085452D01*
X0119925Y0088675D01*
X0098675Y0088675D01*
X0106800Y0096800D02*
X0107607Y0097607D01*
X0133641Y0097607D01*
X0133641Y0095048D02*
X0110673Y0095048D01*
X0109300Y0093675D01*
X0058050Y0093675D01*
X0048675Y0103050D01*
X0036800Y0103050D01*
X0038050Y0103050D01*
X0033675Y0106175D02*
X0048675Y0106175D01*
X0056175Y0098675D01*
X0101800Y0098675D01*
X0103291Y0100166D01*
X0133641Y0100166D01*
X0133641Y0102725D02*
X0102725Y0102725D01*
X0101800Y0101800D01*
X0096800Y0101800D01*
X0097425Y0107425D02*
X0101800Y0111800D01*
X0111800Y0111800D01*
X0113198Y0110402D01*
X0133641Y0110402D01*
X0133641Y0107843D02*
X0110343Y0107843D01*
X0109512Y0108675D01*
X0106800Y0108675D01*
X0097425Y0107425D02*
X0054300Y0107425D01*
X0048050Y0113675D01*
X0034300Y0113675D01*
X0036800Y0109300D02*
X0049300Y0109300D01*
X0053316Y0105284D01*
X0133641Y0105284D01*
X0133641Y0115520D02*
X0140580Y0115520D01*
X0141800Y0114300D01*
X0143080Y0118080D02*
X0146800Y0121800D01*
X0143080Y0118080D02*
X0133641Y0118080D01*
X0130520Y0118080D01*
X0126800Y0121800D01*
X0111800Y0121800D01*
X0101800Y0121800D01*
X0100146Y0120146D01*
X0084300Y0120146D01*
X0078050Y0120146D01*
X0077829Y0113675D02*
X0078050Y0113454D01*
X0091800Y0126175D02*
X0091800Y0129925D01*
X0089925Y0131800D01*
X0085540Y0131800D01*
X0076800Y0141800D02*
X0071800Y0146800D01*
X0016800Y0146800D01*
X0034300Y0163050D02*
X0090550Y0163050D01*
X0120166Y0133434D01*
X0133641Y0133434D01*
X0133641Y0135993D02*
X0122607Y0135993D01*
X0116800Y0141800D01*
X0111800Y0136800D02*
X0117725Y0130875D01*
X0133641Y0130875D01*
X0133641Y0128316D02*
X0115284Y0128316D01*
X0086800Y0156800D01*
X0036800Y0156800D01*
X0037425Y0166175D02*
X0097425Y0166175D01*
X0125048Y0138552D01*
X0133641Y0138552D01*
X0133641Y0141111D02*
X0127489Y0141111D01*
X0121800Y0146800D01*
X0106800Y0131800D02*
X0112843Y0125757D01*
X0133641Y0125757D01*
X0145550Y0140550D02*
X0147371Y0142371D01*
X0147371Y0148148D01*
X0147371Y0151746D01*
X0148675Y0153050D01*
X0148675Y0155954D01*
X0144812Y0153788D02*
X0125550Y0173050D01*
X0036800Y0173050D01*
X0034300Y0169300D02*
X0104300Y0169300D01*
X0111800Y0161800D01*
X0116800Y0166800D02*
X0119925Y0163675D01*
X0127425Y0163675D01*
X0139694Y0151406D01*
X0139694Y0148148D01*
X0142253Y0148148D02*
X0142253Y0151972D01*
X0127425Y0166800D01*
X0121800Y0166800D01*
X0143675Y0163050D02*
X0144079Y0162646D01*
X0148675Y0162646D01*
X0152489Y0166111D02*
X0146800Y0171800D01*
X0146175Y0177425D02*
X0155048Y0168552D01*
X0155048Y0148148D01*
X0152489Y0148148D02*
X0152489Y0166111D01*
X0157607Y0170993D02*
X0157607Y0148148D01*
X0160166Y0148148D02*
X0160166Y0173434D01*
X0152425Y0181175D01*
X0037425Y0181175D01*
X0034925Y0177425D02*
X0146175Y0177425D01*
X0151800Y0176800D02*
X0157607Y0170993D01*
X0163988Y0169613D02*
X0163988Y0164521D01*
X0163988Y0157829D02*
X0163988Y0154613D01*
X0165284Y0153316D01*
X0165284Y0148148D01*
X0165284Y0142066D01*
X0166800Y0140550D01*
X0162725Y0137100D02*
X0161800Y0136175D01*
X0162725Y0137100D02*
X0162725Y0148148D01*
X0167843Y0148148D02*
X0167843Y0175757D01*
X0164300Y0179300D01*
X0163675Y0184925D02*
X0170402Y0178198D01*
X0170402Y0148148D01*
X0172961Y0148148D02*
X0172961Y0137336D01*
X0171800Y0136175D01*
X0178080Y0142395D02*
X0179925Y0140550D01*
X0179925Y0128675D01*
X0181800Y0126800D01*
X0181800Y0121800D01*
X0191800Y0136175D02*
X0190875Y0137100D01*
X0190875Y0148148D01*
X0193434Y0148148D02*
X0193434Y0170166D01*
X0172425Y0191175D01*
X0036800Y0191175D01*
X0033675Y0194300D02*
X0179300Y0194300D01*
X0198552Y0175048D01*
X0198552Y0148148D01*
X0201111Y0148148D02*
X0201111Y0177489D01*
X0191800Y0186800D01*
X0186800Y0181800D02*
X0195993Y0172607D01*
X0195993Y0148148D01*
X0189300Y0152425D02*
X0189300Y0155329D01*
X0189300Y0152425D02*
X0188316Y0151441D01*
X0188316Y0148148D01*
X0188316Y0142066D01*
X0186800Y0140550D01*
X0185757Y0148148D02*
X0185757Y0172843D01*
X0181800Y0176800D01*
X0176800Y0176800D02*
X0183198Y0170402D01*
X0183198Y0148148D01*
X0180639Y0148148D02*
X0180639Y0154211D01*
X0179300Y0155550D01*
X0178080Y0151145D02*
X0178080Y0148148D01*
X0178080Y0142395D01*
X0178080Y0151145D02*
X0174300Y0154925D01*
X0174300Y0157829D01*
X0179300Y0163050D02*
X0177829Y0164521D01*
X0174300Y0164521D01*
X0189300Y0162021D02*
X0189300Y0167425D01*
X0204925Y0167425D02*
X0204925Y0162646D01*
X0204925Y0155954D02*
X0204925Y0153675D01*
X0206229Y0152371D01*
X0206229Y0148148D01*
X0206229Y0141121D01*
X0206800Y0140550D01*
X0203670Y0138045D02*
X0201800Y0136175D01*
X0203670Y0138045D02*
X0203670Y0148148D01*
X0208788Y0148148D02*
X0208788Y0174812D01*
X0186175Y0197425D01*
X0036800Y0197425D01*
X0033675Y0200550D02*
X0193050Y0200550D01*
X0213906Y0179694D01*
X0213906Y0148148D01*
X0211347Y0148148D02*
X0211347Y0177253D01*
X0201800Y0186800D01*
X0216800Y0186800D02*
X0225550Y0178050D01*
X0225550Y0140550D01*
X0223552Y0138552D01*
X0219959Y0138552D01*
X0219959Y0141111D02*
X0219959Y0178641D01*
X0194925Y0203675D01*
X0036800Y0203675D01*
X0034300Y0207425D02*
X0201175Y0207425D01*
X0228050Y0180550D01*
X0228050Y0138050D01*
X0223434Y0133434D01*
X0219959Y0133434D01*
X0219959Y0135993D02*
X0210993Y0135993D01*
X0206800Y0131800D01*
X0206800Y0124925D02*
X0208675Y0123050D01*
X0213675Y0123050D01*
X0216086Y0120639D01*
X0219959Y0120639D01*
X0237514Y0120639D01*
X0241800Y0124925D01*
X0239925Y0133675D02*
X0239925Y0188675D01*
X0214925Y0213675D01*
X0034300Y0213675D01*
X0037425Y0210550D02*
X0208050Y0210550D01*
X0213050Y0205550D01*
X0214300Y0204300D01*
X0234925Y0183675D01*
X0234925Y0136175D01*
X0227066Y0128316D01*
X0219959Y0128316D01*
X0219959Y0130875D02*
X0225875Y0130875D01*
X0232425Y0137425D01*
X0232425Y0181175D01*
X0226800Y0186800D01*
X0231800Y0191800D02*
X0237425Y0186175D01*
X0237425Y0134925D01*
X0228257Y0125757D01*
X0219959Y0125757D01*
X0219959Y0123198D02*
X0229448Y0123198D01*
X0239925Y0133675D01*
X0219959Y0118080D02*
X0213020Y0118080D01*
X0211800Y0119300D01*
X0210520Y0115520D02*
X0206800Y0111800D01*
X0210520Y0115520D02*
X0219959Y0115520D01*
X0219959Y0112961D02*
X0240639Y0112961D01*
X0246800Y0106800D01*
X0246800Y0071800D01*
X0206800Y0031800D01*
X0170146Y0031800D01*
X0163454Y0031800D02*
X0156800Y0031800D01*
X0181800Y0046800D02*
X0071800Y0046800D01*
X0048050Y0070550D01*
X0034300Y0070550D01*
X0036175Y0066175D02*
X0049300Y0066175D01*
X0071175Y0044300D01*
X0199300Y0044300D01*
X0219959Y0064959D01*
X0219959Y0092489D01*
X0219959Y0100166D02*
X0228434Y0100166D01*
X0231800Y0096800D01*
X0236800Y0096800D02*
X0230875Y0102725D01*
X0219959Y0102725D01*
X0219959Y0110402D02*
X0238198Y0110402D01*
X0240550Y0108050D01*
X0208050Y0093050D02*
X0206229Y0091229D01*
X0206229Y0085452D01*
X0203670Y0085452D02*
X0203670Y0096180D01*
X0201800Y0098050D01*
X0208788Y0085452D02*
X0208788Y0073788D01*
X0181800Y0046800D01*
X0206800Y0061800D02*
X0213906Y0068906D01*
X0180639Y0085452D02*
X0180639Y0096889D01*
X0181800Y0098050D01*
X0176800Y0093050D02*
X0175520Y0091770D01*
X0175520Y0085452D01*
X0172961Y0085452D02*
X0172961Y0095639D01*
X0171800Y0096800D01*
X0171800Y0101800D01*
X0166800Y0093050D02*
X0165284Y0091534D01*
X0165284Y0085452D01*
X0162725Y0085452D02*
X0162725Y0097125D01*
X0161800Y0098050D01*
X0160166Y0085452D02*
X0160166Y0077666D01*
X0149925Y0067425D01*
X0067425Y0067425D01*
X0061800Y0073050D01*
X0061800Y0079925D01*
X0048675Y0093050D01*
X0034925Y0093050D01*
X0036800Y0096800D02*
X0048675Y0096800D01*
X0073050Y0072425D01*
X0147425Y0072425D01*
X0155048Y0080048D01*
X0155048Y0085452D01*
X0157607Y0085452D02*
X0157607Y0078857D01*
X0148675Y0069925D01*
X0070550Y0069925D01*
X0066175Y0074300D01*
X0056800Y0091800D02*
X0081800Y0091800D01*
X0056800Y0091800D02*
X0048675Y0099925D01*
X0033675Y0099925D01*
X0112425Y0091800D02*
X0116800Y0091800D01*
X0117489Y0092489D01*
X0133641Y0092489D01*
X0151800Y0136175D02*
X0149930Y0138045D01*
X0149930Y0148148D01*
X0144812Y0148148D02*
X0144812Y0153788D01*
X0163675Y0184925D02*
X0034300Y0184925D01*
D18*
X0034300Y0184925D03*
X0037425Y0181175D03*
X0034925Y0177425D03*
X0036800Y0173050D03*
X0034300Y0169300D03*
X0037425Y0166175D03*
X0034300Y0163050D03*
X0036800Y0156800D03*
X0016800Y0146800D03*
X0034300Y0113675D03*
X0036800Y0109300D03*
X0033675Y0106175D03*
X0036800Y0103050D03*
X0033675Y0099925D03*
X0036800Y0096800D03*
X0034925Y0093050D03*
X0033675Y0085550D03*
X0036800Y0082425D03*
X0034925Y0078050D03*
X0036800Y0074300D03*
X0034300Y0070550D03*
X0036175Y0066175D03*
X0033675Y0056800D03*
X0036800Y0053050D03*
X0033675Y0049925D03*
X0016800Y0051800D03*
X0016800Y0016800D03*
X0056800Y0011800D03*
X0086800Y0061800D03*
X0066175Y0074300D03*
X0084925Y0081800D03*
X0094925Y0084925D03*
X0098675Y0088675D03*
X0106800Y0096800D03*
X0112425Y0091800D03*
X0096800Y0101800D03*
X0106800Y0108675D03*
X0101800Y0121800D03*
X0111800Y0121800D03*
X0106800Y0131800D03*
X0111800Y0136800D03*
X0116800Y0141800D03*
X0121800Y0146800D03*
X0128675Y0150550D03*
X0118675Y0160550D03*
X0116800Y0166800D03*
X0121800Y0166800D03*
X0111800Y0161800D03*
X0086800Y0141800D03*
X0076800Y0141800D03*
X0126800Y0115550D03*
X0141800Y0114300D03*
X0146800Y0121800D03*
X0151800Y0136175D03*
X0145550Y0140550D03*
X0161800Y0136175D03*
X0166800Y0140550D03*
X0171800Y0136175D03*
X0179925Y0140550D03*
X0186800Y0140550D03*
X0191800Y0136175D03*
X0201800Y0136175D03*
X0206800Y0140550D03*
X0206800Y0131800D03*
X0206800Y0124925D03*
X0211800Y0119300D03*
X0206800Y0111800D03*
X0201800Y0098050D03*
X0208050Y0093050D03*
X0191800Y0098050D03*
X0186800Y0093050D03*
X0181800Y0098050D03*
X0176800Y0093050D03*
X0171800Y0101800D03*
X0166800Y0093050D03*
X0161800Y0098050D03*
X0151800Y0098050D03*
X0146175Y0093050D03*
X0171800Y0061800D03*
X0181800Y0061800D03*
X0186800Y0056800D03*
X0191800Y0051800D03*
X0206800Y0061800D03*
X0226800Y0076800D03*
X0231800Y0096800D03*
X0236800Y0101800D03*
X0240550Y0108050D03*
X0241800Y0124925D03*
X0246800Y0146800D03*
X0246800Y0186800D03*
X0231800Y0191800D03*
X0226800Y0186800D03*
X0216800Y0186800D03*
X0201800Y0186800D03*
X0191800Y0186800D03*
X0186800Y0181800D03*
X0181800Y0176800D03*
X0176800Y0176800D03*
X0164300Y0179300D03*
X0163988Y0169613D03*
X0151800Y0176800D03*
X0146800Y0171800D03*
X0136800Y0171800D03*
X0143675Y0163050D03*
X0179300Y0163050D03*
X0179300Y0155550D03*
X0189300Y0167425D03*
X0204925Y0167425D03*
X0181800Y0121800D03*
X0246800Y0061800D03*
X0246800Y0011800D03*
X0206800Y0011800D03*
X0161800Y0011800D03*
X0156800Y0031800D03*
X0111800Y0011800D03*
X0016800Y0086800D03*
X0016800Y0111800D03*
X0016800Y0191800D03*
X0033675Y0194300D03*
X0036800Y0191175D03*
X0036800Y0197425D03*
X0033675Y0200550D03*
X0036800Y0203675D03*
X0034300Y0207425D03*
X0037425Y0210550D03*
X0034300Y0213675D03*
X0016800Y0226800D03*
X0056800Y0231800D03*
X0086800Y0231800D03*
X0126800Y0231800D03*
X0166800Y0231800D03*
X0211800Y0231800D03*
X0246800Y0231800D03*
D19*
X0126800Y0115550D02*
X0097425Y0115550D01*
X0095329Y0113454D01*
X0084300Y0113454D01*
X0078050Y0113454D01*
X0077829Y0113675D02*
X0071175Y0113675D01*
M02*
