G75*
%MOIN*%
%OFA0B0*%
%FSLAX25Y25*%
%IPPOS*%
%LPD*%
%AMOC8*
5,1,8,0,0,1.08239X$1,22.5*
%
%ADD10C,0.00000*%
D10*
X0006800Y0012980D02*
X0006800Y0235620D01*
X0006803Y0235890D01*
X0006813Y0236160D01*
X0006829Y0236430D01*
X0006852Y0236699D01*
X0006882Y0236968D01*
X0006917Y0237235D01*
X0006960Y0237502D01*
X0007008Y0237768D01*
X0007063Y0238032D01*
X0007125Y0238296D01*
X0007193Y0238557D01*
X0007267Y0238817D01*
X0007347Y0239075D01*
X0007434Y0239331D01*
X0007527Y0239584D01*
X0007625Y0239836D01*
X0007730Y0240085D01*
X0007841Y0240331D01*
X0007958Y0240575D01*
X0008081Y0240816D01*
X0008209Y0241053D01*
X0008343Y0241288D01*
X0008483Y0241519D01*
X0008628Y0241747D01*
X0008779Y0241971D01*
X0008935Y0242191D01*
X0009097Y0242408D01*
X0009263Y0242621D01*
X0009435Y0242829D01*
X0009612Y0243034D01*
X0009793Y0243234D01*
X0009980Y0243429D01*
X0010171Y0243620D01*
X0010366Y0243807D01*
X0010566Y0243988D01*
X0010771Y0244165D01*
X0010979Y0244337D01*
X0011192Y0244503D01*
X0011409Y0244665D01*
X0011629Y0244821D01*
X0011853Y0244972D01*
X0012081Y0245117D01*
X0012312Y0245257D01*
X0012547Y0245391D01*
X0012784Y0245519D01*
X0013025Y0245642D01*
X0013269Y0245759D01*
X0013515Y0245870D01*
X0013764Y0245975D01*
X0014016Y0246073D01*
X0014269Y0246166D01*
X0014525Y0246253D01*
X0014783Y0246333D01*
X0015043Y0246407D01*
X0015304Y0246475D01*
X0015568Y0246537D01*
X0015832Y0246592D01*
X0016098Y0246640D01*
X0016365Y0246683D01*
X0016632Y0246718D01*
X0016901Y0246748D01*
X0017170Y0246771D01*
X0017440Y0246787D01*
X0017710Y0246797D01*
X0017980Y0246800D01*
X0245620Y0246800D01*
X0245890Y0246797D01*
X0246160Y0246787D01*
X0246430Y0246771D01*
X0246699Y0246748D01*
X0246968Y0246718D01*
X0247235Y0246683D01*
X0247502Y0246640D01*
X0247768Y0246592D01*
X0248032Y0246537D01*
X0248296Y0246475D01*
X0248557Y0246407D01*
X0248817Y0246333D01*
X0249075Y0246253D01*
X0249331Y0246166D01*
X0249584Y0246073D01*
X0249836Y0245975D01*
X0250085Y0245870D01*
X0250331Y0245759D01*
X0250575Y0245642D01*
X0250816Y0245519D01*
X0251053Y0245391D01*
X0251288Y0245257D01*
X0251519Y0245117D01*
X0251747Y0244972D01*
X0251971Y0244821D01*
X0252191Y0244665D01*
X0252408Y0244503D01*
X0252621Y0244337D01*
X0252829Y0244165D01*
X0253034Y0243988D01*
X0253234Y0243807D01*
X0253429Y0243620D01*
X0253620Y0243429D01*
X0253807Y0243234D01*
X0253988Y0243034D01*
X0254165Y0242829D01*
X0254337Y0242621D01*
X0254503Y0242408D01*
X0254665Y0242191D01*
X0254821Y0241971D01*
X0254972Y0241747D01*
X0255117Y0241519D01*
X0255257Y0241288D01*
X0255391Y0241053D01*
X0255519Y0240816D01*
X0255642Y0240575D01*
X0255759Y0240331D01*
X0255870Y0240085D01*
X0255975Y0239836D01*
X0256073Y0239584D01*
X0256166Y0239331D01*
X0256253Y0239075D01*
X0256333Y0238817D01*
X0256407Y0238557D01*
X0256475Y0238296D01*
X0256537Y0238032D01*
X0256592Y0237768D01*
X0256640Y0237502D01*
X0256683Y0237235D01*
X0256718Y0236968D01*
X0256748Y0236699D01*
X0256771Y0236430D01*
X0256787Y0236160D01*
X0256797Y0235890D01*
X0256800Y0235620D01*
X0256800Y0012980D01*
X0256797Y0012710D01*
X0256787Y0012440D01*
X0256771Y0012170D01*
X0256748Y0011901D01*
X0256718Y0011632D01*
X0256683Y0011365D01*
X0256640Y0011098D01*
X0256592Y0010832D01*
X0256537Y0010568D01*
X0256475Y0010304D01*
X0256407Y0010043D01*
X0256333Y0009783D01*
X0256253Y0009525D01*
X0256166Y0009269D01*
X0256073Y0009016D01*
X0255975Y0008764D01*
X0255870Y0008515D01*
X0255759Y0008269D01*
X0255642Y0008025D01*
X0255519Y0007784D01*
X0255391Y0007547D01*
X0255257Y0007312D01*
X0255117Y0007081D01*
X0254972Y0006853D01*
X0254821Y0006629D01*
X0254665Y0006409D01*
X0254503Y0006192D01*
X0254337Y0005979D01*
X0254165Y0005771D01*
X0253988Y0005566D01*
X0253807Y0005366D01*
X0253620Y0005171D01*
X0253429Y0004980D01*
X0253234Y0004793D01*
X0253034Y0004612D01*
X0252829Y0004435D01*
X0252621Y0004263D01*
X0252408Y0004097D01*
X0252191Y0003935D01*
X0251971Y0003779D01*
X0251747Y0003628D01*
X0251519Y0003483D01*
X0251288Y0003343D01*
X0251053Y0003209D01*
X0250816Y0003081D01*
X0250575Y0002958D01*
X0250331Y0002841D01*
X0250085Y0002730D01*
X0249836Y0002625D01*
X0249584Y0002527D01*
X0249331Y0002434D01*
X0249075Y0002347D01*
X0248817Y0002267D01*
X0248557Y0002193D01*
X0248296Y0002125D01*
X0248032Y0002063D01*
X0247768Y0002008D01*
X0247502Y0001960D01*
X0247235Y0001917D01*
X0246968Y0001882D01*
X0246699Y0001852D01*
X0246430Y0001829D01*
X0246160Y0001813D01*
X0245890Y0001803D01*
X0245620Y0001800D01*
X0017980Y0001800D01*
X0017710Y0001803D01*
X0017440Y0001813D01*
X0017170Y0001829D01*
X0016901Y0001852D01*
X0016632Y0001882D01*
X0016365Y0001917D01*
X0016098Y0001960D01*
X0015832Y0002008D01*
X0015568Y0002063D01*
X0015304Y0002125D01*
X0015043Y0002193D01*
X0014783Y0002267D01*
X0014525Y0002347D01*
X0014269Y0002434D01*
X0014016Y0002527D01*
X0013764Y0002625D01*
X0013515Y0002730D01*
X0013269Y0002841D01*
X0013025Y0002958D01*
X0012784Y0003081D01*
X0012547Y0003209D01*
X0012312Y0003343D01*
X0012081Y0003483D01*
X0011853Y0003628D01*
X0011629Y0003779D01*
X0011409Y0003935D01*
X0011192Y0004097D01*
X0010979Y0004263D01*
X0010771Y0004435D01*
X0010566Y0004612D01*
X0010366Y0004793D01*
X0010171Y0004980D01*
X0009980Y0005171D01*
X0009793Y0005366D01*
X0009612Y0005566D01*
X0009435Y0005771D01*
X0009263Y0005979D01*
X0009097Y0006192D01*
X0008935Y0006409D01*
X0008779Y0006629D01*
X0008628Y0006853D01*
X0008483Y0007081D01*
X0008343Y0007312D01*
X0008209Y0007547D01*
X0008081Y0007784D01*
X0007958Y0008025D01*
X0007841Y0008269D01*
X0007730Y0008515D01*
X0007625Y0008764D01*
X0007527Y0009016D01*
X0007434Y0009269D01*
X0007347Y0009525D01*
X0007267Y0009783D01*
X0007193Y0010043D01*
X0007125Y0010304D01*
X0007063Y0010568D01*
X0007008Y0010832D01*
X0006960Y0011098D01*
X0006917Y0011365D01*
X0006882Y0011632D01*
X0006852Y0011901D01*
X0006829Y0012170D01*
X0006813Y0012440D01*
X0006803Y0012710D01*
X0006800Y0012980D01*
M02*
